<svg xmlns="http://www.w3.org/2000/svg" xmlns:xlink="http://www.w3.org/1999/xlink" width="500" zoomAndPan="magnify" viewBox="0 0 375 374.999991" height="500" preserveAspectRatio="xMidYMid meet" version="1.0"><defs><clipPath id="ed8760d515"><path d="M 35.914062 35.914062 L 338.914062 35.914062 L 338.914062 338.914062 L 35.914062 338.914062 Z M 35.914062 35.914062 " clip-rule="nonzero"/></clipPath></defs><rect x="-37.5" width="450" fill="#ffffff" y="-37.499999" height="449.999989" fill-opacity="1"/><rect x="-37.5" width="450" fill="#ffffff" y="-37.499999" height="449.999989" fill-opacity="1"/><g clip-path="url(#ed8760d515)"><path fill="#afd3cf" d="M 338.933594 187.414062 C 338.933594 189.894531 338.871094 192.375 338.75 194.851562 C 338.628906 197.328125 338.449219 199.800781 338.203125 202.265625 C 337.960938 204.734375 337.65625 207.195312 337.292969 209.648438 C 336.929688 212.101562 336.507812 214.542969 336.023438 216.976562 C 335.539062 219.40625 334.996094 221.824219 334.394531 224.230469 C 333.789062 226.636719 333.128906 229.027344 332.410156 231.398438 C 331.691406 233.773438 330.910156 236.125 330.078125 238.460938 C 329.242188 240.796875 328.347656 243.109375 327.398438 245.398438 C 326.449219 247.691406 325.445312 249.957031 324.386719 252.199219 C 323.328125 254.441406 322.210938 256.652344 321.042969 258.839844 C 319.875 261.027344 318.652344 263.183594 317.378906 265.3125 C 316.101562 267.4375 314.777344 269.53125 313.398438 271.59375 C 312.019531 273.65625 310.59375 275.683594 309.117188 277.675781 C 307.640625 279.667969 306.113281 281.621094 304.539062 283.539062 C 302.96875 285.453125 301.347656 287.332031 299.683594 289.167969 C 298.019531 291.007812 296.308594 292.800781 294.554688 294.554688 C 292.800781 296.308594 291.007812 298.019531 289.167969 299.683594 C 287.332031 301.347656 285.453125 302.96875 283.539062 304.539062 C 281.621094 306.113281 279.667969 307.640625 277.675781 309.117188 C 275.683594 310.59375 273.65625 312.019531 271.59375 313.398438 C 269.53125 314.777344 267.4375 316.101562 265.3125 317.378906 C 263.183594 318.652344 261.027344 319.875 258.839844 321.042969 C 256.652344 322.210938 254.441406 323.328125 252.199219 324.386719 C 249.957031 325.445312 247.691406 326.449219 245.398438 327.398438 C 243.109375 328.347656 240.796875 329.242188 238.460938 330.078125 C 236.125 330.910156 233.773438 331.691406 231.398438 332.410156 C 229.027344 333.128906 226.636719 333.789062 224.230469 334.394531 C 221.824219 334.996094 219.40625 335.539062 216.976562 336.023438 C 214.542969 336.507812 212.101562 336.929688 209.648438 337.292969 C 207.195312 337.65625 204.734375 337.960938 202.265625 338.203125 C 199.800781 338.449219 197.328125 338.628906 194.851562 338.75 C 192.375 338.871094 189.894531 338.933594 187.414062 338.933594 C 184.9375 338.933594 182.457031 338.871094 179.980469 338.75 C 177.503906 338.628906 175.03125 338.449219 172.5625 338.203125 C 170.097656 337.960938 167.636719 337.65625 165.183594 337.292969 C 162.730469 336.929688 160.289062 336.507812 157.855469 336.023438 C 155.421875 335.539062 153.003906 334.996094 150.597656 334.394531 C 148.195312 333.789062 145.804688 333.128906 143.433594 332.410156 C 141.058594 331.691406 138.707031 330.910156 136.371094 330.078125 C 134.035156 329.242188 131.722656 328.347656 129.433594 327.398438 C 127.140625 326.449219 124.875 325.445312 122.632812 324.386719 C 120.390625 323.324219 118.175781 322.210938 115.992188 321.042969 C 113.804688 319.875 111.644531 318.652344 109.519531 317.378906 C 107.390625 316.101562 105.296875 314.777344 103.238281 313.398438 C 101.175781 312.019531 99.148438 310.59375 97.15625 309.117188 C 95.164062 307.640625 93.210938 306.113281 91.292969 304.539062 C 89.375 302.96875 87.5 301.347656 85.660156 299.683594 C 83.824219 298.019531 82.027344 296.308594 80.277344 294.554688 C 78.523438 292.800781 76.8125 291.007812 75.148438 289.167969 C 73.484375 287.332031 71.863281 285.453125 70.289062 283.539062 C 68.71875 281.621094 67.191406 279.667969 65.714844 277.675781 C 64.238281 275.683594 62.808594 273.65625 61.433594 271.59375 C 60.054688 269.53125 58.730469 267.4375 57.453125 265.3125 C 56.179688 263.183594 54.957031 261.027344 53.789062 258.839844 C 52.621094 256.652344 51.503906 254.441406 50.445312 252.199219 C 49.382812 249.957031 48.378906 247.691406 47.429688 245.398438 C 46.480469 243.109375 45.589844 240.796875 44.753906 238.460938 C 43.917969 236.125 43.140625 233.773438 42.421875 231.398438 C 41.703125 229.027344 41.039062 226.636719 40.4375 224.230469 C 39.835938 221.824219 39.292969 219.40625 38.808594 216.976562 C 38.324219 214.542969 37.902344 212.101562 37.535156 209.648438 C 37.171875 207.195312 36.871094 204.734375 36.625 202.265625 C 36.382812 199.800781 36.203125 197.328125 36.078125 194.851562 C 35.957031 192.375 35.898438 189.894531 35.898438 187.414062 C 35.898438 184.9375 35.957031 182.457031 36.078125 179.980469 C 36.203125 177.503906 36.382812 175.03125 36.625 172.5625 C 36.871094 170.097656 37.171875 167.636719 37.539062 165.183594 C 37.902344 162.730469 38.324219 160.289062 38.808594 157.855469 C 39.292969 155.421875 39.835938 153.003906 40.4375 150.597656 C 41.039062 148.195312 41.703125 145.804688 42.421875 143.433594 C 43.140625 141.058594 43.917969 138.707031 44.753906 136.371094 C 45.589844 134.035156 46.480469 131.722656 47.429688 129.433594 C 48.378906 127.140625 49.382812 124.875 50.445312 122.632812 C 51.503906 120.390625 52.621094 118.175781 53.789062 115.988281 C 54.957031 113.804688 56.179688 111.644531 57.453125 109.519531 C 58.730469 107.390625 60.054688 105.296875 61.433594 103.238281 C 62.808594 101.175781 64.238281 99.148438 65.714844 97.15625 C 67.191406 95.164062 68.71875 93.210938 70.289062 91.292969 C 71.863281 89.375 73.484375 87.5 75.148438 85.660156 C 76.8125 83.824219 78.523438 82.027344 80.277344 80.277344 C 82.027344 78.523438 83.824219 76.8125 85.660156 75.148438 C 87.5 73.484375 89.375 71.863281 91.292969 70.289062 C 93.210938 68.71875 95.164062 67.191406 97.15625 65.714844 C 99.148438 64.238281 101.175781 62.808594 103.238281 61.433594 C 105.296875 60.054688 107.390625 58.730469 109.519531 57.453125 C 111.644531 56.179688 113.804688 54.957031 115.992188 53.789062 C 118.175781 52.621094 120.390625 51.503906 122.632812 50.445312 C 124.875 49.382812 127.140625 48.378906 129.433594 47.429688 C 131.722656 46.480469 134.035156 45.589844 136.371094 44.753906 C 138.707031 43.917969 141.058594 43.140625 143.433594 42.421875 C 145.804688 41.703125 148.195312 41.039062 150.597656 40.4375 C 153.003906 39.835938 155.421875 39.292969 157.855469 38.808594 C 160.289062 38.324219 162.730469 37.902344 165.183594 37.539062 C 167.636719 37.171875 170.097656 36.871094 172.5625 36.625 C 175.03125 36.382812 177.503906 36.203125 179.980469 36.078125 C 182.457031 35.957031 184.9375 35.898438 187.414062 35.898438 C 189.894531 35.898438 192.375 35.957031 194.851562 36.078125 C 197.328125 36.203125 199.800781 36.382812 202.265625 36.625 C 204.734375 36.871094 207.195312 37.171875 209.648438 37.539062 C 212.101562 37.902344 214.542969 38.324219 216.976562 38.808594 C 219.40625 39.292969 221.824219 39.835938 224.230469 40.4375 C 226.636719 41.039062 229.027344 41.703125 231.398438 42.421875 C 233.773438 43.140625 236.125 43.917969 238.460938 44.753906 C 240.796875 45.589844 243.109375 46.480469 245.398438 47.429688 C 247.691406 48.378906 249.957031 49.382812 252.199219 50.445312 C 254.441406 51.503906 256.652344 52.621094 258.839844 53.789062 C 261.027344 54.957031 263.183594 56.179688 265.3125 57.453125 C 267.4375 58.730469 269.53125 60.054688 271.59375 61.433594 C 273.65625 62.808594 275.683594 64.238281 277.675781 65.714844 C 279.667969 67.191406 281.621094 68.71875 283.539062 70.289062 C 285.453125 71.863281 287.332031 73.484375 289.167969 75.148438 C 291.007812 76.8125 292.800781 78.523438 294.554688 80.277344 C 296.308594 82.027344 298.019531 83.824219 299.683594 85.660156 C 301.347656 87.5 302.96875 89.375 304.539062 91.292969 C 306.113281 93.210938 307.640625 95.164062 309.117188 97.15625 C 310.59375 99.148438 312.019531 101.175781 313.398438 103.238281 C 314.777344 105.296875 316.101562 107.390625 317.378906 109.519531 C 318.652344 111.644531 319.875 113.804688 321.042969 115.988281 C 322.210938 118.175781 323.328125 120.390625 324.386719 122.632812 C 325.445312 124.875 326.449219 127.140625 327.398438 129.433594 C 328.347656 131.722656 329.242188 134.035156 330.078125 136.371094 C 330.910156 138.707031 331.691406 141.058594 332.410156 143.433594 C 333.128906 145.804688 333.789062 148.195312 334.394531 150.597656 C 334.996094 153.003906 335.539062 155.421875 336.023438 157.855469 C 336.507812 160.289062 336.929688 162.730469 337.292969 165.183594 C 337.65625 167.636719 337.960938 170.097656 338.203125 172.5625 C 338.449219 175.03125 338.628906 177.503906 338.75 179.980469 C 338.871094 182.457031 338.933594 184.9375 338.933594 187.414062 Z M 338.933594 187.414062 " fill-opacity="1" fill-rule="nonzero"/></g><path fill="#b17f4a" d="M 273.652344 209.503906 C 269.019531 243.183594 256.519531 264.011719 226.683594 273.152344 C 222.035156 274.585938 216.960938 275.726562 211.429688 276.597656 C 202.792969 277.941406 193.050781 278.605469 182.054688 278.605469 C 174.496094 278.605469 167.425781 277.90625 160.851562 276.609375 C 154.671875 275.402344 148.914062 273.664062 143.605469 271.503906 C 110.226562 257.863281 94.050781 227.089844 94.847656 201.257812 C 95.445312 182.542969 121.957031 107.539062 121.957031 107.539062 C 121.957031 107.539062 138.90625 97.230469 166.457031 94.386719 C 171.238281 93.890625 176.175781 93.585938 181.199219 93.570312 C 181.488281 93.554688 181.761719 93.554688 182.054688 93.554688 C 185.152344 93.554688 188.21875 93.65625 191.25 93.859375 C 197.191406 94.21875 202.996094 94.914062 208.464844 95.816406 C 231.199219 99.511719 248.378906 106.445312 248.378906 106.445312 C 248.378906 106.445312 276.15625 191.367188 273.652344 209.503906 Z M 273.652344 209.503906 " fill-opacity="1" fill-rule="nonzero"/><path fill="#d0d0d0" d="M 220.09375 267.445312 C 220.09375 267.898438 220.039062 268.351562 219.929688 268.800781 C 219.824219 269.25 219.664062 269.699219 219.449219 270.144531 C 219.234375 270.585938 218.964844 271.027344 218.648438 271.460938 C 218.328125 271.894531 217.957031 272.320312 217.535156 272.738281 C 217.113281 273.15625 216.644531 273.566406 216.125 273.964844 C 215.605469 274.367188 215.042969 274.753906 214.429688 275.128906 C 213.820312 275.507812 213.164062 275.871094 212.464844 276.21875 C 211.769531 276.570312 211.03125 276.90625 210.253906 277.226562 C 209.472656 277.546875 208.660156 277.851562 207.808594 278.136719 C 206.957031 278.425781 206.074219 278.695312 205.160156 278.945312 C 204.246094 279.199219 203.304688 279.429688 202.332031 279.644531 C 201.363281 279.859375 200.367188 280.050781 199.351562 280.226562 C 198.335938 280.398438 197.300781 280.550781 196.246094 280.683594 C 195.195312 280.8125 194.128906 280.925781 193.050781 281.011719 C 191.96875 281.101562 190.882812 281.167969 189.789062 281.210938 C 188.691406 281.257812 187.59375 281.277344 186.496094 281.277344 C 185.394531 281.277344 184.296875 281.257812 183.203125 281.210938 C 182.105469 281.167969 181.019531 281.101562 179.941406 281.011719 C 178.859375 280.925781 177.792969 280.8125 176.742188 280.683594 C 175.6875 280.550781 174.652344 280.398438 173.636719 280.226562 C 172.621094 280.050781 171.625 279.859375 170.65625 279.644531 C 169.6875 279.429688 168.742188 279.199219 167.828125 278.945312 C 166.914062 278.695312 166.03125 278.425781 165.179688 278.136719 C 164.328125 277.851562 163.515625 277.546875 162.738281 277.226562 C 161.957031 276.90625 161.21875 276.570312 160.523438 276.21875 C 159.824219 275.871094 159.167969 275.507812 158.558594 275.128906 C 157.945312 274.753906 157.382812 274.367188 156.863281 273.964844 C 156.34375 273.566406 155.875 273.15625 155.453125 272.738281 C 155.03125 272.320312 154.660156 271.894531 154.34375 271.460938 C 154.023438 271.027344 153.757812 270.585938 153.542969 270.144531 C 153.328125 269.699219 153.164062 269.25 153.058594 268.800781 C 152.949219 268.351562 152.894531 267.898438 152.894531 267.445312 C 152.894531 266.992188 152.949219 266.539062 153.058594 266.089844 C 153.164062 265.636719 153.328125 265.191406 153.542969 264.746094 C 153.757812 264.300781 154.023438 263.863281 154.34375 263.429688 C 154.660156 262.996094 155.03125 262.570312 155.453125 262.152344 C 155.875 261.730469 156.34375 261.324219 156.863281 260.921875 C 157.382812 260.523438 157.945312 260.136719 158.558594 259.757812 C 159.167969 259.382812 159.824219 259.019531 160.523438 258.667969 C 161.21875 258.320312 161.957031 257.984375 162.738281 257.664062 C 163.515625 257.34375 164.328125 257.039062 165.179688 256.75 C 166.03125 256.464844 166.914062 256.195312 167.828125 255.941406 C 168.742188 255.691406 169.6875 255.457031 170.65625 255.246094 C 171.625 255.03125 172.621094 254.835938 173.636719 254.664062 C 174.652344 254.492188 175.6875 254.339844 176.742188 254.207031 C 177.792969 254.074219 178.859375 253.964844 179.941406 253.878906 C 181.019531 253.789062 182.105469 253.722656 183.203125 253.679688 C 184.296875 253.632812 185.394531 253.609375 186.496094 253.609375 C 187.59375 253.609375 188.691406 253.632812 189.789062 253.679688 C 190.882812 253.722656 191.96875 253.789062 193.050781 253.878906 C 194.128906 253.964844 195.195312 254.074219 196.246094 254.207031 C 197.300781 254.339844 198.335938 254.492188 199.351562 254.664062 C 200.367188 254.835938 201.363281 255.03125 202.332031 255.246094 C 203.304688 255.457031 204.246094 255.691406 205.160156 255.941406 C 206.074219 256.195312 206.957031 256.464844 207.808594 256.75 C 208.660156 257.039062 209.472656 257.34375 210.253906 257.664062 C 211.03125 257.984375 211.769531 258.320312 212.464844 258.667969 C 213.164062 259.019531 213.820312 259.382812 214.429688 259.757812 C 215.042969 260.136719 215.605469 260.523438 216.125 260.921875 C 216.644531 261.324219 217.113281 261.730469 217.535156 262.152344 C 217.957031 262.570312 218.328125 262.996094 218.648438 263.429688 C 218.964844 263.863281 219.234375 264.300781 219.449219 264.746094 C 219.664062 265.191406 219.824219 265.636719 219.929688 266.089844 C 220.039062 266.539062 220.09375 266.992188 220.09375 267.445312 Z M 220.09375 267.445312 " fill-opacity="1" fill-rule="nonzero"/><path fill="#ef7d76" d="M 199.417969 265.117188 C 197.457031 273.195312 192.121094 277.621094 185.738281 277.621094 C 179.355469 277.621094 174.835938 274.277344 172.320312 265.375 C 171.898438 263.917969 170.449219 257.558594 170.449219 252.257812 C 180.269531 255.214844 186.203125 238.558594 186.203125 238.558594 C 186.203125 238.558594 189.375 252.085938 199.722656 252.257812 C 200.464844 257.171875 199.9375 262.953125 199.417969 265.117188 Z M 199.417969 265.117188 " fill-opacity="1" fill-rule="nonzero"/><path fill="#e56c66" d="M 188.195312 263.746094 C 188.195312 265.207031 187.015625 266.386719 185.550781 266.386719 C 184.09375 266.386719 182.910156 265.207031 182.910156 263.746094 C 182.910156 262.289062 184.09375 261.097656 185.550781 261.097656 C 187.015625 261.097656 188.195312 262.289062 188.195312 263.746094 Z M 188.195312 263.746094 " fill-opacity="1" fill-rule="nonzero"/><path fill="#e56c66" d="M 192.105469 267.820312 C 192.105469 268.613281 191.460938 269.257812 190.671875 269.257812 C 189.878906 269.257812 189.238281 268.613281 189.238281 267.820312 C 189.238281 267.03125 189.878906 266.386719 190.671875 266.386719 C 191.460938 266.390625 192.105469 267.03125 192.105469 267.820312 Z M 192.105469 267.820312 " fill-opacity="1" fill-rule="nonzero"/><path fill="#e56c66" d="M 191.722656 263.449219 C 191.722656 263.957031 191.3125 264.375 190.808594 264.375 C 190.292969 264.375 189.886719 263.960938 189.886719 263.449219 C 189.886719 262.945312 190.292969 262.53125 190.808594 262.53125 C 191.3125 262.535156 191.722656 262.945312 191.722656 263.449219 Z M 191.722656 263.449219 " fill-opacity="1" fill-rule="nonzero"/><path fill="#e56c66" d="M 193.996094 265.894531 C 193.996094 266.167969 193.78125 266.386719 193.507812 266.386719 C 193.242188 266.386719 193.019531 266.164062 193.019531 265.894531 C 193.019531 265.617188 193.242188 265.398438 193.507812 265.398438 C 193.78125 265.398438 193.996094 265.621094 193.996094 265.894531 Z M 193.996094 265.894531 " fill-opacity="1" fill-rule="nonzero"/><path fill="#e56c66" d="M 183.402344 269.257812 C 183.402344 269.527344 183.183594 269.742188 182.914062 269.742188 C 182.636719 269.742188 182.414062 269.523438 182.414062 269.257812 C 182.414062 268.980469 182.636719 268.757812 182.914062 268.757812 C 183.183594 268.757812 183.402344 268.980469 183.402344 269.257812 Z M 183.402344 269.257812 " fill-opacity="1" fill-rule="nonzero"/><path fill="#e56c66" d="M 189.496094 271.789062 C 189.496094 271.976562 189.460938 272.160156 189.386719 272.335938 C 189.316406 272.511719 189.210938 272.667969 189.078125 272.800781 C 188.941406 272.933594 188.789062 273.039062 188.613281 273.113281 C 188.4375 273.183594 188.253906 273.21875 188.066406 273.222656 C 187.875 273.21875 187.691406 273.183594 187.515625 273.113281 C 187.339844 273.039062 187.1875 272.933594 187.050781 272.800781 C 186.917969 272.667969 186.8125 272.511719 186.742188 272.335938 C 186.667969 272.160156 186.632812 271.976562 186.632812 271.789062 C 186.632812 271.597656 186.667969 271.414062 186.742188 271.238281 C 186.8125 271.0625 186.917969 270.910156 187.050781 270.773438 C 187.1875 270.640625 187.339844 270.539062 187.515625 270.464844 C 187.691406 270.390625 187.875 270.355469 188.066406 270.355469 C 188.253906 270.355469 188.4375 270.390625 188.613281 270.464844 C 188.789062 270.539062 188.941406 270.640625 189.078125 270.773438 C 189.210938 270.910156 189.316406 271.0625 189.386719 271.238281 C 189.460938 271.414062 189.496094 271.597656 189.496094 271.789062 Z M 189.496094 271.789062 " fill-opacity="1" fill-rule="nonzero"/><path fill="#ededed" d="M 186.632812 250.386719 C 186.632812 250.386719 186.480469 250.726562 186.175781 251.320312 C 184.011719 255.613281 174.371094 273.253906 160.851562 276.609375 C 159.421875 276.96875 157.941406 277.15625 156.429688 277.15625 C 151.914062 277.15625 147.449219 274.941406 143.605469 271.503906 C 136.894531 265.523438 132.058594 255.804688 132.058594 247.609375 C 132.074219 220.550781 169.21875 186.9375 166.746094 169.515625 C 164.277344 152.113281 143.429688 138.78125 141.546875 123.621094 C 140.28125 113.664062 152.867188 101.535156 166.460938 94.382812 C 171.238281 93.886719 176.179688 93.585938 181.203125 93.566406 C 181.488281 93.550781 181.765625 93.550781 182.054688 93.550781 C 185.152344 93.550781 188.21875 93.652344 191.25 93.855469 C 200.152344 122.363281 186.632812 250.386719 186.632812 250.386719 Z M 186.632812 250.386719 " fill-opacity="1" fill-rule="nonzero"/><path fill="#ededed" d="M 240.273438 247.609375 C 240.273438 256.621094 234.4375 267.449219 226.683594 273.152344 C 223.347656 275.640625 219.636719 277.15625 215.90625 277.15625 C 214.378906 277.15625 212.878906 276.953125 211.429688 276.597656 C 197.925781 273.222656 188.320312 255.597656 186.175781 251.324219 C 185.851562 250.726562 185.695312 250.390625 185.695312 250.390625 C 185.695312 250.390625 172.089844 121.496094 181.199219 93.570312 C 181.488281 93.554688 181.761719 93.554688 182.054688 93.554688 C 185.152344 93.554688 188.21875 93.65625 191.25 93.859375 C 197.191406 94.21875 202.996094 94.914062 208.464844 95.816406 C 221.015625 103.070312 231.964844 114.308594 230.808594 123.625 C 228.894531 138.78125 208.054688 152.113281 205.585938 169.515625 C 203.117188 186.9375 240.257812 220.554688 240.273438 247.609375 Z M 240.273438 247.609375 " fill-opacity="1" fill-rule="nonzero"/><path fill="#a2653c" d="M 298.535156 192.132812 C 299.175781 192.304688 299.824219 192.363281 300.464844 192.203125 C 300.832031 192.113281 300.949219 191.632812 300.6875 191.371094 C 299.601562 190.285156 298.121094 189.738281 296.933594 188.753906 C 296.910156 188.738281 296.898438 188.714844 296.871094 188.699219 C 296.589844 188.183594 296.316406 187.660156 296.011719 187.160156 C 295.367188 183.628906 297.210938 175.757812 295.898438 173.199219 C 292.65625 166.875 289.179688 162.949219 285.625 159.296875 C 287.28125 160.007812 289.0625 160.480469 290.96875 160.660156 C 291.484375 160.707031 291.535156 159.941406 291.085938 159.796875 C 285.820312 158.085938 281.859375 154.304688 278.375 150.140625 C 276.398438 147.769531 274.660156 144.957031 272.632812 142.484375 C 270.839844 136.148438 271.171875 125.351562 268.546875 121.621094 C 257.703125 106.21875 251.195312 107.441406 248.378906 106.445312 C 240.300781 103.578125 248.113281 125.027344 248.113281 125.027344 C 248.113281 125.027344 258.984375 160.296875 255.1875 176.9375 C 251.785156 191.867188 257.621094 200.636719 256.625 227.769531 C 255.90625 247.320312 252.039062 247.921875 254.253906 255.066406 C 254.25 255.21875 254.242188 255.378906 254.242188 255.53125 C 254.183594 261.496094 254.957031 266.3125 257.183594 271.917969 C 257.460938 272.613281 258.570312 272.351562 258.339844 271.597656 C 257.136719 267.707031 256.679688 263.746094 256.964844 259.78125 C 257.023438 259.839844 257.089844 259.886719 257.152344 259.941406 C 256.90625 263.039062 257.539062 266.042969 258.894531 269.109375 C 259.203125 269.800781 260.304688 269.304688 260.101562 268.601562 C 259.4375 266.308594 259.332031 263.976562 259.585938 261.664062 C 260.367188 262.0625 261.195312 262.390625 262.085938 262.625 C 260.257812 268.761719 259.78125 275.109375 261.40625 280.441406 C 261.613281 281.117188 262.679688 281.007812 262.660156 280.273438 C 262.480469 273.933594 263.328125 268.648438 265.566406 263.109375 C 266.347656 263.136719 267.140625 263.132812 267.960938 263.066406 C 266.183594 267.390625 264.886719 272.199219 266.125 276.601562 C 266.207031 276.898438 266.445312 277.03125 266.6875 277.027344 C 266.707031 277.152344 266.71875 277.273438 266.742188 277.398438 C 266.824219 277.800781 267.40625 277.757812 267.515625 277.398438 C 269.050781 272.273438 272.859375 268.492188 275.6875 264.042969 C 276.417969 262.898438 277.058594 261.722656 277.667969 260.53125 C 278.570312 260.144531 279.472656 259.734375 280.378906 259.273438 C 279.265625 262.933594 277.355469 266.21875 276.113281 269.832031 C 275.824219 270.660156 276.933594 271.195312 277.511719 270.648438 C 280.484375 267.839844 282.042969 264.054688 283.390625 260.257812 C 283.734375 259.28125 284.078125 258.164062 284.355469 256.984375 C 284.632812 256.808594 284.910156 256.644531 285.183594 256.460938 C 283.992188 259.929688 282.496094 263.285156 281.605469 266.839844 C 281.355469 267.839844 282.65625 268.316406 283.214844 267.515625 C 285.769531 263.84375 288.453125 258.394531 290.035156 252.796875 C 290.125 252.722656 290.214844 252.65625 290.300781 252.582031 C 289.105469 256.816406 287.253906 260.886719 286.582031 265.214844 C 286.492188 265.753906 287.101562 266.222656 287.546875 265.777344 C 290.433594 262.875 293.113281 257.59375 294.683594 251.878906 C 294.589844 255.113281 293.863281 258.292969 292.414062 261.382812 C 292.273438 261.679688 292.632812 262 292.882812 261.75 C 296.835938 257.777344 298.117188 252.046875 297.9375 246.621094 C 297.929688 246.433594 297.914062 246.234375 297.90625 246.035156 C 298.960938 249.507812 299.398438 252.957031 298.789062 257.054688 C 298.484375 257.757812 298.15625 258.453125 297.761719 259.144531 C 297.507812 259.582031 297.890625 259.921875 298.28125 259.875 C 298.320312 260.199219 298.742188 260.3125 298.960938 260.027344 C 299.398438 259.449219 299.777344 258.867188 300.105469 258.273438 C 303.824219 253.792969 303.386719 246.417969 302.804688 241.027344 C 302.21875 235.625 300.5 230.3125 299.121094 225.078125 C 298.40625 222.375 297.921875 219.636719 297.460938 216.894531 C 297.984375 212.527344 298.867188 209.496094 299.460938 206.703125 C 300.683594 213.878906 299.933594 221.703125 303.363281 228.125 C 303.570312 228.515625 304.1875 228.335938 304.183594 227.902344 C 303.988281 217.609375 303.300781 203.296875 298.535156 192.132812 Z M 298.535156 192.132812 " fill-opacity="1" fill-rule="nonzero"/><path fill="#a2653c" d="M 76.296875 192.132812 C 75.652344 192.304688 75.007812 192.363281 74.363281 192.203125 C 74 192.113281 73.882812 191.632812 74.144531 191.371094 C 75.226562 190.285156 76.707031 189.738281 77.894531 188.753906 C 77.921875 188.738281 77.933594 188.714844 77.957031 188.699219 C 78.238281 188.183594 78.511719 187.660156 78.816406 187.160156 C 79.464844 183.628906 77.621094 175.757812 78.933594 173.199219 C 82.175781 166.875 85.652344 162.949219 89.203125 159.296875 C 87.550781 160.007812 85.769531 160.480469 83.867188 160.660156 C 83.347656 160.707031 83.296875 159.941406 83.746094 159.796875 C 89.011719 158.085938 92.972656 154.304688 96.457031 150.140625 C 98.441406 147.769531 100.171875 144.957031 102.203125 142.484375 C 103.992188 136.148438 103.660156 125.351562 106.285156 121.621094 C 117.128906 106.21875 123.636719 107.441406 126.453125 106.445312 C 134.53125 103.578125 126.71875 125.027344 126.71875 125.027344 C 126.71875 125.027344 115.84375 160.296875 119.640625 176.9375 C 123.046875 191.867188 117.210938 200.636719 118.203125 227.769531 C 118.925781 247.320312 122.792969 247.921875 120.578125 255.066406 C 120.585938 255.21875 120.589844 255.378906 120.589844 255.53125 C 120.648438 261.496094 119.875 266.3125 117.644531 271.917969 C 117.371094 272.613281 116.261719 272.351562 116.492188 271.597656 C 117.695312 267.707031 118.152344 263.746094 117.867188 259.78125 C 117.808594 259.839844 117.742188 259.886719 117.679688 259.941406 C 117.925781 263.039062 117.292969 266.042969 115.9375 269.109375 C 115.628906 269.800781 114.527344 269.304688 114.730469 268.601562 C 115.390625 266.308594 115.496094 263.976562 115.246094 261.664062 C 114.464844 262.0625 113.636719 262.390625 112.75 262.625 C 114.578125 268.761719 115.050781 275.109375 113.429688 280.441406 C 113.21875 281.117188 112.152344 281.007812 112.175781 280.273438 C 112.351562 273.933594 111.503906 268.648438 109.265625 263.109375 C 108.484375 263.136719 107.691406 263.132812 106.875 263.066406 C 108.648438 267.390625 109.945312 272.199219 108.707031 276.601562 C 108.625 276.898438 108.386719 277.03125 108.148438 277.027344 C 108.125 277.152344 108.113281 277.273438 108.089844 277.398438 C 108.007812 277.800781 107.425781 277.757812 107.316406 277.398438 C 105.78125 272.273438 101.96875 268.492188 99.144531 264.042969 C 98.414062 262.898438 97.773438 261.722656 97.167969 260.53125 C 96.261719 260.144531 95.359375 259.734375 94.457031 259.273438 C 95.566406 262.933594 97.476562 266.21875 98.71875 269.832031 C 99.003906 270.660156 97.898438 271.195312 97.320312 270.648438 C 94.351562 267.839844 92.789062 264.054688 91.4375 260.257812 C 91.09375 259.28125 90.753906 258.164062 90.472656 256.984375 C 90.199219 256.808594 89.917969 256.644531 89.648438 256.460938 C 90.839844 259.929688 92.335938 263.285156 93.222656 266.839844 C 93.476562 267.839844 92.175781 268.316406 91.617188 267.515625 C 89.058594 263.84375 86.378906 258.394531 84.796875 252.796875 C 84.707031 252.722656 84.617188 252.65625 84.53125 252.582031 C 85.726562 256.816406 87.578125 260.886719 88.25 265.214844 C 88.335938 265.753906 87.730469 266.222656 87.285156 265.777344 C 84.398438 262.875 81.714844 257.59375 80.148438 251.878906 C 80.242188 255.113281 80.96875 258.292969 82.417969 261.382812 C 82.558594 261.679688 82.199219 262 81.949219 261.75 C 77.996094 257.777344 76.71875 252.046875 76.898438 246.621094 C 76.902344 246.433594 76.917969 246.234375 76.925781 246.035156 C 75.871094 249.507812 75.429688 252.957031 76.042969 257.054688 C 76.347656 257.757812 76.679688 258.453125 77.070312 259.144531 C 77.320312 259.582031 76.941406 259.921875 76.550781 259.875 C 76.511719 260.199219 76.089844 260.3125 75.871094 260.027344 C 75.429688 259.449219 75.054688 258.867188 74.726562 258.273438 C 71.007812 253.792969 71.445312 246.417969 72.03125 241.027344 C 72.613281 235.625 74.332031 230.3125 75.710938 225.078125 C 76.425781 222.375 76.910156 219.636719 77.371094 216.894531 C 76.847656 212.527344 75.964844 209.496094 75.371094 206.703125 C 74.144531 213.878906 74.898438 221.703125 71.46875 228.125 C 71.261719 228.515625 70.644531 228.335938 70.648438 227.902344 C 70.84375 217.609375 71.535156 203.296875 76.296875 192.132812 Z M 76.296875 192.132812 " fill-opacity="1" fill-rule="nonzero"/><path fill="#000000" d="M 206.433594 217.28125 C 206.433594 226.058594 194.019531 235.402344 185.890625 235.402344 C 177.753906 235.402344 163.839844 226.070312 163.839844 218.105469 C 163.839844 209.46875 170.96875 205.992188 185.890625 205.992188 C 200.789062 205.992188 206.433594 212.042969 206.433594 217.28125 Z M 206.433594 217.28125 " fill-opacity="1" fill-rule="nonzero"/><path fill="#35170e" d="M 156.421875 183.203125 C 156.421875 190.464844 150.539062 196.355469 143.277344 196.355469 C 135.996094 196.355469 130.109375 190.464844 130.109375 183.203125 C 130.109375 175.933594 135.996094 170.042969 143.277344 170.042969 C 150.539062 170.042969 156.421875 175.933594 156.421875 183.203125 Z M 156.421875 183.203125 " fill-opacity="1" fill-rule="nonzero"/><path fill="#000000" d="M 153.277344 183.203125 C 153.277344 188.722656 148.792969 193.199219 143.277344 193.199219 C 137.75 193.199219 133.265625 188.722656 133.265625 183.203125 C 133.265625 177.671875 137.75 173.199219 143.277344 173.199219 C 148.796875 173.199219 153.277344 177.671875 153.277344 183.203125 Z M 153.277344 183.203125 " fill-opacity="1" fill-rule="nonzero"/><path fill="#ffffff" d="M 153.277344 179.632812 C 153.265625 182.003906 151.351562 183.914062 148.972656 183.914062 C 146.625 183.914062 144.699219 181.992188 144.699219 179.628906 C 144.710938 177.257812 146.628906 175.347656 148.992188 175.351562 C 151.359375 175.351562 153.277344 177.273438 153.277344 179.632812 Z M 153.277344 179.632812 " fill-opacity="1" fill-rule="nonzero"/><path fill="#ffffff" d="M 145.308594 183.914062 C 145.308594 185.042969 144.394531 185.953125 143.265625 185.953125 C 142.148438 185.953125 141.230469 185.042969 141.230469 183.914062 C 141.230469 182.789062 142.148438 181.878906 143.277344 181.878906 C 144.402344 181.878906 145.308594 182.796875 145.308594 183.914062 Z M 145.308594 183.914062 " fill-opacity="1" fill-rule="nonzero"/><path fill="#35170e" d="M 216.945312 183.203125 C 216.945312 190.464844 222.820312 196.355469 230.089844 196.355469 C 237.363281 196.355469 243.25 190.464844 243.25 183.203125 C 243.25 175.933594 237.363281 170.042969 230.089844 170.042969 C 222.816406 170.042969 216.945312 175.933594 216.945312 183.203125 Z M 216.945312 183.203125 " fill-opacity="1" fill-rule="nonzero"/><path fill="#000000" d="M 220.089844 183.203125 C 220.089844 188.722656 224.570312 193.199219 230.085938 193.199219 C 235.613281 193.199219 240.101562 188.722656 240.101562 183.203125 C 240.101562 177.671875 235.613281 173.199219 230.085938 173.199219 C 224.570312 173.199219 220.089844 177.671875 220.089844 183.203125 Z M 220.089844 183.203125 " fill-opacity="1" fill-rule="nonzero"/><path fill="#ffffff" d="M 220.089844 179.632812 C 220.097656 182.003906 222.011719 183.914062 224.386719 183.914062 C 226.738281 183.914062 228.660156 181.992188 228.660156 179.628906 C 228.65625 177.257812 226.730469 175.347656 224.367188 175.351562 C 222.003906 175.351562 220.089844 177.273438 220.089844 179.632812 Z M 220.089844 179.632812 " fill-opacity="1" fill-rule="nonzero"/><path fill="#ffffff" d="M 228.058594 183.914062 C 228.058594 185.042969 228.972656 185.953125 230.101562 185.953125 C 231.21875 185.953125 232.128906 185.042969 232.128906 183.914062 C 232.128906 182.789062 231.21875 181.878906 230.089844 181.878906 C 228.960938 181.878906 228.058594 182.796875 228.058594 183.914062 Z M 228.058594 183.914062 " fill-opacity="1" fill-rule="nonzero"/><path fill="#c6c6c6" d="M 195.957031 237.945312 C 194.359375 237.945312 193.765625 240.128906 195.152344 240.929688 C 195.027344 240.800781 194.886719 240.664062 194.753906 240.535156 C 195.34375 241.425781 196.566406 241.425781 197.152344 240.535156 C 197.023438 240.664062 196.886719 240.800781 196.761719 240.929688 C 198.144531 240.128906 197.542969 237.945312 195.957031 237.945312 Z M 195.957031 237.945312 " fill-opacity="1" fill-rule="nonzero"/><path fill="#c6c6c6" d="M 197.53125 244.710938 C 194.152344 244.710938 194.152344 249.941406 197.53125 249.941406 C 200.914062 249.941406 200.914062 244.710938 197.53125 244.710938 Z M 197.53125 244.710938 " fill-opacity="1" fill-rule="nonzero"/><path fill="#c6c6c6" d="M 207.621094 247.523438 C 205.742188 247.523438 205.742188 250.460938 207.621094 250.460938 C 209.515625 250.460938 209.515625 247.523438 207.621094 247.523438 Z M 207.621094 247.523438 " fill-opacity="1" fill-rule="nonzero"/><path fill="#c6c6c6" d="M 204.308594 240.75 C 202.074219 240.75 202.074219 244.21875 204.308594 244.21875 C 206.546875 244.21875 206.546875 240.75 204.308594 240.75 Z M 204.308594 240.75 " fill-opacity="1" fill-rule="nonzero"/><path fill="#c6c6c6" d="M 202.628906 235.402344 C 201.734375 235.402344 201.734375 236.789062 202.628906 236.789062 C 203.53125 236.789062 203.53125 235.402344 202.628906 235.402344 Z M 202.628906 235.402344 " fill-opacity="1" fill-rule="nonzero"/><path fill="#c6c6c6" d="M 201.328125 253.105469 C 200.429688 253.105469 200.429688 254.496094 201.328125 254.496094 C 202.21875 254.496094 202.21875 253.105469 201.328125 253.105469 Z M 201.328125 253.105469 " fill-opacity="1" fill-rule="nonzero"/><path fill="#c6c6c6" d="M 214.945312 242.648438 C 213.1875 242.648438 213.1875 245.371094 214.945312 245.371094 C 216.695312 245.371094 216.695312 242.648438 214.945312 242.648438 Z M 214.945312 242.648438 " fill-opacity="1" fill-rule="nonzero"/><path fill="#c6c6c6" d="M 172.679688 238.785156 C 174.28125 238.785156 174.867188 240.96875 173.492188 241.769531 C 173.625 241.628906 173.746094 241.5 173.890625 241.363281 C 173.289062 242.261719 172.074219 242.261719 171.484375 241.363281 C 171.609375 241.5 171.75 241.628906 171.875 241.769531 C 170.5 240.96875 171.089844 238.785156 172.679688 238.785156 Z M 172.679688 238.785156 " fill-opacity="1" fill-rule="nonzero"/><path fill="#c6c6c6" d="M 171.109375 245.542969 C 174.484375 245.542969 174.484375 250.777344 171.109375 250.777344 C 167.730469 250.777344 167.730469 245.542969 171.109375 245.542969 Z M 171.109375 245.542969 " fill-opacity="1" fill-rule="nonzero"/><path fill="#c6c6c6" d="M 161.011719 248.363281 C 162.90625 248.363281 162.90625 251.300781 161.011719 251.300781 C 159.121094 251.300781 159.121094 248.363281 161.011719 248.363281 Z M 161.011719 248.363281 " fill-opacity="1" fill-rule="nonzero"/><path fill="#c6c6c6" d="M 164.324219 241.585938 C 166.566406 241.585938 166.566406 245.058594 164.324219 245.058594 C 162.089844 245.058594 162.089844 241.585938 164.324219 241.585938 Z M 164.324219 241.585938 " fill-opacity="1" fill-rule="nonzero"/><path fill="#c6c6c6" d="M 165.996094 236.234375 C 166.90625 236.234375 166.90625 237.632812 165.996094 237.632812 C 165.105469 237.632812 165.105469 236.234375 165.996094 236.234375 Z M 165.996094 236.234375 " fill-opacity="1" fill-rule="nonzero"/><path fill="#c6c6c6" d="M 167.320312 253.945312 C 168.21875 253.945312 168.21875 255.335938 167.320312 255.335938 C 166.410156 255.335938 166.410156 253.945312 167.320312 253.945312 Z M 167.320312 253.945312 " fill-opacity="1" fill-rule="nonzero"/><path fill="#c6c6c6" d="M 153.695312 243.480469 C 155.445312 243.480469 155.445312 246.207031 153.695312 246.207031 C 151.941406 246.207031 151.941406 243.480469 153.695312 243.480469 Z M 153.695312 243.480469 " fill-opacity="1" fill-rule="nonzero"/></svg>