<svg xmlns="http://www.w3.org/2000/svg" xmlns:xlink="http://www.w3.org/1999/xlink" width="500" zoomAndPan="magnify" viewBox="0 0 375 374.999991" height="500" preserveAspectRatio="xMidYMid meet" version="1.0"><defs><clipPath id="28a7886989"><path d="M 30.632812 37.5 L 344.132812 37.5 L 344.132812 351 L 30.632812 351 Z M 30.632812 37.5 " clip-rule="nonzero"/></clipPath></defs><rect x="-37.5" width="450" fill="#ffffff" y="-37.499999" height="449.999989" fill-opacity="1"/><rect x="-37.5" width="450" fill="#ffffff" y="-37.499999" height="449.999989" fill-opacity="1"/><g clip-path="url(#28a7886989)"><path fill="#007db6" d="M 344.15625 194.25 C 344.15625 196.816406 344.089844 199.378906 343.964844 201.941406 C 343.839844 204.503906 343.652344 207.0625 343.398438 209.617188 C 343.148438 212.167969 342.832031 214.714844 342.457031 217.253906 C 342.082031 219.789062 341.640625 222.316406 341.140625 224.835938 C 340.640625 227.351562 340.078125 229.851562 339.457031 232.34375 C 338.832031 234.832031 338.148438 237.304688 337.402344 239.757812 C 336.660156 242.214844 335.855469 244.648438 334.988281 247.0625 C 334.125 249.480469 333.203125 251.875 332.222656 254.242188 C 331.238281 256.613281 330.199219 258.957031 329.101562 261.277344 C 328.003906 263.597656 326.851562 265.886719 325.644531 268.152344 C 324.433594 270.414062 323.167969 272.644531 321.851562 274.847656 C 320.53125 277.046875 319.160156 279.214844 317.734375 281.347656 C 316.308594 283.480469 314.832031 285.578125 313.304688 287.636719 C 311.773438 289.699219 310.195312 291.722656 308.570312 293.703125 C 306.941406 295.6875 305.265625 297.628906 303.542969 299.53125 C 301.820312 301.433594 300.050781 303.289062 298.238281 305.101562 C 296.421875 306.917969 294.566406 308.6875 292.664062 310.410156 C 290.761719 312.132812 288.820312 313.808594 286.839844 315.433594 C 284.855469 317.0625 282.832031 318.640625 280.773438 320.167969 C 278.710938 321.699219 276.613281 323.175781 274.480469 324.601562 C 272.347656 326.023438 270.179688 327.398438 267.980469 328.714844 C 265.777344 330.035156 263.546875 331.300781 261.285156 332.507812 C 259.023438 333.71875 256.730469 334.871094 254.410156 335.96875 C 252.09375 337.066406 249.746094 338.105469 247.378906 339.085938 C 245.007812 340.070312 242.613281 340.992188 240.199219 341.855469 C 237.78125 342.71875 235.347656 343.523438 232.890625 344.269531 C 230.4375 345.015625 227.964844 345.699219 225.476562 346.320312 C 222.988281 346.945312 220.484375 347.507812 217.96875 348.007812 C 215.453125 348.507812 212.925781 348.945312 210.386719 349.324219 C 207.847656 349.699219 205.304688 350.015625 202.75 350.265625 C 200.195312 350.515625 197.640625 350.707031 195.074219 350.832031 C 192.511719 350.957031 189.949219 351.019531 187.382812 351.019531 C 184.816406 351.019531 182.253906 350.957031 179.691406 350.832031 C 177.128906 350.707031 174.570312 350.515625 172.019531 350.265625 C 169.464844 350.015625 166.917969 349.699219 164.378906 349.324219 C 161.84375 348.945312 159.316406 348.507812 156.800781 348.007812 C 154.28125 347.507812 151.78125 346.945312 149.292969 346.320312 C 146.804688 345.699219 144.332031 345.015625 141.875 344.269531 C 139.421875 343.523438 136.984375 342.71875 134.570312 341.855469 C 132.152344 340.992188 129.761719 340.070312 127.390625 339.085938 C 125.019531 338.105469 122.675781 337.066406 120.355469 335.96875 C 118.035156 334.871094 115.746094 333.71875 113.484375 332.507812 C 111.21875 331.300781 108.988281 330.035156 106.789062 328.714844 C 104.585938 327.398438 102.421875 326.023438 100.285156 324.601562 C 98.152344 323.175781 96.054688 321.699219 93.996094 320.167969 C 91.933594 318.640625 89.914062 317.0625 87.929688 315.433594 C 85.945312 313.808594 84.003906 312.132812 82.101562 310.410156 C 80.203125 308.6875 78.34375 306.917969 76.53125 305.101562 C 74.714844 303.289062 72.949219 301.433594 71.222656 299.53125 C 69.5 297.628906 67.824219 295.6875 66.199219 293.703125 C 64.570312 291.722656 62.992188 289.699219 61.464844 287.636719 C 59.9375 285.578125 58.460938 283.480469 57.035156 281.347656 C 55.609375 279.214844 54.234375 277.046875 52.917969 274.847656 C 51.597656 272.644531 50.332031 270.414062 49.125 268.152344 C 47.914062 265.886719 46.761719 263.597656 45.664062 261.277344 C 44.566406 258.957031 43.527344 256.613281 42.546875 254.242188 C 41.566406 251.875 40.640625 249.480469 39.777344 247.0625 C 38.914062 244.648438 38.109375 242.214844 37.363281 239.757812 C 36.617188 237.304688 35.933594 234.832031 35.3125 232.34375 C 34.6875 229.851562 34.125 227.351562 33.625 224.835938 C 33.125 222.316406 32.6875 219.789062 32.308594 217.253906 C 31.933594 214.714844 31.621094 212.167969 31.367188 209.617188 C 31.117188 207.0625 30.929688 204.503906 30.800781 201.941406 C 30.675781 199.378906 30.613281 196.816406 30.613281 194.25 C 30.613281 191.683594 30.675781 189.121094 30.800781 186.558594 C 30.929688 183.996094 31.117188 181.4375 31.367188 178.882812 C 31.621094 176.332031 31.933594 173.785156 32.308594 171.246094 C 32.6875 168.710938 33.125 166.183594 33.625 163.664062 C 34.125 161.148438 34.6875 158.648438 35.3125 156.15625 C 35.933594 153.667969 36.617188 151.195312 37.363281 148.742188 C 38.109375 146.285156 38.914062 143.851562 39.777344 141.4375 C 40.640625 139.019531 41.566406 136.625 42.546875 134.257812 C 43.527344 131.886719 44.566406 129.542969 45.664062 127.222656 C 46.761719 124.902344 47.914062 122.613281 49.125 120.347656 C 50.332031 118.085938 51.597656 115.855469 52.917969 113.652344 C 54.234375 111.453125 55.609375 109.285156 57.035156 107.152344 C 58.460938 105.019531 59.9375 102.921875 61.464844 100.863281 C 62.992188 98.800781 64.570312 96.777344 66.199219 94.796875 C 67.824219 92.8125 69.5 90.871094 71.222656 88.96875 C 72.949219 87.066406 74.714844 85.210938 76.53125 83.394531 C 78.34375 81.582031 80.203125 79.8125 82.101562 78.089844 C 84.003906 76.367188 85.945312 74.691406 87.929688 73.066406 C 89.914062 71.4375 91.933594 69.859375 93.996094 68.332031 C 96.054688 66.800781 98.152344 65.324219 100.285156 63.898438 C 102.421875 62.476562 104.585938 61.101562 106.789062 59.785156 C 108.988281 58.464844 111.21875 57.199219 113.484375 55.992188 C 115.746094 54.78125 118.035156 53.628906 120.355469 52.53125 C 122.675781 51.433594 125.019531 50.394531 127.390625 49.414062 C 129.761719 48.429688 132.152344 47.507812 134.570312 46.644531 C 136.984375 45.777344 139.421875 44.976562 141.875 44.230469 C 144.332031 43.484375 146.804688 42.800781 149.292969 42.175781 C 151.78125 41.554688 154.28125 40.992188 156.800781 40.492188 C 159.316406 39.992188 161.84375 39.550781 164.378906 39.175781 C 166.917969 38.800781 169.464844 38.484375 172.019531 38.234375 C 174.570312 37.984375 177.128906 37.792969 179.691406 37.667969 C 182.253906 37.542969 184.816406 37.480469 187.382812 37.480469 C 189.949219 37.480469 192.511719 37.542969 195.074219 37.667969 C 197.640625 37.792969 200.195312 37.984375 202.75 38.234375 C 205.304688 38.484375 207.847656 38.800781 210.386719 39.175781 C 212.925781 39.550781 215.453125 39.992188 217.96875 40.492188 C 220.484375 40.992188 222.988281 41.554688 225.476562 42.175781 C 227.964844 42.800781 230.4375 43.484375 232.890625 44.230469 C 235.347656 44.976562 237.78125 45.777344 240.199219 46.644531 C 242.613281 47.507812 245.007812 48.429688 247.378906 49.414062 C 249.746094 50.394531 252.09375 51.433594 254.410156 52.53125 C 256.730469 53.628906 259.023438 54.78125 261.285156 55.992188 C 263.546875 57.199219 265.777344 58.464844 267.980469 59.785156 C 270.179688 61.101562 272.347656 62.476562 274.480469 63.898438 C 276.613281 65.324219 278.710938 66.800781 280.773438 68.332031 C 282.832031 69.859375 284.855469 71.4375 286.839844 73.066406 C 288.820312 74.691406 290.761719 76.367188 292.664062 78.089844 C 294.566406 79.8125 296.421875 81.582031 298.238281 83.394531 C 300.050781 85.210938 301.820312 87.066406 303.542969 88.96875 C 305.265625 90.871094 306.941406 92.8125 308.570312 94.796875 C 310.195312 96.777344 311.773438 98.800781 313.304688 100.863281 C 314.832031 102.921875 316.308594 105.019531 317.734375 107.152344 C 319.160156 109.285156 320.53125 111.453125 321.851562 113.652344 C 323.167969 115.855469 324.433594 118.085938 325.644531 120.347656 C 326.851562 122.613281 328.003906 124.902344 329.101562 127.222656 C 330.199219 129.542969 331.238281 131.886719 332.222656 134.257812 C 333.203125 136.625 334.125 139.019531 334.988281 141.433594 C 335.855469 143.851562 336.660156 146.285156 337.402344 148.742188 C 338.148438 151.195312 338.832031 153.667969 339.457031 156.15625 C 340.078125 158.648438 340.640625 161.148438 341.140625 163.664062 C 341.640625 166.183594 342.082031 168.710938 342.457031 171.246094 C 342.832031 173.785156 343.148438 176.332031 343.398438 178.882812 C 343.652344 181.4375 343.839844 183.996094 343.964844 186.558594 C 344.089844 189.121094 344.15625 191.683594 344.15625 194.25 Z M 344.15625 194.25 " fill-opacity="1" fill-rule="nonzero"/></g><path fill="#edb06d" d="M 296.011719 140.972656 L 271.902344 101.882812 C 271.902344 101.882812 231.421875 86.878906 190.011719 86.878906 C 148.601562 86.878906 118.109375 101.882812 118.109375 101.882812 C 118.109375 101.882812 104.308594 109.277344 96.546875 113.917969 C 88.796875 118.558594 79.675781 148.386719 79.675781 148.386719 C 79.675781 148.386719 72.25 203.53125 95.542969 230.863281 C 102.472656 251.894531 114.199219 301.625 195.796875 301.625 C 268.910156 301.625 283.753906 248.132812 293.511719 227.09375 C 318.28125 198.578125 296.011719 140.972656 296.011719 140.972656 Z M 296.011719 140.972656 " fill-opacity="1" fill-rule="nonzero"/><path fill="#f8d29e" d="M 116.992188 221.203125 C 104.066406 221.910156 94.453125 227.554688 95.542969 230.863281 C 102.472656 251.894531 114.199219 301.625 195.796875 301.625 C 268.910156 301.625 283.753906 248.132812 293.511719 227.089844 C 294.394531 225.195312 290.421875 222.492188 268.085938 222.640625 C 245.753906 222.789062 212.085938 238.085938 193.628906 238.085938 C 175.171875 238.085938 129.921875 220.496094 116.992188 221.203125 Z M 116.992188 221.203125 " fill-opacity="1" fill-rule="nonzero"/><path fill="#fdd8ac" d="M 148.171875 259.734375 C 148.171875 275.566406 170.808594 290.488281 193.59375 290.488281 C 216.382812 290.488281 238.921875 276.625 238.921875 260.796875 C 238.921875 244.964844 216.382812 217.90625 193.59375 217.90625 C 170.808594 217.90625 148.171875 243.90625 148.171875 259.734375 Z M 148.171875 259.734375 " fill-opacity="1" fill-rule="nonzero"/><path fill="#210a0a" d="M 161.609375 215.878906 C 161.609375 223.289062 155.589844 229.300781 148.179688 229.300781 C 140.757812 229.300781 134.742188 223.289062 134.742188 215.878906 C 134.742188 208.457031 140.757812 202.441406 148.179688 202.441406 C 155.589844 202.441406 161.609375 208.457031 161.609375 215.878906 Z M 161.609375 215.878906 " fill-opacity="1" fill-rule="nonzero"/><path fill="#000000" d="M 154.945312 215.878906 C 154.945312 219.609375 151.914062 222.640625 148.179688 222.640625 C 144.445312 222.640625 141.410156 219.609375 141.410156 215.878906 C 141.410156 212.132812 144.445312 209.105469 148.179688 209.105469 C 151.914062 209.105469 154.945312 212.132812 154.945312 215.878906 Z M 154.945312 215.878906 " fill-opacity="1" fill-rule="nonzero"/><path fill="#ffffff" d="M 158.386719 212.234375 C 158.386719 214.648438 156.425781 216.601562 154.011719 216.601562 C 151.597656 216.601562 149.632812 214.636719 149.640625 212.222656 C 149.640625 209.8125 151.605469 207.855469 154.015625 207.859375 C 156.433594 207.859375 158.386719 209.824219 158.386719 212.234375 Z M 158.386719 212.234375 " fill-opacity="1" fill-rule="nonzero"/><path fill="#ffffff" d="M 150.257812 216.601562 C 150.257812 217.757812 149.324219 218.6875 148.171875 218.6875 C 147.023438 218.6875 146.097656 217.75 146.097656 216.601562 C 146.097656 215.457031 147.023438 214.523438 148.179688 214.523438 C 149.328125 214.523438 150.257812 215.464844 150.257812 216.601562 Z M 150.257812 216.601562 " fill-opacity="1" fill-rule="nonzero"/><path fill="#210a0a" d="M 220.800781 215.878906 C 220.800781 223.289062 226.816406 229.300781 234.230469 229.300781 C 241.652344 229.300781 247.667969 223.289062 247.667969 215.878906 C 247.667969 208.457031 241.652344 202.441406 234.230469 202.441406 C 226.816406 202.441406 220.800781 208.457031 220.800781 215.878906 Z M 220.800781 215.878906 " fill-opacity="1" fill-rule="nonzero"/><path fill="#000000" d="M 227.464844 215.878906 C 227.464844 219.609375 230.492188 222.640625 234.230469 222.640625 C 237.96875 222.640625 241 219.609375 241 215.878906 C 241 212.132812 237.96875 209.105469 234.230469 209.105469 C 230.492188 209.105469 227.464844 212.132812 227.464844 215.878906 Z M 227.464844 215.878906 " fill-opacity="1" fill-rule="nonzero"/><path fill="#ffffff" d="M 224.023438 212.234375 C 224.023438 214.648438 225.984375 216.601562 228.394531 216.601562 C 230.820312 216.601562 232.773438 214.636719 232.769531 212.222656 C 232.769531 209.8125 230.808594 207.855469 228.394531 207.859375 C 225.980469 207.859375 224.023438 209.824219 224.023438 212.234375 Z M 224.023438 212.234375 " fill-opacity="1" fill-rule="nonzero"/><path fill="#ffffff" d="M 232.15625 216.601562 C 232.15625 217.757812 233.089844 218.6875 234.234375 218.6875 C 235.386719 218.6875 236.3125 217.75 236.3125 216.601562 C 236.3125 215.457031 235.386719 214.523438 234.230469 214.523438 C 233.089844 214.523438 232.15625 215.464844 232.15625 216.601562 Z M 232.15625 216.601562 " fill-opacity="1" fill-rule="nonzero"/><path fill="#000000" d="M 159.550781 267.085938 C 159.550781 267.085938 160.429688 267.542969 162.085938 268.109375 C 163.726562 268.6875 166.113281 269.410156 169.035156 269.871094 C 171.953125 270.347656 175.382812 270.636719 179.03125 270.515625 C 179.484375 270.5 179.941406 270.484375 180.40625 270.46875 C 180.863281 270.4375 181.324219 270.410156 181.785156 270.382812 C 182.609375 270.28125 183.46875 270.164062 184.289062 269.90625 C 185.933594 269.449219 187.386719 268.644531 188.410156 267.519531 C 189.433594 266.402344 190.121094 265.035156 190.542969 263.527344 C 190.765625 262.785156 190.894531 261.980469 190.976562 261.253906 C 191.019531 260.320312 191.0625 259.394531 191.101562 258.484375 C 191.292969 254.707031 191.542969 251.179688 191.882812 248.160156 C 192.488281 242.113281 193.367188 238.082031 193.367188 238.082031 C 193.398438 237.9375 193.539062 237.847656 193.683594 237.878906 C 193.785156 237.902344 193.863281 237.984375 193.882812 238.082031 C 193.882812 238.082031 194.765625 242.113281 195.367188 248.160156 C 195.707031 251.179688 195.960938 254.710938 196.148438 258.484375 C 196.175781 258.957031 196.199219 259.433594 196.226562 259.914062 L 196.246094 260.636719 L 196.261719 260.988281 L 196.265625 261.472656 C 196.253906 262.6875 196.070312 263.84375 195.742188 265.003906 C 195.089844 267.304688 193.734375 269.59375 191.757812 271.183594 C 189.800781 272.796875 187.453125 273.710938 185.230469 274.09375 C 184.121094 274.300781 183.015625 274.367188 181.898438 274.402344 C 181.382812 274.386719 180.996094 274.414062 180.382812 274.367188 C 179.886719 274.328125 179.394531 274.289062 178.902344 274.25 C 176.949219 274.09375 175.078125 273.777344 173.328125 273.410156 C 171.582031 273.019531 169.945312 272.601562 168.480469 272.078125 C 165.53125 271.085938 163.207031 269.949219 161.644531 269.066406 C 160.089844 268.171875 159.273438 267.523438 159.273438 267.523438 C 159.15625 267.4375 159.132812 267.273438 159.222656 267.160156 C 159.300781 267.058594 159.441406 267.03125 159.550781 267.085938 Z M 159.550781 267.085938 " fill-opacity="1" fill-rule="nonzero"/><path fill="#000000" d="M 227.949219 267.527344 C 227.949219 267.527344 227.132812 268.171875 225.578125 269.070312 C 224.015625 269.953125 221.691406 271.089844 218.742188 272.078125 C 217.273438 272.605469 215.640625 273.019531 213.894531 273.414062 C 212.144531 273.777344 210.273438 274.097656 208.320312 274.253906 C 207.828125 274.289062 207.335938 274.332031 206.839844 274.371094 C 206.226562 274.414062 205.839844 274.394531 205.324219 274.40625 C 204.207031 274.371094 203.101562 274.304688 201.992188 274.097656 C 199.769531 273.714844 197.421875 272.800781 195.464844 271.183594 C 193.488281 269.597656 192.132812 267.308594 191.480469 265.007812 C 191.152344 263.84375 190.96875 262.691406 190.957031 261.476562 L 190.960938 260.992188 L 190.976562 260.640625 L 190.996094 259.917969 C 191.023438 259.4375 191.046875 258.960938 191.074219 258.488281 C 191.261719 254.710938 191.515625 251.183594 191.855469 248.164062 C 192.460938 242.117188 193.335938 238.085938 193.335938 238.085938 C 193.371094 237.941406 193.511719 237.851562 193.652344 237.882812 C 193.757812 237.90625 193.832031 237.988281 193.855469 238.085938 C 193.855469 238.085938 194.734375 242.117188 195.339844 248.164062 C 195.679688 251.183594 195.929688 254.710938 196.121094 258.488281 C 196.160156 259.398438 196.203125 260.320312 196.246094 261.257812 C 196.332031 261.984375 196.457031 262.785156 196.679688 263.53125 C 197.101562 265.035156 197.789062 266.40625 198.816406 267.523438 C 199.835938 268.644531 201.289062 269.453125 202.933594 269.910156 C 203.753906 270.167969 204.613281 270.28125 205.433594 270.382812 C 205.898438 270.414062 206.359375 270.441406 206.816406 270.472656 C 207.277344 270.488281 207.738281 270.503906 208.191406 270.519531 C 211.84375 270.636719 215.269531 270.351562 218.183594 269.871094 C 221.113281 269.410156 223.496094 268.6875 225.136719 268.113281 C 226.792969 267.542969 227.671875 267.089844 227.671875 267.089844 C 227.800781 267.023438 227.957031 267.070312 228.023438 267.199219 C 228.082031 267.3125 228.046875 267.449219 227.949219 267.527344 Z M 227.949219 267.527344 " fill-opacity="1" fill-rule="nonzero"/><path fill="#edb06d" d="M 297.105469 153.734375 C 308.449219 141.011719 307.277344 112.816406 298.40625 101.253906 C 289.476562 89.617188 244.851562 84.472656 243.375 106.78125 C 242.273438 123.332031 284.273438 168.128906 297.105469 153.734375 Z M 297.105469 153.734375 " fill-opacity="1" fill-rule="nonzero"/><path fill="#eaccc9" d="M 291.46875 137.804688 C 297.453125 131.960938 294.929688 118.6875 287.070312 111 C 281.289062 105.359375 272.617188 102.726562 262.320312 108.28125 C 255.910156 111.742188 258.167969 119.277344 258.167969 119.277344 C 258.167969 119.277344 287.90625 141.273438 291.46875 137.804688 Z M 291.46875 137.804688 " fill-opacity="1" fill-rule="nonzero"/><path fill="#eaccc9" d="M 281.949219 134.925781 C 287.269531 119.632812 275.890625 113.851562 267.238281 115.308594 C 263.070312 116.007812 259.941406 121.300781 259.941406 121.300781 Z M 281.949219 134.925781 " fill-opacity="1" fill-rule="nonzero"/><path fill="#edb06d" d="M 77.664062 153.734375 C 66.324219 141.011719 67.492188 112.816406 76.367188 101.253906 C 85.289062 89.617188 129.921875 84.472656 131.394531 106.78125 C 132.496094 123.332031 90.496094 168.128906 77.664062 153.734375 Z M 77.664062 153.734375 " fill-opacity="1" fill-rule="nonzero"/><path fill="#eaccc9" d="M 83.304688 137.804688 C 77.320312 131.960938 79.839844 118.6875 87.707031 111 C 93.488281 105.359375 102.152344 102.726562 112.453125 108.28125 C 118.863281 111.742188 116.605469 119.277344 116.605469 119.277344 C 116.605469 119.277344 86.863281 141.273438 83.304688 137.804688 Z M 83.304688 137.804688 " fill-opacity="1" fill-rule="nonzero"/><path fill="#eaccc9" d="M 92.820312 134.925781 C 87.5 119.632812 98.882812 113.851562 107.535156 115.308594 C 111.699219 116.007812 114.828125 121.300781 114.828125 121.300781 Z M 92.820312 134.925781 " fill-opacity="1" fill-rule="nonzero"/><path fill="#210a0a" d="M 211.488281 233.492188 C 211.488281 242.402344 201.066406 251.894531 194.238281 251.894531 C 187.417969 251.894531 175.730469 242.414062 175.730469 234.324219 C 175.730469 225.546875 181.71875 222.019531 194.238281 222.019531 C 206.75 222.019531 211.488281 228.164062 211.488281 233.492188 Z M 211.488281 233.492188 " fill-opacity="1" fill-rule="nonzero"/></svg>