<svg xmlns="http://www.w3.org/2000/svg" xmlns:xlink="http://www.w3.org/1999/xlink" width="500" zoomAndPan="magnify" viewBox="0 0 375 374.999991" height="500" preserveAspectRatio="xMidYMid meet" version="1.0"><defs><clipPath id="04a2d79888"><path d="M 33.246094 33.246094 L 341.496094 33.246094 L 341.496094 341.496094 L 33.246094 341.496094 Z M 33.246094 33.246094 " clip-rule="nonzero"/></clipPath></defs><rect x="-37.5" width="450" fill="#ffffff" y="-37.499999" height="449.999989" fill-opacity="1"/><rect x="-37.5" width="450" fill="#ffffff" y="-37.499999" height="449.999989" fill-opacity="1"/><g clip-path="url(#04a2d79888)"><path fill="#638f92" d="M 341.515625 187.371094 C 341.515625 189.894531 341.453125 192.414062 341.328125 194.933594 C 341.207031 197.453125 341.019531 199.96875 340.773438 202.480469 C 340.527344 204.988281 340.21875 207.492188 339.847656 209.988281 C 339.476562 212.484375 339.046875 214.96875 338.554688 217.441406 C 338.0625 219.917969 337.507812 222.378906 336.894531 224.824219 C 336.28125 227.273438 335.609375 229.703125 334.878906 232.117188 C 334.144531 234.53125 333.355469 236.925781 332.503906 239.300781 C 331.65625 241.675781 330.746094 244.027344 329.78125 246.359375 C 328.816406 248.691406 327.792969 250.996094 326.714844 253.277344 C 325.636719 255.554688 324.503906 257.808594 323.3125 260.035156 C 322.125 262.257812 320.882812 264.453125 319.585938 266.617188 C 318.289062 268.78125 316.9375 270.910156 315.539062 273.007812 C 314.136719 275.105469 312.683594 277.167969 311.179688 279.195312 C 309.679688 281.222656 308.125 283.207031 306.527344 285.160156 C 304.925781 287.109375 303.277344 289.019531 301.585938 290.886719 C 299.890625 292.757812 298.152344 294.582031 296.367188 296.367188 C 294.582031 298.152344 292.757812 299.890625 290.886719 301.585938 C 289.019531 303.277344 287.109375 304.925781 285.160156 306.527344 C 283.207031 308.125 281.222656 309.679688 279.195312 311.179688 C 277.167969 312.683594 275.105469 314.136719 273.007812 315.539062 C 270.910156 316.9375 268.78125 318.289062 266.617188 319.585938 C 264.453125 320.882812 262.257812 322.125 260.035156 323.3125 C 257.808594 324.503906 255.554688 325.636719 253.277344 326.714844 C 250.996094 327.792969 248.691406 328.816406 246.359375 329.78125 C 244.027344 330.746094 241.675781 331.65625 239.300781 332.503906 C 236.925781 333.355469 234.53125 334.144531 232.117188 334.878906 C 229.703125 335.609375 227.273438 336.28125 224.824219 336.894531 C 222.378906 337.507812 219.917969 338.0625 217.441406 338.554688 C 214.96875 339.046875 212.484375 339.476562 209.988281 339.847656 C 207.492188 340.21875 204.988281 340.527344 202.480469 340.773438 C 199.96875 341.019531 197.453125 341.207031 194.933594 341.328125 C 192.414062 341.453125 189.894531 341.515625 187.371094 341.515625 C 184.847656 341.515625 182.328125 341.453125 179.808594 341.328125 C 177.289062 341.207031 174.773438 341.019531 172.261719 340.773438 C 169.75 340.527344 167.246094 340.21875 164.753906 339.847656 C 162.257812 339.476562 159.773438 339.046875 157.296875 338.554688 C 154.824219 338.0625 152.363281 337.507812 149.917969 336.894531 C 147.46875 336.28125 145.039062 335.609375 142.625 334.878906 C 140.210938 334.144531 137.816406 333.355469 135.441406 332.503906 C 133.066406 331.65625 130.710938 330.746094 128.382812 329.78125 C 126.050781 328.816406 123.746094 327.792969 121.464844 326.714844 C 119.183594 325.636719 116.929688 324.503906 114.707031 323.3125 C 112.480469 322.125 110.289062 320.882812 108.125 319.585938 C 105.960938 318.289062 103.828125 316.9375 101.730469 315.539062 C 99.632812 314.136719 97.574219 312.683594 95.546875 311.179688 C 93.519531 309.679688 91.53125 308.125 89.582031 306.527344 C 87.632812 304.925781 85.722656 303.277344 83.851562 301.585938 C 81.984375 299.890625 80.15625 298.152344 78.375 296.367188 C 76.589844 294.582031 74.851562 292.757812 73.15625 290.886719 C 71.460938 289.019531 69.816406 287.109375 68.214844 285.160156 C 66.613281 283.207031 65.0625 281.222656 63.558594 279.195312 C 62.058594 277.167969 60.605469 275.105469 59.203125 273.007812 C 57.800781 270.910156 56.453125 268.78125 55.15625 266.617188 C 53.859375 264.453125 52.617188 262.257812 51.425781 260.035156 C 50.238281 257.808594 49.101562 255.554688 48.023438 253.277344 C 46.945312 250.996094 45.925781 248.691406 44.957031 246.359375 C 43.992188 244.027344 43.085938 241.675781 42.234375 239.300781 C 41.386719 236.925781 40.59375 234.53125 39.863281 232.117188 C 39.128906 229.703125 38.457031 227.273438 37.84375 224.824219 C 37.230469 222.378906 36.679688 219.917969 36.1875 217.441406 C 35.695312 214.96875 35.261719 212.484375 34.894531 209.988281 C 34.523438 207.492188 34.214844 204.988281 33.96875 202.480469 C 33.71875 199.96875 33.535156 197.453125 33.410156 194.933594 C 33.285156 192.414062 33.226562 189.894531 33.226562 187.371094 C 33.226562 184.847656 33.285156 182.328125 33.410156 179.808594 C 33.535156 177.285156 33.71875 174.773438 33.96875 172.261719 C 34.214844 169.75 34.523438 167.246094 34.894531 164.753906 C 35.261719 162.257812 35.695312 159.773438 36.1875 157.296875 C 36.679688 154.824219 37.230469 152.363281 37.84375 149.917969 C 38.457031 147.46875 39.128906 145.039062 39.863281 142.625 C 40.59375 140.210938 41.386719 137.816406 42.234375 135.441406 C 43.085938 133.066406 43.992188 130.710938 44.957031 128.382812 C 45.925781 126.050781 46.945312 123.746094 48.023438 121.464844 C 49.101562 119.183594 50.238281 116.929688 51.425781 114.707031 C 52.617188 112.480469 53.859375 110.289062 55.15625 108.125 C 56.453125 105.960938 57.800781 103.828125 59.203125 101.730469 C 60.605469 99.632812 62.058594 97.574219 63.558594 95.546875 C 65.0625 93.519531 66.613281 91.53125 68.214844 89.582031 C 69.816406 87.632812 71.460938 85.722656 73.15625 83.851562 C 74.851562 81.984375 76.589844 80.15625 78.375 78.375 C 80.15625 76.589844 81.984375 74.851562 83.851562 73.15625 C 85.722656 71.460938 87.632812 69.816406 89.582031 68.214844 C 91.53125 66.613281 93.519531 65.0625 95.546875 63.558594 C 97.574219 62.058594 99.632812 60.605469 101.730469 59.203125 C 103.828125 57.800781 105.960938 56.453125 108.125 55.15625 C 110.289062 53.859375 112.480469 52.617188 114.707031 51.425781 C 116.929688 50.238281 119.183594 49.101562 121.464844 48.023438 C 123.746094 46.945312 126.050781 45.925781 128.382812 44.957031 C 130.710938 43.992188 133.066406 43.085938 135.441406 42.234375 C 137.816406 41.386719 140.210938 40.59375 142.625 39.863281 C 145.039062 39.128906 147.46875 38.457031 149.917969 37.84375 C 152.363281 37.230469 154.824219 36.679688 157.296875 36.1875 C 159.773438 35.695312 162.257812 35.261719 164.753906 34.894531 C 167.246094 34.523438 169.75 34.214844 172.261719 33.96875 C 174.773438 33.71875 177.285156 33.535156 179.808594 33.410156 C 182.328125 33.285156 184.847656 33.226562 187.371094 33.226562 C 189.894531 33.226562 192.414062 33.285156 194.933594 33.410156 C 197.453125 33.535156 199.96875 33.71875 202.480469 33.96875 C 204.988281 34.214844 207.492188 34.523438 209.988281 34.894531 C 212.484375 35.261719 214.96875 35.695312 217.441406 36.1875 C 219.917969 36.679688 222.378906 37.230469 224.824219 37.84375 C 227.273438 38.457031 229.703125 39.128906 232.117188 39.863281 C 234.53125 40.59375 236.925781 41.386719 239.300781 42.234375 C 241.675781 43.085938 244.027344 43.992188 246.359375 44.957031 C 248.691406 45.925781 250.996094 46.945312 253.277344 48.023438 C 255.554688 49.101562 257.808594 50.238281 260.035156 51.425781 C 262.257812 52.617188 264.453125 53.859375 266.617188 55.15625 C 268.78125 56.453125 270.910156 57.800781 273.007812 59.203125 C 275.105469 60.605469 277.167969 62.058594 279.195312 63.558594 C 281.222656 65.0625 283.207031 66.613281 285.160156 68.214844 C 287.109375 69.816406 289.019531 71.460938 290.886719 73.15625 C 292.757812 74.851562 294.582031 76.589844 296.367188 78.375 C 298.152344 80.15625 299.890625 81.984375 301.585938 83.851562 C 303.277344 85.722656 304.925781 87.632812 306.527344 89.582031 C 308.125 91.53125 309.679688 93.519531 311.179688 95.546875 C 312.683594 97.574219 314.136719 99.632812 315.539062 101.730469 C 316.9375 103.828125 318.289062 105.960938 319.585938 108.125 C 320.882812 110.289062 322.125 112.480469 323.3125 114.707031 C 324.503906 116.929688 325.636719 119.183594 326.714844 121.464844 C 327.792969 123.746094 328.816406 126.050781 329.78125 128.382812 C 330.746094 130.710938 331.65625 133.066406 332.503906 135.441406 C 333.355469 137.816406 334.144531 140.210938 334.878906 142.625 C 335.609375 145.039062 336.28125 147.46875 336.894531 149.917969 C 337.507812 152.363281 338.0625 154.824219 338.554688 157.296875 C 339.046875 159.773438 339.476562 162.257812 339.847656 164.753906 C 340.21875 167.246094 340.527344 169.75 340.773438 172.261719 C 341.019531 174.773438 341.207031 177.285156 341.328125 179.808594 C 341.453125 182.328125 341.515625 184.847656 341.515625 187.371094 Z M 341.515625 187.371094 " fill-opacity="1" fill-rule="nonzero"/></g><path fill="#b28060" d="M 273.773438 155.585938 L 250.433594 145.191406 C 250.433594 145.191406 228.484375 136.722656 192.8125 136.503906 L 192.8125 136.484375 C 192.613281 136.484375 192.417969 136.496094 192.214844 136.496094 C 192.015625 136.496094 191.820312 136.484375 191.613281 136.484375 L 191.613281 136.503906 C 155.945312 136.722656 132.675781 145.191406 132.675781 145.191406 L 102.355469 168.972656 C 102.355469 168.972656 100.226562 206.664062 120.925781 247.203125 C 133.164062 271.183594 136.371094 307.089844 193.582031 307.089844 C 250.800781 307.089844 250.433594 265.441406 264.386719 237.976562 C 276.699219 213.742188 273.773438 155.585938 273.773438 155.585938 Z M 273.773438 155.585938 " fill-opacity="1" fill-rule="nonzero"/><path fill="#f7daa2" d="M 134.757812 223.136719 C 143.246094 237.273438 159.429688 229.558594 159.429688 229.558594 C 159.429688 229.558594 174.464844 223.105469 170.804688 206.59375 C 168.527344 196.335938 159.03125 194.667969 146.601562 197.144531 C 134.085938 199.632812 129.140625 213.78125 134.757812 223.136719 Z M 134.757812 223.136719 " fill-opacity="1" fill-rule="nonzero"/><path fill="#f7daa2" d="M 235.085938 268.039062 C 237.214844 282.691406 222.394531 307.085938 193.585938 307.085938 C 166.625 307.085938 147.144531 283.269531 149.476562 268.367188 C 152.46875 249.253906 173.527344 248.511719 177.566406 228.144531 C 181.03125 210.6875 167.101562 188.082031 164.433594 164.40625 C 162.640625 148.472656 171.335938 137.535156 171.335938 137.535156 C 171.335938 137.535156 183.074219 135.578125 201.65625 136.734375 C 203.886719 136.871094 209.277344 150.609375 207.523438 166.148438 C 204.851562 189.792969 196.449219 209.300781 202.796875 225.746094 C 208.996094 241.832031 232.484375 250.160156 235.085938 268.039062 Z M 235.085938 268.039062 " fill-opacity="1" fill-rule="nonzero"/><path fill="#000000" d="M 209.335938 251.636719 C 209.335938 259.246094 199.347656 267.347656 192.804688 267.347656 C 186.265625 267.347656 175.070312 259.25 175.070312 252.355469 C 175.070312 244.867188 180.8125 241.855469 192.804688 241.855469 C 204.796875 241.855469 209.335938 247.09375 209.335938 251.636719 Z M 209.335938 251.636719 " fill-opacity="1" fill-rule="nonzero"/><path fill="#ef7d76" d="M 193.3125 296.511719 C 186.175781 296.511719 183.742188 289.8125 183.742188 286.496094 C 189.890625 288.339844 193.605469 282.441406 193.605469 282.441406 C 193.605469 282.441406 195.597656 286.382812 202.070312 286.496094 C 202.535156 289.566406 200.453125 296.511719 193.3125 296.511719 Z M 193.3125 296.511719 " fill-opacity="1" fill-rule="nonzero"/><path fill="#000000" d="M 173.09375 284.570312 C 173.953125 284.925781 174.808594 285.234375 175.65625 285.472656 C 176.519531 285.71875 177.378906 285.9375 178.246094 286.042969 C 179.976562 286.300781 181.710938 286.21875 183.332031 285.851562 C 184.960938 285.507812 186.46875 284.804688 187.832031 283.917969 C 188.511719 283.476562 189.152344 282.96875 189.738281 282.417969 C 190.035156 282.144531 190.316406 281.855469 190.582031 281.558594 C 190.820312 281.273438 191.113281 280.90625 191.230469 280.703125 L 190.769531 282.035156 C 190.660156 279.207031 190.421875 276.371094 190.332031 273.539062 C 190.230469 270.707031 190.292969 267.875 190.472656 265.046875 C 190.566406 263.628906 190.632812 262.210938 190.777344 260.796875 C 190.898438 259.382812 191.039062 257.964844 191.222656 256.550781 C 191.574219 253.71875 192 250.886719 192.679688 248.054688 C 192.710938 247.914062 192.855469 247.828125 192.996094 247.859375 C 193.09375 247.882812 193.164062 247.960938 193.1875 248.054688 C 193.867188 250.886719 194.292969 253.71875 194.644531 256.550781 C 194.828125 257.964844 194.96875 259.382812 195.089844 260.796875 C 195.238281 262.210938 195.300781 263.628906 195.394531 265.046875 C 195.574219 267.875 195.640625 270.707031 195.539062 273.539062 C 195.441406 276.371094 195.207031 279.207031 195.097656 282.035156 L 195.066406 282.90625 L 194.636719 283.371094 C 194.175781 283.875 193.828125 284.164062 193.410156 284.515625 C 193.007812 284.847656 192.605469 285.167969 192.183594 285.460938 C 191.347656 286.054688 190.460938 286.574219 189.539062 287.011719 C 187.699219 287.894531 185.679688 288.394531 183.671875 288.496094 C 181.664062 288.597656 179.679688 288.265625 177.863281 287.632812 C 176.945312 287.335938 176.082031 286.929688 175.238281 286.503906 C 174.390625 286.050781 173.609375 285.539062 172.863281 285.015625 C 172.742188 284.941406 172.710938 284.78125 172.789062 284.664062 C 172.851562 284.566406 172.988281 284.53125 173.09375 284.570312 Z M 173.09375 284.570312 " fill-opacity="1" fill-rule="nonzero"/><path fill="#000000" d="M 212.777344 285.015625 C 212.058594 285.566406 211.304688 286.117188 210.472656 286.589844 C 209.652344 287.054688 208.785156 287.457031 207.878906 287.78125 C 206.066406 288.425781 204.070312 288.75 202.066406 288.601562 C 200.066406 288.445312 198.074219 287.90625 196.269531 287 C 195.367188 286.550781 194.5 286.027344 193.675781 285.441406 C 193.261719 285.148438 192.863281 284.835938 192.46875 284.507812 C 192.058594 284.164062 191.710938 283.878906 191.257812 283.402344 L 190.808594 282.925781 L 190.773438 282.039062 C 190.664062 279.207031 190.429688 276.371094 190.335938 273.542969 C 190.234375 270.710938 190.300781 267.878906 190.476562 265.046875 C 190.574219 263.628906 190.636719 262.214844 190.785156 260.796875 C 190.90625 259.382812 191.042969 257.96875 191.226562 256.550781 C 191.582031 253.71875 192.003906 250.886719 192.683594 248.054688 C 192.714844 247.914062 192.859375 247.828125 193 247.863281 C 193.097656 247.886719 193.171875 247.960938 193.195312 248.054688 C 193.871094 250.886719 194.296875 253.71875 194.648438 256.550781 C 194.832031 257.96875 194.972656 259.382812 195.09375 260.796875 C 195.242188 262.214844 195.304688 263.628906 195.398438 265.046875 C 195.578125 267.878906 195.644531 270.710938 195.542969 273.542969 C 195.449219 276.371094 195.210938 279.207031 195.101562 282.039062 L 194.617188 280.671875 C 194.75 280.890625 195.042969 281.257812 195.289062 281.542969 C 195.554688 281.839844 195.839844 282.128906 196.132812 282.40625 C 196.726562 282.960938 197.363281 283.476562 198.035156 283.9375 C 199.382812 284.847656 200.863281 285.578125 202.464844 285.964844 C 204.058594 286.363281 205.765625 286.457031 207.476562 286.195312 C 208.332031 286.0625 209.183594 285.851562 210.023438 285.570312 C 210.859375 285.3125 211.6875 284.96875 212.527344 284.578125 C 212.65625 284.519531 212.808594 284.574219 212.867188 284.703125 C 212.914062 284.8125 212.871094 284.945312 212.777344 285.015625 Z M 212.777344 285.015625 " fill-opacity="1" fill-rule="nonzero"/><path fill="#e56c66" d="M 194.941406 289.683594 C 194.941406 289.902344 194.898438 290.113281 194.8125 290.316406 C 194.730469 290.515625 194.609375 290.695312 194.457031 290.851562 C 194.300781 291.007812 194.121094 291.125 193.921875 291.210938 C 193.71875 291.292969 193.507812 291.335938 193.289062 291.335938 C 193.070312 291.335938 192.859375 291.292969 192.65625 291.210938 C 192.453125 291.125 192.273438 291.007812 192.121094 290.851562 C 191.964844 290.695312 191.847656 290.515625 191.761719 290.316406 C 191.679688 290.113281 191.636719 289.902344 191.636719 289.683594 C 191.636719 289.464844 191.679688 289.253906 191.761719 289.050781 C 191.847656 288.847656 191.964844 288.671875 192.121094 288.515625 C 192.273438 288.359375 192.453125 288.242188 192.65625 288.15625 C 192.859375 288.074219 193.070312 288.03125 193.289062 288.03125 C 193.507812 288.03125 193.71875 288.074219 193.921875 288.15625 C 194.121094 288.242188 194.300781 288.359375 194.457031 288.515625 C 194.609375 288.671875 194.730469 288.847656 194.8125 289.050781 C 194.898438 289.253906 194.941406 289.464844 194.941406 289.683594 Z M 194.941406 289.683594 " fill-opacity="1" fill-rule="nonzero"/><path fill="#e56c66" d="M 197.394531 292.234375 C 197.394531 292.484375 197.304688 292.695312 197.128906 292.871094 C 196.953125 293.046875 196.742188 293.132812 196.496094 293.132812 C 196.246094 293.132812 196.035156 293.046875 195.859375 292.871094 C 195.683594 292.695312 195.597656 292.484375 195.597656 292.234375 C 195.597656 291.988281 195.683594 291.777344 195.859375 291.601562 C 196.035156 291.425781 196.246094 291.335938 196.496094 291.335938 C 196.742188 291.335938 196.953125 291.425781 197.128906 291.601562 C 197.304688 291.777344 197.394531 291.988281 197.394531 292.234375 Z M 197.394531 292.234375 " fill-opacity="1" fill-rule="nonzero"/><path fill="#e56c66" d="M 197.152344 289.503906 C 197.152344 289.816406 196.890625 290.078125 196.574219 290.078125 C 196.261719 290.078125 196.003906 289.816406 196.003906 289.503906 C 196.003906 289.183594 196.261719 288.929688 196.574219 288.929688 C 196.894531 288.929688 197.152344 289.183594 197.152344 289.503906 Z M 197.152344 289.503906 " fill-opacity="1" fill-rule="nonzero"/><path fill="#e56c66" d="M 198.578125 291.035156 C 198.578125 291.117188 198.546875 291.191406 198.488281 291.25 C 198.429688 291.3125 198.355469 291.339844 198.269531 291.339844 C 198.1875 291.339844 198.113281 291.3125 198.054688 291.25 C 197.992188 291.191406 197.964844 291.117188 197.964844 291.035156 C 197.964844 290.949219 197.992188 290.875 198.054688 290.816406 C 198.113281 290.753906 198.1875 290.726562 198.269531 290.726562 C 198.355469 290.726562 198.429688 290.753906 198.488281 290.816406 C 198.546875 290.875 198.578125 290.949219 198.578125 291.035156 Z M 198.578125 291.035156 " fill-opacity="1" fill-rule="nonzero"/><path fill="#e56c66" d="M 191.945312 293.132812 C 191.945312 293.304688 191.804688 293.4375 191.636719 293.4375 C 191.464844 293.4375 191.324219 293.304688 191.324219 293.132812 C 191.324219 292.964844 191.464844 292.828125 191.636719 292.828125 C 191.804688 292.828125 191.945312 292.964844 191.945312 293.132812 Z M 191.945312 293.132812 " fill-opacity="1" fill-rule="nonzero"/><path fill="#e56c66" d="M 195.757812 294.71875 C 195.757812 294.964844 195.667969 295.175781 195.496094 295.351562 C 195.320312 295.527344 195.109375 295.613281 194.859375 295.613281 C 194.613281 295.613281 194.402344 295.527344 194.226562 295.351562 C 194.050781 295.175781 193.964844 294.964844 193.964844 294.71875 C 193.964844 294.472656 194.050781 294.257812 194.226562 294.085938 C 194.402344 293.910156 194.613281 293.820312 194.859375 293.820312 C 195.109375 293.820312 195.320312 293.910156 195.496094 294.085938 C 195.667969 294.257812 195.757812 294.472656 195.757812 294.71875 Z M 195.757812 294.71875 " fill-opacity="1" fill-rule="nonzero"/><path fill="#271504" d="M 167.71875 218.851562 C 167.71875 226.410156 161.585938 232.53125 154.03125 232.53125 C 146.476562 232.53125 140.359375 226.414062 140.359375 218.851562 C 140.359375 211.300781 146.476562 205.175781 154.03125 205.175781 C 161.585938 205.175781 167.71875 211.300781 167.71875 218.851562 Z M 167.71875 218.851562 " fill-opacity="1" fill-rule="nonzero"/><path fill="#000000" d="M 160.933594 218.851562 C 160.933594 222.660156 157.839844 225.746094 154.03125 225.746094 C 150.226562 225.746094 147.144531 222.660156 147.144531 218.851562 C 147.144531 215.042969 150.222656 211.960938 154.03125 211.960938 C 157.84375 211.960938 160.933594 215.042969 160.933594 218.851562 Z M 160.933594 218.851562 " fill-opacity="1" fill-rule="nonzero"/><path fill="#ffffff" d="M 164.433594 215.152344 C 164.433594 217.609375 162.4375 219.597656 159.972656 219.597656 C 157.511719 219.59375 155.523438 217.597656 155.53125 215.140625 C 155.53125 212.679688 157.523438 210.6875 159.988281 210.6875 C 162.449219 210.695312 164.433594 212.6875 164.433594 215.152344 Z M 164.433594 215.152344 " fill-opacity="1" fill-rule="nonzero"/><path fill="#ffffff" d="M 156.148438 219.597656 C 156.148438 219.878906 156.09375 220.148438 155.988281 220.40625 C 155.878906 220.664062 155.726562 220.894531 155.527344 221.09375 C 155.328125 221.289062 155.101562 221.441406 154.84375 221.550781 C 154.582031 221.65625 154.3125 221.710938 154.03125 221.710938 C 153.753906 221.710938 153.484375 221.65625 153.222656 221.550781 C 152.964844 221.441406 152.734375 221.289062 152.539062 221.09375 C 152.339844 220.894531 152.1875 220.664062 152.078125 220.40625 C 151.972656 220.148438 151.917969 219.878906 151.917969 219.597656 C 151.917969 219.316406 151.972656 219.046875 152.078125 218.789062 C 152.1875 218.527344 152.339844 218.300781 152.539062 218.101562 C 152.734375 217.902344 152.964844 217.75 153.222656 217.644531 C 153.484375 217.535156 153.753906 217.480469 154.03125 217.480469 C 154.3125 217.480469 154.582031 217.535156 154.84375 217.644531 C 155.101562 217.75 155.328125 217.902344 155.527344 218.101562 C 155.726562 218.300781 155.878906 218.527344 155.988281 218.789062 C 156.09375 219.046875 156.148438 219.316406 156.148438 219.597656 Z M 156.148438 219.597656 " fill-opacity="1" fill-rule="nonzero"/><path fill="#c4bbb3" d="M 206.121094 268.5625 C 204.710938 268.5625 204.179688 270.503906 205.402344 271.214844 C 205.285156 271.097656 205.175781 270.980469 205.054688 270.859375 C 205.578125 271.652344 206.664062 271.652344 207.183594 270.859375 C 207.070312 270.976562 206.953125 271.097656 206.839844 271.214844 C 208.0625 270.503906 207.53125 268.5625 206.121094 268.5625 Z M 206.121094 268.5625 " fill-opacity="1" fill-rule="nonzero"/><path fill="#c4bbb3" d="M 207.523438 274.574219 C 204.527344 274.574219 204.527344 279.21875 207.523438 279.21875 C 210.519531 279.21875 210.519531 274.574219 207.523438 274.574219 Z M 207.523438 274.574219 " fill-opacity="1" fill-rule="nonzero"/><path fill="#c4bbb3" d="M 216.492188 277.074219 C 214.816406 277.074219 214.816406 279.6875 216.492188 279.6875 C 218.175781 279.6875 218.175781 277.074219 216.492188 277.074219 Z M 216.492188 277.074219 " fill-opacity="1" fill-rule="nonzero"/><path fill="#c4bbb3" d="M 213.546875 271.058594 C 211.554688 271.058594 211.554688 274.140625 213.546875 274.140625 C 215.535156 274.140625 215.535156 271.058594 213.546875 271.058594 Z M 213.546875 271.058594 " fill-opacity="1" fill-rule="nonzero"/><path fill="#c4bbb3" d="M 212.050781 266.300781 C 211.257812 266.300781 211.257812 267.535156 212.050781 267.535156 C 212.855469 267.535156 212.855469 266.300781 212.050781 266.300781 Z M 212.050781 266.300781 " fill-opacity="1" fill-rule="nonzero"/><path fill="#c4bbb3" d="M 210.894531 282.039062 C 210.09375 282.039062 210.09375 283.269531 210.894531 283.269531 C 211.6875 283.269531 211.6875 282.039062 210.894531 282.039062 Z M 210.894531 282.039062 " fill-opacity="1" fill-rule="nonzero"/><path fill="#c4bbb3" d="M 222.992188 272.742188 C 221.429688 272.742188 221.429688 275.164062 222.992188 275.164062 C 224.558594 275.160156 224.558594 272.742188 222.992188 272.742188 Z M 222.992188 272.742188 " fill-opacity="1" fill-rule="nonzero"/><path fill="#c4bbb3" d="M 180.203125 268.367188 C 181.578125 268.367188 182.097656 270.257812 180.902344 270.945312 C 181.015625 270.832031 181.128906 270.71875 181.242188 270.601562 C 180.734375 271.371094 179.679688 271.371094 179.171875 270.601562 C 179.277344 270.714844 179.390625 270.832031 179.507812 270.945312 C 178.3125 270.257812 178.832031 268.367188 180.203125 268.367188 Z M 180.203125 268.367188 " fill-opacity="1" fill-rule="nonzero"/><path fill="#c4bbb3" d="M 178.835938 274.214844 C 181.757812 274.214844 181.757812 278.742188 178.835938 278.742188 C 175.917969 278.742188 175.917969 274.214844 178.835938 274.214844 Z M 178.835938 274.214844 " fill-opacity="1" fill-rule="nonzero"/><path fill="#c4bbb3" d="M 170.109375 276.652344 C 171.746094 276.652344 171.746094 279.195312 170.109375 279.195312 C 168.46875 279.195312 168.46875 276.652344 170.109375 276.652344 Z M 170.109375 276.652344 " fill-opacity="1" fill-rule="nonzero"/><path fill="#c4bbb3" d="M 172.976562 270.792969 C 174.914062 270.792969 174.914062 273.796875 172.976562 273.796875 C 171.042969 273.796875 171.042969 270.792969 172.976562 270.792969 Z M 172.976562 270.792969 " fill-opacity="1" fill-rule="nonzero"/><path fill="#c4bbb3" d="M 174.429688 266.164062 C 175.203125 266.164062 175.203125 267.367188 174.429688 267.367188 C 173.652344 267.367188 173.652344 266.164062 174.429688 266.164062 Z M 174.429688 266.164062 " fill-opacity="1" fill-rule="nonzero"/><path fill="#c4bbb3" d="M 175.566406 281.484375 C 176.335938 281.484375 176.335938 282.691406 175.566406 282.691406 C 174.785156 282.691406 174.785156 281.484375 175.566406 281.484375 Z M 175.566406 281.484375 " fill-opacity="1" fill-rule="nonzero"/><path fill="#c4bbb3" d="M 163.777344 272.433594 C 165.292969 272.433594 165.292969 274.785156 163.777344 274.785156 C 162.261719 274.785156 162.261719 272.433594 163.777344 272.433594 Z M 163.777344 272.433594 " fill-opacity="1" fill-rule="nonzero"/><path fill="#b28060" d="M 273.714844 202.882812 C 279.363281 201.40625 294.816406 196.035156 301.210938 185.492188 C 304.726562 179.683594 303.09375 173.101562 304.6875 165.710938 C 306.105469 159.132812 310.933594 151.847656 311.125 144.855469 C 311.90625 116.867188 311.824219 100.972656 304.53125 97.792969 C 294.511719 93.421875 275.253906 106.234375 258.574219 123.949219 C 249.007812 134.121094 236.777344 132.296875 236.546875 141.949219 C 236.230469 154.921875 259.113281 206.726562 273.714844 202.882812 Z M 273.714844 202.882812 " fill-opacity="1" fill-rule="nonzero"/><path fill="#f7daa2" d="M 289.464844 185.492188 C 293.601562 182.132812 295.78125 174.453125 296.714844 164.917969 C 297.355469 158.386719 303.242188 152.085938 302.945312 144.609375 C 302.050781 121.722656 300.707031 109.824219 299.902344 108.292969 C 298.457031 105.53125 274.296875 109.050781 259.449219 130.316406 C 256.367188 134.742188 245.449219 144.609375 245.449219 144.609375 L 270.226562 188.605469 C 270.226562 188.605469 283.078125 190.671875 289.464844 185.492188 Z M 289.464844 185.492188 " fill-opacity="1" fill-rule="nonzero"/><path fill="#f4c38f" d="M 283.808594 170.0625 C 290.511719 152.574219 291.679688 129.210938 287.753906 127.574219 C 286.027344 126.855469 270.726562 134.449219 265.199219 143.046875 C 262.28125 147.589844 253.128906 158.25 253.128906 158.25 L 264.96875 179.269531 C 264.96875 179.269531 280.9375 177.542969 283.808594 170.0625 Z M 283.808594 170.0625 " fill-opacity="1" fill-rule="nonzero"/><path fill="#b28060" d="M 105.191406 202.882812 C 99.546875 201.40625 84.09375 196.035156 77.699219 185.492188 C 74.179688 179.683594 75.8125 173.101562 74.21875 165.710938 C 72.800781 159.132812 67.976562 151.847656 67.78125 144.855469 C 66.996094 116.867188 67.082031 100.972656 74.375 97.792969 C 84.394531 93.421875 103.652344 106.234375 120.332031 123.949219 C 129.902344 134.121094 142.128906 132.296875 142.359375 141.949219 C 142.679688 154.921875 119.792969 206.726562 105.191406 202.882812 Z M 105.191406 202.882812 " fill-opacity="1" fill-rule="nonzero"/><path fill="#f7daa2" d="M 89.441406 185.492188 C 85.304688 182.132812 83.128906 174.453125 82.191406 164.917969 C 81.550781 158.386719 75.664062 152.085938 75.960938 144.609375 C 76.855469 121.722656 78.199219 109.824219 79.003906 108.292969 C 80.449219 105.53125 104.609375 109.050781 119.460938 130.316406 C 122.542969 134.742188 133.457031 144.609375 133.457031 144.609375 L 108.679688 188.605469 C 108.679688 188.605469 95.828125 190.671875 89.441406 185.492188 Z M 89.441406 185.492188 " fill-opacity="1" fill-rule="nonzero"/><path fill="#f4c38f" d="M 95.097656 170.0625 C 88.398438 152.574219 87.230469 129.210938 91.152344 127.574219 C 92.878906 126.855469 108.179688 134.449219 113.707031 143.046875 C 116.628906 147.589844 125.777344 158.25 125.777344 158.25 L 113.9375 179.269531 C 113.9375 179.269531 97.96875 177.542969 95.097656 170.0625 Z M 95.097656 170.0625 " fill-opacity="1" fill-rule="nonzero"/><path fill="#f7daa2" d="M 242.261719 221.71875 C 233.78125 235.855469 217.585938 228.144531 217.585938 228.144531 C 217.585938 228.144531 202.558594 221.691406 206.222656 205.175781 C 208.492188 194.917969 217.984375 193.25 230.425781 195.726562 C 242.929688 198.214844 247.882812 212.359375 242.261719 221.71875 Z M 242.261719 221.71875 " fill-opacity="1" fill-rule="nonzero"/><path fill="#271504" d="M 209.851562 218.851562 C 209.851562 226.410156 215.976562 232.53125 223.527344 232.53125 C 231.085938 232.53125 237.214844 226.414062 237.214844 218.851562 C 237.214844 211.300781 231.085938 205.175781 223.527344 205.175781 C 215.980469 205.175781 209.851562 211.300781 209.851562 218.851562 Z M 209.851562 218.851562 " fill-opacity="1" fill-rule="nonzero"/><path fill="#000000" d="M 230.425781 218.851562 C 230.425781 219.304688 230.378906 219.753906 230.292969 220.199219 C 230.203125 220.640625 230.074219 221.074219 229.898438 221.492188 C 229.726562 221.910156 229.515625 222.308594 229.261719 222.683594 C 229.011719 223.058594 228.726562 223.40625 228.40625 223.726562 C 228.085938 224.046875 227.734375 224.335938 227.359375 224.585938 C 226.984375 224.835938 226.585938 225.050781 226.167969 225.222656 C 225.75 225.394531 225.316406 225.527344 224.875 225.613281 C 224.429688 225.703125 223.980469 225.746094 223.527344 225.746094 C 223.078125 225.746094 222.628906 225.703125 222.183594 225.613281 C 221.738281 225.527344 221.308594 225.394531 220.890625 225.222656 C 220.472656 225.050781 220.074219 224.835938 219.699219 224.585938 C 219.320312 224.335938 218.972656 224.046875 218.652344 223.726562 C 218.332031 223.40625 218.046875 223.058594 217.796875 222.683594 C 217.542969 222.308594 217.332031 221.910156 217.160156 221.492188 C 216.984375 221.074219 216.855469 220.640625 216.765625 220.199219 C 216.679688 219.753906 216.632812 219.304688 216.632812 218.851562 C 216.632812 218.398438 216.679688 217.953125 216.765625 217.507812 C 216.855469 217.0625 216.984375 216.632812 217.160156 216.214844 C 217.332031 215.796875 217.542969 215.398438 217.796875 215.023438 C 218.046875 214.644531 218.332031 214.296875 218.652344 213.976562 C 218.972656 213.65625 219.320312 213.371094 219.699219 213.121094 C 220.074219 212.867188 220.472656 212.65625 220.890625 212.480469 C 221.308594 212.308594 221.738281 212.179688 222.183594 212.089844 C 222.628906 212 223.078125 211.957031 223.527344 211.957031 C 223.980469 211.957031 224.429688 212 224.875 212.089844 C 225.316406 212.179688 225.75 212.308594 226.167969 212.480469 C 226.585938 212.65625 226.984375 212.867188 227.359375 213.121094 C 227.734375 213.371094 228.085938 213.65625 228.40625 213.976562 C 228.726562 214.296875 229.011719 214.644531 229.261719 215.023438 C 229.515625 215.398438 229.726562 215.796875 229.898438 216.214844 C 230.074219 216.632812 230.203125 217.0625 230.292969 217.507812 C 230.378906 217.953125 230.425781 218.398438 230.425781 218.851562 Z M 230.425781 218.851562 " fill-opacity="1" fill-rule="nonzero"/><path fill="#ffffff" d="M 213.136719 215.152344 C 213.136719 217.609375 215.128906 219.597656 217.585938 219.597656 C 220.050781 219.59375 222.046875 217.597656 222.042969 215.140625 C 222.042969 212.679688 220.042969 210.6875 217.582031 210.6875 C 215.125 210.695312 213.136719 212.6875 213.136719 215.152344 Z M 213.136719 215.152344 " fill-opacity="1" fill-rule="nonzero"/><path fill="#ffffff" d="M 221.410156 219.601562 C 221.410156 220.773438 222.359375 221.71875 223.535156 221.71875 C 224.710938 221.71875 225.652344 220.769531 225.652344 219.59375 C 225.652344 218.425781 224.710938 217.484375 223.527344 217.484375 C 222.359375 217.484375 221.410156 218.429688 221.410156 219.601562 Z M 221.410156 219.601562 " fill-opacity="1" fill-rule="nonzero"/></svg>