<svg xmlns="http://www.w3.org/2000/svg" xmlns:xlink="http://www.w3.org/1999/xlink" width="500" zoomAndPan="magnify" viewBox="0 0 375 374.999991" height="500" preserveAspectRatio="xMidYMid meet" version="1.0"><defs><clipPath id="6c7f8b5ec8"><path d="M 31.367188 31.367188 L 343.367188 31.367188 L 343.367188 343.367188 L 31.367188 343.367188 Z M 31.367188 31.367188 " clip-rule="nonzero"/></clipPath></defs><rect x="-37.5" width="450" fill="#ffffff" y="-37.499999" height="449.999989" fill-opacity="1"/><rect x="-37.5" width="450" fill="#ffffff" y="-37.499999" height="449.999989" fill-opacity="1"/><g clip-path="url(#6c7f8b5ec8)"><path fill="#ed6d87" d="M 343.386719 187.367188 C 343.386719 189.921875 343.324219 192.472656 343.199219 195.023438 C 343.074219 197.574219 342.886719 200.117188 342.636719 202.660156 C 342.382812 205.199219 342.070312 207.734375 341.699219 210.261719 C 341.324219 212.785156 340.886719 215.300781 340.386719 217.804688 C 339.890625 220.308594 339.332031 222.800781 338.710938 225.277344 C 338.089844 227.753906 337.410156 230.214844 336.667969 232.65625 C 335.925781 235.101562 335.125 237.523438 334.265625 239.929688 C 333.40625 242.332031 332.488281 244.714844 331.511719 247.074219 C 330.53125 249.433594 329.5 251.765625 328.40625 254.074219 C 327.316406 256.382812 326.167969 258.664062 324.964844 260.914062 C 323.761719 263.164062 322.5 265.386719 321.1875 267.578125 C 319.875 269.765625 318.511719 271.921875 317.09375 274.046875 C 315.671875 276.167969 314.203125 278.257812 312.683594 280.308594 C 311.160156 282.359375 309.589844 284.371094 307.972656 286.34375 C 306.351562 288.320312 304.683594 290.25 302.96875 292.144531 C 301.253906 294.035156 299.496094 295.882812 297.6875 297.6875 C 295.882812 299.496094 294.035156 301.253906 292.144531 302.96875 C 290.25 304.683594 288.320312 306.351562 286.34375 307.972656 C 284.371094 309.589844 282.359375 311.160156 280.308594 312.683594 C 278.257812 314.203125 276.167969 315.671875 274.046875 317.09375 C 271.921875 318.511719 269.765625 319.875 267.578125 321.1875 C 265.386719 322.5 263.167969 323.761719 260.914062 324.964844 C 258.664062 326.167969 256.382812 327.316406 254.074219 328.40625 C 251.765625 329.5 249.433594 330.53125 247.074219 331.511719 C 244.714844 332.488281 242.332031 333.40625 239.929688 334.265625 C 237.523438 335.125 235.101562 335.925781 232.65625 336.667969 C 230.214844 337.410156 227.753906 338.089844 225.277344 338.710938 C 222.800781 339.332031 220.308594 339.890625 217.804688 340.386719 C 215.300781 340.886719 212.785156 341.324219 210.261719 341.699219 C 207.734375 342.070312 205.199219 342.382812 202.660156 342.636719 C 200.117188 342.886719 197.574219 343.074219 195.023438 343.199219 C 192.472656 343.324219 189.921875 343.386719 187.367188 343.386719 C 184.8125 343.386719 182.261719 343.324219 179.710938 343.199219 C 177.160156 343.074219 174.617188 342.886719 172.074219 342.636719 C 169.535156 342.382812 167 342.070312 164.476562 341.699219 C 161.949219 341.324219 159.433594 340.886719 156.929688 340.386719 C 154.425781 339.890625 151.933594 339.332031 149.457031 338.710938 C 146.980469 338.089844 144.519531 337.410156 142.078125 336.667969 C 139.632812 335.925781 137.210938 335.125 134.804688 334.265625 C 132.402344 333.40625 130.019531 332.488281 127.660156 331.511719 C 125.300781 330.53125 122.96875 329.5 120.660156 328.40625 C 118.351562 327.316406 116.074219 326.167969 113.820312 324.964844 C 111.570312 323.761719 109.347656 322.5 107.15625 321.1875 C 104.96875 319.875 102.8125 318.511719 100.6875 317.09375 C 98.566406 315.671875 96.476562 314.203125 94.425781 312.683594 C 92.375 311.160156 90.363281 309.589844 88.390625 307.972656 C 86.417969 306.351562 84.484375 304.683594 82.589844 302.96875 C 80.699219 301.253906 78.851562 299.496094 77.046875 297.6875 C 75.238281 295.882812 73.480469 294.035156 71.765625 292.144531 C 70.050781 290.25 68.382812 288.320312 66.761719 286.34375 C 65.144531 284.371094 63.574219 282.359375 62.050781 280.308594 C 60.53125 278.257812 59.0625 276.167969 57.640625 274.046875 C 56.222656 271.921875 54.859375 269.765625 53.546875 267.578125 C 52.234375 265.386719 50.976562 263.164062 49.769531 260.914062 C 48.566406 258.664062 47.417969 256.382812 46.328125 254.074219 C 45.234375 251.765625 44.203125 249.433594 43.226562 247.074219 C 42.246094 244.714844 41.328125 242.332031 40.46875 239.929688 C 39.609375 237.523438 38.808594 235.101562 38.066406 232.65625 C 37.324219 230.214844 36.644531 227.753906 36.023438 225.277344 C 35.402344 222.800781 34.84375 220.308594 34.347656 217.804688 C 33.847656 215.300781 33.410156 212.785156 33.039062 210.261719 C 32.664062 207.734375 32.351562 205.199219 32.101562 202.660156 C 31.847656 200.117188 31.660156 197.574219 31.535156 195.023438 C 31.410156 192.472656 31.347656 189.921875 31.347656 187.367188 C 31.347656 184.8125 31.410156 182.261719 31.535156 179.710938 C 31.660156 177.160156 31.847656 174.617188 32.101562 172.074219 C 32.351562 169.535156 32.664062 167 33.039062 164.476562 C 33.410156 161.949219 33.847656 159.433594 34.347656 156.929688 C 34.84375 154.425781 35.402344 151.933594 36.023438 149.457031 C 36.644531 146.980469 37.324219 144.519531 38.066406 142.078125 C 38.808594 139.632812 39.609375 137.210938 40.46875 134.804688 C 41.328125 132.402344 42.246094 130.019531 43.226562 127.660156 C 44.203125 125.300781 45.234375 122.96875 46.328125 120.660156 C 47.417969 118.351562 48.566406 116.074219 49.769531 113.820312 C 50.976562 111.570312 52.234375 109.347656 53.546875 107.15625 C 54.859375 104.96875 56.222656 102.8125 57.640625 100.6875 C 59.0625 98.566406 60.53125 96.476562 62.050781 94.425781 C 63.574219 92.375 65.144531 90.363281 66.761719 88.390625 C 68.382812 86.417969 70.050781 84.484375 71.765625 82.589844 C 73.480469 80.699219 75.238281 78.851562 77.046875 77.046875 C 78.851562 75.238281 80.699219 73.480469 82.589844 71.765625 C 84.484375 70.050781 86.417969 68.382812 88.390625 66.761719 C 90.363281 65.144531 92.375 63.574219 94.425781 62.050781 C 96.476562 60.53125 98.566406 59.0625 100.6875 57.640625 C 102.8125 56.222656 104.96875 54.859375 107.15625 53.546875 C 109.347656 52.234375 111.570312 50.976562 113.820312 49.769531 C 116.074219 48.566406 118.351562 47.417969 120.660156 46.328125 C 122.96875 45.234375 125.300781 44.203125 127.660156 43.226562 C 130.019531 42.246094 132.402344 41.328125 134.804688 40.46875 C 137.210938 39.609375 139.632812 38.808594 142.078125 38.066406 C 144.519531 37.324219 146.980469 36.644531 149.457031 36.023438 C 151.933594 35.402344 154.425781 34.84375 156.929688 34.347656 C 159.433594 33.847656 161.949219 33.410156 164.476562 33.039062 C 167 32.664062 169.535156 32.351562 172.074219 32.101562 C 174.617188 31.847656 177.160156 31.660156 179.710938 31.535156 C 182.261719 31.410156 184.8125 31.347656 187.367188 31.347656 C 189.921875 31.347656 192.472656 31.410156 195.023438 31.535156 C 197.574219 31.660156 200.117188 31.847656 202.660156 32.101562 C 205.199219 32.351562 207.734375 32.664062 210.261719 33.039062 C 212.785156 33.410156 215.300781 33.847656 217.804688 34.347656 C 220.308594 34.84375 222.800781 35.402344 225.277344 36.023438 C 227.753906 36.644531 230.214844 37.324219 232.65625 38.066406 C 235.101562 38.808594 237.523438 39.609375 239.929688 40.46875 C 242.332031 41.328125 244.714844 42.246094 247.074219 43.226562 C 249.433594 44.203125 251.765625 45.234375 254.074219 46.328125 C 256.382812 47.417969 258.664062 48.566406 260.914062 49.769531 C 263.167969 50.976562 265.386719 52.234375 267.578125 53.546875 C 269.765625 54.859375 271.921875 56.222656 274.046875 57.640625 C 276.167969 59.0625 278.257812 60.53125 280.308594 62.050781 C 282.359375 63.574219 284.371094 65.144531 286.34375 66.761719 C 288.320312 68.382812 290.25 70.050781 292.144531 71.765625 C 294.035156 73.480469 295.882812 75.238281 297.6875 77.046875 C 299.496094 78.851562 301.253906 80.699219 302.96875 82.589844 C 304.683594 84.484375 306.351562 86.417969 307.972656 88.390625 C 309.589844 90.363281 311.160156 92.375 312.683594 94.425781 C 314.203125 96.476562 315.671875 98.566406 317.09375 100.6875 C 318.511719 102.8125 319.875 104.96875 321.1875 107.15625 C 322.5 109.347656 323.761719 111.570312 324.964844 113.820312 C 326.167969 116.074219 327.316406 118.351562 328.40625 120.660156 C 329.5 122.96875 330.53125 125.300781 331.511719 127.660156 C 332.488281 130.019531 333.40625 132.402344 334.265625 134.804688 C 335.125 137.210938 335.925781 139.632812 336.667969 142.078125 C 337.410156 144.519531 338.089844 146.980469 338.710938 149.457031 C 339.332031 151.933594 339.890625 154.425781 340.386719 156.929688 C 340.886719 159.433594 341.324219 161.949219 341.699219 164.476562 C 342.070312 167 342.382812 169.535156 342.636719 172.074219 C 342.886719 174.617188 343.074219 177.160156 343.199219 179.710938 C 343.324219 182.261719 343.386719 184.8125 343.386719 187.367188 Z M 343.386719 187.367188 " fill-opacity="1" fill-rule="nonzero"/></g><path fill="#eccbad" d="M 288.210938 142.984375 C 295.5625 161.246094 296.957031 206.289062 286.113281 229.210938 C 268.707031 266.003906 229.175781 283.808594 189.636719 283.808594 C 129.191406 283.808594 95.734375 252.777344 89.039062 229.210938 C 78.785156 193.101562 83.242188 151.765625 88.605469 142.984375 C 95.035156 132.46875 110.769531 113.136719 121.695312 105.71875 C 139.9375 93.3125 171.429688 90.925781 189.433594 90.925781 C 207.441406 90.925781 237.773438 96.316406 253.050781 105.71875 C 265.84375 113.585938 283.101562 130.289062 288.210938 142.984375 Z M 288.210938 142.984375 " fill-opacity="1" fill-rule="nonzero"/><path fill="#cba68a" d="M 188.527344 169.945312 L 190.488281 98.902344 L 192.449219 169.945312 Z M 188.527344 169.945312 " fill-opacity="1" fill-rule="nonzero"/><path fill="#cba68a" d="M 195.398438 169.957031 C 195.398438 169.957031 195.425781 169.304688 195.472656 168.160156 C 195.511719 167.578125 195.488281 166.917969 195.59375 166.074219 C 195.699219 165.230469 195.820312 164.277344 195.953125 163.242188 C 196.09375 162.210938 196.367188 161.160156 196.589844 160.019531 C 196.796875 158.878906 197.203125 157.726562 197.519531 156.511719 C 197.839844 155.300781 198.320312 154.097656 198.726562 152.851562 C 199.167969 151.617188 199.691406 150.398438 200.175781 149.164062 C 201.246094 146.738281 202.367188 144.347656 203.550781 142.179688 C 204.695312 139.992188 205.894531 138.023438 206.921875 136.347656 C 209.011719 133.007812 210.597656 130.921875 210.597656 130.921875 C 210.597656 130.921875 209.210938 133.148438 207.457031 136.648438 C 206.59375 138.402344 205.59375 140.453125 204.671875 142.710938 C 203.710938 144.953125 202.832031 147.398438 202.015625 149.847656 C 201.660156 151.089844 201.261719 152.320312 200.949219 153.546875 C 200.671875 154.78125 200.316406 155.976562 200.121094 157.160156 C 199.929688 158.34375 199.644531 159.472656 199.554688 160.558594 C 199.449219 161.640625 199.28125 162.671875 199.242188 163.597656 C 199.210938 164.515625 199.179688 165.355469 199.152344 166.101562 C 199.125 166.84375 199.210938 167.574219 199.226562 168.132812 C 199.285156 169.277344 199.320312 169.933594 199.320312 169.933594 Z M 195.398438 169.957031 " fill-opacity="1" fill-rule="nonzero"/><path fill="#cba68a" d="M 202.863281 169.519531 C 202.863281 169.519531 203.148438 168.371094 203.648438 166.367188 C 203.847656 165.382812 204.335938 164.09375 204.800781 162.660156 C 205.226562 161.191406 206.019531 159.691406 206.734375 157.988281 C 207.1875 157.175781 207.660156 156.332031 208.148438 155.460938 C 208.621094 154.582031 209.296875 153.769531 209.886719 152.886719 C 211.152344 151.164062 212.726562 149.527344 214.503906 148.011719 C 216.347656 146.585938 218.367188 145.238281 220.621094 144.324219 C 222.832031 143.308594 225.234375 142.714844 227.625 142.289062 C 230.03125 141.898438 232.453125 141.789062 234.820312 141.84375 C 237.183594 141.941406 239.5 142.15625 241.703125 142.554688 C 246.121094 143.285156 250.117188 144.484375 253.464844 145.675781 C 256.816406 146.867188 259.523438 148.070312 261.390625 148.964844 C 263.253906 149.855469 264.285156 150.4375 264.285156 150.4375 C 264.285156 150.4375 263.226562 149.910156 261.320312 149.117188 C 259.414062 148.324219 256.660156 147.265625 253.273438 146.261719 C 249.894531 145.25 245.882812 144.273438 241.527344 143.78125 C 239.355469 143.503906 237.09375 143.414062 234.8125 143.441406 C 232.53125 143.507812 230.226562 143.734375 227.988281 144.214844 C 225.761719 144.734375 223.566406 145.398438 221.597656 146.433594 C 219.582031 147.375 217.832031 148.691406 216.246094 150.046875 C 214.730469 151.492188 213.398438 153.023438 212.339844 154.632812 C 211.851562 155.460938 211.28125 156.207031 210.894531 157.03125 C 210.492188 157.847656 210.105469 158.636719 209.730469 159.390625 C 209.167969 160.984375 208.496094 162.40625 208.195312 163.734375 C 207.84375 165.058594 207.472656 166.128906 207.308594 167.1875 C 206.914062 169.214844 206.6875 170.375 206.6875 170.375 Z M 202.863281 169.519531 " fill-opacity="1" fill-rule="nonzero"/><path fill="#cba68a" d="M 191.039062 134.425781 C 191.039062 134.425781 190.878906 133.785156 190.675781 132.664062 C 190.570312 132.109375 190.535156 131.394531 190.488281 130.574219 C 190.472656 129.757812 190.484375 128.832031 190.625 127.824219 C 190.707031 127.324219 190.773438 126.792969 190.882812 126.25 C 191.015625 125.710938 191.183594 125.164062 191.347656 124.59375 C 191.5625 124.039062 191.785156 123.46875 192.007812 122.882812 C 192.28125 122.320312 192.582031 121.746094 192.914062 121.183594 C 193.617188 120.085938 194.378906 118.945312 195.351562 117.972656 C 196.273438 116.945312 197.371094 116.085938 198.476562 115.257812 C 199.628906 114.5 200.796875 113.773438 202.019531 113.226562 C 203.21875 112.628906 204.472656 112.226562 205.664062 111.835938 C 208.070312 111.109375 210.375 110.738281 212.351562 110.625 C 214.324219 110.484375 215.96875 110.578125 217.109375 110.707031 C 218.253906 110.828125 218.894531 110.992188 218.894531 110.992188 C 218.894531 110.992188 218.273438 111.171875 217.175781 111.484375 C 216.09375 111.792969 214.566406 112.261719 212.777344 112.835938 C 211.894531 113.144531 210.941406 113.476562 209.929688 113.832031 C 208.929688 114.195312 207.910156 114.644531 206.855469 115.074219 C 205.8125 115.527344 204.769531 116.066406 203.734375 116.621094 C 202.695312 117.171875 201.699219 117.804688 200.726562 118.464844 C 199.78125 119.152344 198.855469 119.859375 198.039062 120.652344 C 197.199219 121.425781 196.441406 122.25 195.769531 123.109375 C 195.4375 123.539062 195.167969 124 194.835938 124.417969 C 194.558594 124.871094 194.289062 125.316406 194.027344 125.746094 C 193.574219 126.652344 193.128906 127.519531 192.800781 128.375 C 192.472656 129.222656 192.195312 130.035156 191.96875 130.753906 C 191.800781 131.484375 191.554688 132.113281 191.453125 132.679688 C 191.21875 133.792969 191.039062 134.425781 191.039062 134.425781 Z M 191.039062 134.425781 " fill-opacity="1" fill-rule="nonzero"/><path fill="#cba68a" d="M 190.355469 134.425781 C 190.355469 134.425781 190.175781 133.792969 189.9375 132.675781 C 189.835938 132.113281 189.589844 131.484375 189.417969 130.753906 C 189.191406 130.035156 188.914062 129.222656 188.589844 128.375 C 188.257812 127.523438 187.8125 126.652344 187.363281 125.746094 C 187.097656 125.316406 186.828125 124.871094 186.550781 124.417969 C 186.21875 124 185.953125 123.539062 185.617188 123.109375 C 184.945312 122.253906 184.1875 121.429688 183.347656 120.652344 C 182.535156 119.863281 181.601562 119.152344 180.65625 118.464844 C 179.6875 117.808594 178.691406 117.171875 177.648438 116.621094 C 176.617188 116.066406 175.574219 115.527344 174.527344 115.074219 C 173.476562 114.648438 172.457031 114.195312 171.457031 113.832031 C 170.445312 113.476562 169.492188 113.144531 168.609375 112.832031 C 166.820312 112.257812 165.292969 111.789062 164.207031 111.480469 C 163.113281 111.167969 162.488281 110.992188 162.488281 110.992188 C 162.488281 110.992188 163.128906 110.828125 164.273438 110.703125 C 165.414062 110.578125 167.0625 110.484375 169.035156 110.621094 C 171.007812 110.738281 173.3125 111.105469 175.71875 111.835938 C 176.910156 112.226562 178.164062 112.628906 179.363281 113.226562 C 180.585938 113.769531 181.757812 114.496094 182.90625 115.257812 C 184.011719 116.082031 185.109375 116.945312 186.035156 117.96875 C 187.003906 118.945312 187.769531 120.085938 188.46875 121.183594 C 188.804688 121.746094 189.101562 122.316406 189.375 122.882812 C 189.601562 123.464844 189.820312 124.035156 190.039062 124.589844 C 190.199219 125.164062 190.371094 125.710938 190.5 126.25 C 190.613281 126.792969 190.675781 127.324219 190.757812 127.824219 C 190.902344 128.828125 190.914062 129.753906 190.898438 130.574219 C 190.851562 131.394531 190.820312 132.109375 190.710938 132.664062 C 190.511719 133.785156 190.355469 134.425781 190.355469 134.425781 Z M 190.355469 134.425781 " fill-opacity="1" fill-rule="nonzero"/><path fill="#cba68a" d="M 182.296875 169.933594 C 182.296875 169.933594 182.332031 169.277344 182.390625 168.132812 C 182.40625 167.574219 182.492188 166.84375 182.464844 166.101562 C 182.4375 165.355469 182.410156 164.515625 182.375 163.597656 C 182.339844 162.675781 182.171875 161.640625 182.066406 160.5625 C 181.972656 159.472656 181.691406 158.34375 181.5 157.164062 C 181.304688 155.980469 180.949219 154.785156 180.671875 153.550781 C 180.363281 152.320312 179.960938 151.09375 179.609375 149.851562 C 178.789062 147.398438 177.914062 144.953125 176.953125 142.714844 C 176.03125 140.457031 175.03125 138.40625 174.167969 136.648438 C 172.414062 133.148438 171.027344 130.921875 171.027344 130.921875 C 171.027344 130.921875 172.613281 133.007812 174.703125 136.347656 C 175.730469 138.027344 176.929688 139.992188 178.074219 142.179688 C 179.253906 144.351562 180.378906 146.742188 181.445312 149.167969 C 181.929688 150.398438 182.453125 151.621094 182.894531 152.855469 C 183.300781 154.097656 183.78125 155.300781 184.101562 156.515625 C 184.417969 157.730469 184.820312 158.882812 185.027344 160.023438 C 185.253906 161.164062 185.523438 162.214844 185.664062 163.242188 C 185.796875 164.28125 185.917969 165.234375 186.027344 166.074219 C 186.125 166.921875 186.105469 167.582031 186.144531 168.164062 C 186.191406 169.308594 186.21875 169.960938 186.21875 169.960938 Z M 182.296875 169.933594 " fill-opacity="1" fill-rule="nonzero"/><path fill="#cba68a" d="M 174.9375 170.375 C 174.9375 170.375 174.710938 169.214844 174.316406 167.1875 C 174.152344 166.128906 173.777344 165.054688 173.429688 163.730469 C 173.128906 162.40625 172.457031 160.984375 171.890625 159.386719 C 171.519531 158.632812 171.128906 157.84375 170.726562 157.03125 C 170.339844 156.203125 169.773438 155.460938 169.28125 154.632812 C 168.222656 153.023438 166.890625 151.492188 165.375 150.046875 C 163.785156 148.691406 162.035156 147.371094 160.019531 146.429688 C 158.054688 145.394531 155.859375 144.730469 153.632812 144.210938 C 151.390625 143.726562 149.085938 143.503906 146.808594 143.4375 C 144.527344 143.414062 142.265625 143.5 140.09375 143.777344 C 135.734375 144.269531 131.722656 145.246094 128.34375 146.257812 C 124.960938 147.261719 122.203125 148.320312 120.296875 149.117188 C 118.390625 149.910156 117.332031 150.433594 117.332031 150.433594 C 117.332031 150.433594 118.363281 149.851562 120.230469 148.960938 C 122.097656 148.066406 124.800781 146.863281 128.152344 145.671875 C 131.5 144.480469 135.496094 143.285156 139.917969 142.546875 C 142.121094 142.152344 144.4375 141.9375 146.800781 141.839844 C 149.167969 141.789062 151.589844 141.894531 153.996094 142.285156 C 156.386719 142.710938 158.789062 143.304688 161 144.320312 C 163.257812 145.238281 165.277344 146.585938 167.121094 148.007812 C 168.894531 149.523438 170.46875 151.160156 171.734375 152.882812 C 172.328125 153.765625 173 154.574219 173.472656 155.457031 C 173.960938 156.332031 174.433594 157.175781 174.890625 157.984375 C 175.605469 159.6875 176.398438 161.1875 176.820312 162.65625 C 177.289062 164.089844 177.777344 165.382812 177.976562 166.363281 C 178.476562 168.367188 178.765625 169.515625 178.765625 169.515625 Z M 174.9375 170.375 " fill-opacity="1" fill-rule="nonzero"/><path fill="#5e3b27" d="M 168.847656 166.453125 C 168.847656 178.382812 151.523438 199.550781 137.972656 199.550781 C 124.417969 199.550781 108.75 182.953125 108.75 171.027344 C 108.75 159.101562 120.8125 154.699219 133.304688 149.433594 C 152.265625 141.4375 168.847656 154.527344 168.847656 166.453125 Z M 168.847656 166.453125 " fill-opacity="1" fill-rule="nonzero"/><path fill="#432918" d="M 82.128906 183.648438 C 72.691406 182.210938 56.996094 141.589844 59.945312 131.25 C 62.886719 120.90625 119.648438 98.367188 121.695312 105.71875 C 122.863281 109.929688 105.53125 124.386719 95.734375 146.980469 C 89.304688 161.800781 91.578125 185.089844 82.128906 183.648438 Z M 82.128906 183.648438 " fill-opacity="1" fill-rule="nonzero"/><path fill="#432918" d="M 292.609375 183.648438 C 302.058594 182.210938 317.738281 141.589844 314.789062 131.25 C 311.847656 120.90625 255.09375 98.367188 253.046875 105.71875 C 251.878906 109.929688 269.214844 124.386719 279.015625 146.980469 C 285.449219 161.800781 283.167969 185.089844 292.609375 183.648438 Z M 292.609375 183.648438 " fill-opacity="1" fill-rule="nonzero"/><path fill="#a95e1d" d="M 156.027344 177.820312 C 156.027344 178.847656 155.925781 179.863281 155.726562 180.871094 C 155.527344 181.878906 155.230469 182.855469 154.835938 183.804688 C 154.445312 184.753906 153.964844 185.652344 153.394531 186.507812 C 152.824219 187.359375 152.175781 188.148438 151.449219 188.875 C 150.722656 189.601562 149.933594 190.25 149.078125 190.820312 C 148.226562 191.390625 147.324219 191.871094 146.375 192.265625 C 145.429688 192.65625 144.449219 192.953125 143.445312 193.15625 C 142.4375 193.355469 141.421875 193.453125 140.394531 193.453125 C 139.367188 193.453125 138.351562 193.355469 137.34375 193.15625 C 136.335938 192.953125 135.359375 192.65625 134.410156 192.265625 C 133.464844 191.871094 132.5625 191.390625 131.710938 190.820312 C 130.855469 190.25 130.066406 189.601562 129.339844 188.875 C 128.613281 188.148438 127.964844 187.359375 127.394531 186.507812 C 126.824219 185.652344 126.34375 184.753906 125.953125 183.804688 C 125.558594 182.855469 125.261719 181.878906 125.0625 180.871094 C 124.863281 179.863281 124.761719 178.847656 124.761719 177.820312 C 124.761719 176.796875 124.863281 175.777344 125.0625 174.773438 C 125.261719 173.765625 125.558594 172.789062 125.953125 171.839844 C 126.34375 170.890625 126.824219 169.988281 127.394531 169.136719 C 127.964844 168.28125 128.613281 167.492188 129.339844 166.765625 C 130.066406 166.042969 130.855469 165.394531 131.710938 164.824219 C 132.5625 164.253906 133.464844 163.773438 134.410156 163.378906 C 135.359375 162.984375 136.335938 162.6875 137.34375 162.488281 C 138.351562 162.289062 139.367188 162.1875 140.394531 162.1875 C 141.421875 162.1875 142.4375 162.289062 143.445312 162.488281 C 144.449219 162.6875 145.429688 162.984375 146.375 163.378906 C 147.324219 163.773438 148.226562 164.253906 149.078125 164.824219 C 149.933594 165.394531 150.722656 166.042969 151.449219 166.765625 C 152.175781 167.492188 152.824219 168.28125 153.394531 169.136719 C 153.964844 169.988281 154.445312 170.890625 154.835938 171.839844 C 155.230469 172.789062 155.527344 173.765625 155.726562 174.773438 C 155.925781 175.777344 156.027344 176.796875 156.027344 177.820312 Z M 156.027344 177.820312 " fill-opacity="1" fill-rule="nonzero"/><path fill="#000000" d="M 148.273438 177.820312 C 148.273438 182.171875 144.746094 185.695312 140.394531 185.695312 C 136.054688 185.695312 132.515625 182.171875 132.515625 177.820312 C 132.515625 173.46875 136.054688 169.945312 140.394531 169.945312 C 144.746094 169.945312 148.273438 173.472656 148.273438 177.820312 Z M 148.273438 177.820312 " fill-opacity="1" fill-rule="nonzero"/><path fill="#ffffff" d="M 152.265625 173.589844 C 152.265625 176.40625 149.996094 178.679688 147.175781 178.675781 C 144.371094 178.671875 142.089844 176.390625 142.101562 173.582031 C 142.101562 170.773438 144.382812 168.496094 147.191406 168.496094 C 150.003906 168.503906 152.277344 170.78125 152.265625 173.589844 Z M 152.265625 173.589844 " fill-opacity="1" fill-rule="nonzero"/><path fill="#ffffff" d="M 142.8125 178.675781 C 142.8125 178.996094 142.75 179.304688 142.628906 179.601562 C 142.503906 179.898438 142.328125 180.160156 142.101562 180.386719 C 141.875 180.613281 141.613281 180.789062 141.316406 180.910156 C 141.019531 181.035156 140.710938 181.097656 140.390625 181.097656 C 140.070312 181.097656 139.761719 181.035156 139.464844 180.910156 C 139.167969 180.789062 138.90625 180.613281 138.679688 180.386719 C 138.453125 180.160156 138.277344 179.898438 138.15625 179.601562 C 138.03125 179.304688 137.972656 178.996094 137.972656 178.675781 C 137.972656 178.355469 138.03125 178.046875 138.15625 177.75 C 138.277344 177.453125 138.453125 177.191406 138.679688 176.964844 C 138.90625 176.738281 139.167969 176.5625 139.464844 176.441406 C 139.761719 176.316406 140.070312 176.253906 140.390625 176.253906 C 140.710938 176.253906 141.019531 176.316406 141.316406 176.441406 C 141.613281 176.5625 141.875 176.738281 142.101562 176.964844 C 142.328125 177.191406 142.503906 177.453125 142.628906 177.75 C 142.75 178.046875 142.8125 178.355469 142.8125 178.675781 Z M 142.8125 178.675781 " fill-opacity="1" fill-rule="nonzero"/><path fill="#5e3b27" d="M 210.597656 166.453125 C 210.597656 178.382812 227.921875 199.550781 241.480469 199.550781 C 255.039062 199.550781 270.703125 182.953125 270.703125 171.027344 C 270.703125 159.101562 258.640625 154.699219 246.152344 149.433594 C 227.183594 141.4375 210.597656 154.527344 210.597656 166.453125 Z M 210.597656 166.453125 " fill-opacity="1" fill-rule="nonzero"/><path fill="#a95e1d" d="M 223.425781 177.820312 C 223.425781 186.453125 230.425781 193.449219 239.058594 193.449219 C 247.6875 193.449219 254.683594 186.453125 254.683594 177.820312 C 254.683594 169.191406 247.6875 162.199219 239.058594 162.199219 C 230.425781 162.199219 223.425781 169.191406 223.425781 177.820312 Z M 223.425781 177.820312 " fill-opacity="1" fill-rule="nonzero"/><path fill="#000000" d="M 231.179688 177.820312 C 231.179688 182.171875 234.707031 185.695312 239.058594 185.695312 C 243.40625 185.695312 246.933594 182.171875 246.933594 177.820312 C 246.933594 173.46875 243.40625 169.945312 239.058594 169.945312 C 234.707031 169.945312 231.179688 173.472656 231.179688 177.820312 Z M 231.179688 177.820312 " fill-opacity="1" fill-rule="nonzero"/><path fill="#ffffff" d="M 227.183594 173.589844 C 227.183594 176.40625 229.460938 178.679688 232.273438 178.675781 C 235.078125 178.671875 237.359375 176.390625 237.347656 173.582031 C 237.347656 170.773438 235.074219 168.496094 232.261719 168.496094 C 229.453125 168.503906 227.171875 170.78125 227.183594 173.589844 Z M 227.183594 173.589844 " fill-opacity="1" fill-rule="nonzero"/><path fill="#ffffff" d="M 236.632812 178.679688 C 236.632812 180.011719 237.71875 181.097656 239.0625 181.097656 C 240.394531 181.097656 241.476562 180.011719 241.476562 178.675781 C 241.476562 177.335938 240.386719 176.25 239.058594 176.253906 C 237.71875 176.253906 236.632812 177.34375 236.632812 178.679688 Z M 236.632812 178.679688 " fill-opacity="1" fill-rule="nonzero"/><path fill="#432918" d="M 281.503906 194.753906 C 295.640625 221.046875 249.6875 283.8125 189.636719 283.8125 C 127.601562 283.8125 87.921875 228.515625 97.027344 200.082031 C 104.703125 176.09375 130.15625 201.734375 145.90625 195.632812 C 162.601562 189.160156 166.832031 163.785156 190.75 163.785156 C 214.632812 163.785156 214.109375 193.863281 237.660156 196.046875 C 253.09375 197.472656 267.640625 168.972656 281.503906 194.753906 Z M 281.503906 194.753906 " fill-opacity="1" fill-rule="nonzero"/><path fill="#000000" d="M 206.921875 176.386719 C 206.921875 181.28125 203.027344 193.9375 190.667969 193.9375 C 178.316406 193.9375 172.890625 181.824219 172.890625 176.925781 C 172.890625 172.023438 178.445312 166.453125 190.667969 166.453125 C 202.886719 166.453125 206.921875 171.492188 206.921875 176.386719 Z M 206.921875 176.386719 " fill-opacity="1" fill-rule="nonzero"/><path fill="#c2a9a2" d="M 210.148438 197.511719 C 207.84375 197.511719 206.972656 200.679688 208.976562 201.835938 C 208.785156 201.644531 208.59375 201.445312 208.410156 201.257812 C 209.257812 202.546875 211.03125 202.546875 211.878906 201.257812 C 211.691406 201.449219 211.507812 201.644531 211.3125 201.835938 C 213.316406 200.679688 212.453125 197.511719 210.148438 197.511719 Z M 210.148438 197.511719 " fill-opacity="1" fill-rule="nonzero"/><path fill="#c2a9a2" d="M 212.4375 207.308594 C 207.546875 207.308594 207.546875 214.890625 212.4375 214.890625 C 217.320312 214.890625 217.320312 207.308594 212.4375 207.308594 Z M 212.4375 207.308594 " fill-opacity="1" fill-rule="nonzero"/><path fill="#c2a9a2" d="M 227.058594 211.394531 C 224.308594 211.394531 224.308594 215.644531 227.058594 215.644531 C 229.800781 215.644531 229.800781 211.394531 227.058594 211.394531 Z M 227.058594 211.394531 " fill-opacity="1" fill-rule="nonzero"/><path fill="#c2a9a2" d="M 222.25 201.574219 C 219.011719 201.574219 219.011719 206.609375 222.25 206.609375 C 225.496094 206.609375 225.496094 201.574219 222.25 201.574219 Z M 222.25 201.574219 " fill-opacity="1" fill-rule="nonzero"/><path fill="#c2a9a2" d="M 219.828125 193.828125 C 218.53125 193.828125 218.53125 195.839844 219.828125 195.839844 C 221.121094 195.839844 221.121094 193.828125 219.828125 193.828125 Z M 219.828125 193.828125 " fill-opacity="1" fill-rule="nonzero"/><path fill="#c2a9a2" d="M 217.925781 219.484375 C 216.621094 219.484375 216.621094 221.492188 217.925781 221.492188 C 219.21875 221.496094 219.21875 219.484375 217.925781 219.484375 Z M 217.925781 219.484375 " fill-opacity="1" fill-rule="nonzero"/><path fill="#c2a9a2" d="M 237.660156 204.316406 C 235.117188 204.316406 235.117188 208.265625 237.660156 208.265625 C 240.203125 208.265625 240.203125 204.316406 237.660156 204.316406 Z M 237.660156 204.316406 " fill-opacity="1" fill-rule="nonzero"/><path fill="#c2a9a2" d="M 176.421875 198.726562 C 178.722656 198.726562 179.597656 201.886719 177.59375 203.050781 C 177.785156 202.855469 177.972656 202.664062 178.167969 202.46875 C 177.308594 203.761719 175.539062 203.761719 174.679688 202.46875 C 174.875 202.664062 175.0625 202.855469 175.25 203.050781 C 173.25 201.886719 174.113281 198.726562 176.421875 198.726562 Z M 176.421875 198.726562 " fill-opacity="1" fill-rule="nonzero"/><path fill="#c2a9a2" d="M 174.136719 208.519531 C 179.023438 208.519531 179.023438 216.105469 174.136719 216.105469 C 169.25 216.105469 169.25 208.519531 174.136719 208.519531 Z M 174.136719 208.519531 " fill-opacity="1" fill-rule="nonzero"/><path fill="#c2a9a2" d="M 159.511719 212.601562 C 162.25 212.601562 162.25 216.859375 159.511719 216.859375 C 156.761719 216.859375 156.761719 212.601562 159.511719 212.601562 Z M 159.511719 212.601562 " fill-opacity="1" fill-rule="nonzero"/><path fill="#c2a9a2" d="M 164.316406 202.789062 C 167.5625 202.789062 167.5625 207.820312 164.316406 207.820312 C 161.066406 207.820312 161.066406 202.789062 164.316406 202.789062 Z M 164.316406 202.789062 " fill-opacity="1" fill-rule="nonzero"/><path fill="#c2a9a2" d="M 166.75 195.042969 C 168.046875 195.042969 168.046875 197.050781 166.75 197.050781 C 165.449219 197.050781 165.449219 195.042969 166.75 195.042969 Z M 166.75 195.042969 " fill-opacity="1" fill-rule="nonzero"/><path fill="#c2a9a2" d="M 168.648438 220.695312 C 169.949219 220.695312 169.949219 222.703125 168.648438 222.703125 C 167.347656 222.703125 167.347656 220.695312 168.648438 220.695312 Z M 168.648438 220.695312 " fill-opacity="1" fill-rule="nonzero"/><path fill="#c2a9a2" d="M 148.910156 205.535156 C 151.457031 205.535156 151.457031 209.476562 148.910156 209.476562 C 146.363281 209.476562 146.363281 205.535156 148.910156 205.535156 Z M 148.910156 205.535156 " fill-opacity="1" fill-rule="nonzero"/><path fill="#000000" d="M 244.644531 225.933594 C 244.644531 225.933594 216.101562 258.550781 189.605469 258.550781 C 161.574219 258.550781 136.34375 224.472656 136.34375 224.472656 C 136.34375 224.472656 157.894531 233.160156 170.464844 229.390625 C 183.035156 225.617188 189.605469 210.050781 189.605469 210.050781 C 189.605469 210.050781 189.601562 220.5 204.683594 228.042969 C 219.773438 235.585938 244.644531 225.933594 244.644531 225.933594 Z M 244.644531 225.933594 " fill-opacity="1" fill-rule="nonzero"/><path fill="#d37181" d="M 189.605469 256.039062 C 175.058594 256.039062 164.316406 243.261719 164.316406 230.226562 C 184.523438 232.3125 189.605469 210.054688 189.605469 210.054688 C 189.605469 210.054688 194.539062 228.175781 211.089844 229.75 C 211.109375 242.632812 204.15625 256.039062 189.605469 256.039062 Z M 189.605469 256.039062 " fill-opacity="1" fill-rule="nonzero"/><path fill="#000000" d="M 249.085938 224.75 C 243.6875 226.917969 238.101562 228.578125 232.402344 229.847656 C 226.699219 231.101562 220.839844 231.890625 214.871094 231.679688 C 213.378906 231.605469 211.882812 231.507812 210.386719 231.285156 C 208.871094 231.089844 207.449219 230.773438 205.871094 230.355469 L 204.832031 230.039062 L 203.679688 229.621094 C 202.933594 229.316406 202.222656 228.996094 201.519531 228.625 C 200.121094 227.890625 198.804688 227.011719 197.570312 226.035156 C 195.117188 224.070312 193.003906 221.738281 191.226562 219.199219 C 190.347656 217.925781 189.566406 216.585938 188.882812 215.203125 C 188.210938 213.78125 187.640625 212.4375 187.171875 210.789062 L 187.054688 210.378906 L 187.0625 210.050781 C 187.113281 208.214844 187.246094 206.375 187.335938 204.535156 C 187.472656 202.695312 187.597656 200.855469 187.785156 199.015625 C 187.957031 197.175781 188.175781 195.335938 188.421875 193.5 C 188.691406 191.660156 188.953125 189.820312 189.355469 187.980469 C 189.382812 187.84375 189.519531 187.753906 189.660156 187.785156 C 189.757812 187.804688 189.835938 187.882812 189.855469 187.980469 C 190.253906 189.820312 190.515625 191.660156 190.789062 193.5 C 191.03125 195.335938 191.25 197.175781 191.425781 199.015625 C 191.613281 200.855469 191.734375 202.695312 191.875 204.535156 C 191.960938 206.371094 192.097656 208.210938 192.148438 210.050781 L 192.039062 209.316406 C 192.460938 210.417969 193.023438 211.742188 193.597656 212.929688 C 194.167969 214.152344 194.796875 215.347656 195.457031 216.519531 C 196.777344 218.859375 198.367188 221.050781 200.300781 222.863281 C 201.257812 223.777344 202.300781 224.59375 203.417969 225.289062 C 203.96875 225.636719 204.558594 225.957031 205.132812 226.238281 L 205.992188 226.632812 L 207.003906 227.023438 C 208.199219 227.410156 209.589844 227.816406 210.929688 228.0625 C 212.28125 228.351562 213.671875 228.523438 215.058594 228.671875 C 220.652344 229.167969 226.390625 228.792969 232.0625 228.007812 C 234.902344 227.597656 237.730469 227.078125 240.542969 226.445312 C 243.347656 225.8125 246.15625 225.125 248.910156 224.277344 C 249.039062 224.234375 249.183594 224.304688 249.226562 224.4375 C 249.273438 224.5625 249.203125 224.695312 249.085938 224.75 Z M 249.085938 224.75 " fill-opacity="1" fill-rule="nonzero"/><path fill="#000000" d="M 130.539062 221.769531 C 133.210938 222.871094 135.957031 223.804688 138.707031 224.691406 C 141.457031 225.566406 144.242188 226.332031 147.042969 226.96875 C 149.84375 227.613281 152.675781 228.101562 155.503906 228.421875 C 156.914062 228.59375 158.332031 228.703125 159.742188 228.765625 C 161.152344 228.808594 162.558594 228.832031 163.949219 228.734375 C 166.734375 228.585938 169.464844 228.070312 171.953125 227.117188 C 173.246094 226.601562 174.355469 226.003906 175.488281 225.269531 C 176.601562 224.539062 177.652344 223.703125 178.621094 222.777344 C 180.574219 220.941406 182.203125 218.75 183.578125 216.414062 C 184.273438 215.25 184.921875 214.058594 185.527344 212.84375 C 186.136719 211.664062 186.738281 210.351562 187.191406 209.25 L 187.0625 210.050781 C 187.109375 208.214844 187.246094 206.375 187.335938 204.535156 C 187.472656 202.695312 187.597656 200.855469 187.785156 199.015625 C 187.957031 197.175781 188.175781 195.335938 188.421875 193.5 C 188.691406 191.660156 188.953125 189.820312 189.355469 187.980469 C 189.382812 187.84375 189.519531 187.753906 189.660156 187.785156 C 189.757812 187.804688 189.835938 187.882812 189.855469 187.980469 C 190.253906 189.820312 190.515625 191.660156 190.789062 193.5 C 191.03125 195.335938 191.25 197.175781 191.425781 199.015625 C 191.613281 200.855469 191.734375 202.695312 191.875 204.535156 C 191.960938 206.371094 192.097656 208.210938 192.148438 210.050781 L 192.15625 210.410156 L 192.015625 210.855469 C 191.5 212.492188 190.894531 213.824219 190.1875 215.230469 C 189.464844 216.597656 188.660156 217.921875 187.75 219.175781 C 185.917969 221.675781 183.785156 223.972656 181.347656 225.933594 C 180.121094 226.902344 178.820312 227.789062 177.445312 228.550781 C 176.085938 229.304688 174.5625 229.960938 173.125 230.417969 C 170.125 231.371094 167.046875 231.746094 164.035156 231.734375 C 157.988281 231.742188 152.164062 230.472656 146.558594 228.769531 C 140.953125 227.042969 135.519531 224.875 130.320312 222.222656 C 130.195312 222.160156 130.148438 222.007812 130.210938 221.882812 C 130.277344 221.769531 130.421875 221.71875 130.539062 221.769531 Z M 130.539062 221.769531 " fill-opacity="1" fill-rule="nonzero"/><path fill="#e8bcba" d="M 183.910156 229.105469 C 182.273438 229.105469 181.664062 231.34375 183.089844 232.171875 C 182.941406 232.035156 182.808594 231.898438 182.683594 231.757812 C 183.28125 232.675781 184.535156 232.675781 185.140625 231.757812 C 185.003906 231.898438 184.871094 232.035156 184.738281 232.171875 C 186.160156 231.34375 185.542969 229.105469 183.910156 229.105469 Z M 183.910156 229.105469 " fill-opacity="1" fill-rule="nonzero"/><path fill="#e8bcba" d="M 185.535156 236.046875 C 182.0625 236.046875 182.0625 241.425781 185.535156 241.425781 C 189 241.425781 189 236.046875 185.535156 236.046875 Z M 185.535156 236.046875 " fill-opacity="1" fill-rule="nonzero"/><path fill="#e8bcba" d="M 195.902344 238.941406 C 193.960938 238.941406 193.960938 241.957031 195.902344 241.957031 C 197.847656 241.957031 197.847656 238.941406 195.902344 238.941406 Z M 195.902344 238.941406 " fill-opacity="1" fill-rule="nonzero"/><path fill="#e8bcba" d="M 192.492188 231.980469 C 190.191406 231.980469 190.191406 235.550781 192.492188 235.550781 C 194.800781 235.550781 194.800781 231.980469 192.492188 231.980469 Z M 192.492188 231.980469 " fill-opacity="1" fill-rule="nonzero"/><path fill="#e8bcba" d="M 190.773438 226.492188 C 189.855469 226.492188 189.855469 227.914062 190.773438 227.914062 C 191.695312 227.914062 191.695312 226.492188 190.773438 226.492188 Z M 190.773438 226.492188 " fill-opacity="1" fill-rule="nonzero"/><path fill="#e8bcba" d="M 189.425781 244.683594 C 188.503906 244.683594 188.503906 246.109375 189.425781 246.109375 C 190.347656 246.109375 190.347656 244.683594 189.425781 244.683594 Z M 189.425781 244.683594 " fill-opacity="1" fill-rule="nonzero"/><path fill="#e8bcba" d="M 203.421875 233.929688 C 201.617188 233.929688 201.617188 236.730469 203.421875 236.730469 C 205.230469 236.730469 205.230469 233.929688 203.421875 233.929688 Z M 203.421875 233.929688 " fill-opacity="1" fill-rule="nonzero"/></svg>