<svg xmlns="http://www.w3.org/2000/svg" xmlns:xlink="http://www.w3.org/1999/xlink" width="500" zoomAndPan="magnify" viewBox="0 0 375 374.999991" height="500" preserveAspectRatio="xMidYMid meet" version="1.0"><defs><clipPath id="8969bf91eb"><path d="M 254 272 L 318.648438 272 L 318.648438 348 L 254 348 Z M 254 272 " clip-rule="nonzero"/></clipPath><clipPath id="9be428ebb1"><path d="M 234 207 L 292 207 L 292 357.691406 L 234 357.691406 Z M 234 207 " clip-rule="nonzero"/></clipPath><clipPath id="e461935bae"><path d="M 56.148438 314 L 105 314 L 105 355 L 56.148438 355 Z M 56.148438 314 " clip-rule="nonzero"/></clipPath></defs><rect x="-37.5" width="450" fill="#ffffff" y="-37.499999" height="449.999989" fill-opacity="1"/><rect x="-37.5" width="450" fill="#ffffff" y="-37.499999" height="449.999989" fill-opacity="1"/><path fill="#ffa856" d="M 57.3125 353.449219 C 59.207031 352.996094 61.101562 352.558594 63.003906 352.132812 C 74.527344 349.5625 86.15625 347.527344 97.886719 346.03125 C 102.273438 345.46875 106.667969 344.980469 111.074219 344.566406 C 125.484375 343.214844 143.648438 344.863281 155.910156 335.824219 C 166.234375 328.210938 171.429688 311.6875 163.058594 300.40625 C 154.289062 288.589844 139.644531 291.148438 127.589844 293.828125 C 114.761719 296.675781 103.378906 306.457031 92.859375 314.90625 C 91.203125 316.234375 89.570312 317.53125 87.957031 318.761719 C 75.726562 328.09375 64.128906 338.390625 57.613281 352.777344 C 57.511719 353.003906 57.410156 353.226562 57.3125 353.449219 Z M 57.3125 353.449219 " fill-opacity="1" fill-rule="nonzero"/><g clip-path="url(#8969bf91eb)"><path fill="#ffa856" d="M 255.484375 309.363281 C 257.160156 314.601562 260.21875 319.28125 263.464844 323.722656 C 267.582031 329.351562 272.035156 334.703125 276.824219 339.773438 C 278.203125 341.308594 279.71875 342.699219 281.371094 343.941406 C 287.25 348.128906 295.136719 348.296875 302.203125 346.839844 C 305.121094 346.320312 307.871094 345.332031 310.457031 343.882812 C 311.5625 343.222656 312.578125 342.441406 313.5 341.539062 C 314.421875 340.636719 315.222656 339.640625 315.910156 338.546875 C 316.59375 337.457031 317.140625 336.300781 317.550781 335.078125 C 317.960938 333.855469 318.21875 332.601562 318.332031 331.316406 C 318.40625 330.109375 318.328125 328.910156 318.097656 327.722656 C 317.867188 326.535156 317.492188 325.394531 316.96875 324.304688 C 316.449219 323.210938 315.796875 322.203125 315.019531 321.277344 C 314.242188 320.351562 313.359375 319.535156 312.375 318.835938 C 312.113281 318.660156 311.847656 318.496094 311.578125 318.335938 C 308.296875 316.453125 304.308594 316.066406 301.09375 314.074219 C 298.957031 312.640625 297.207031 310.832031 295.835938 308.652344 C 295.183594 307.699219 294.566406 306.714844 293.964844 305.742188 C 290.992188 301.222656 288.480469 296.457031 286.433594 291.449219 C 284.78125 287.054688 284.730469 282.921875 284.082031 278.382812 C 282.601562 268.058594 268.75 273.242188 263.832031 277.769531 C 262.789062 278.757812 261.820312 279.8125 260.925781 280.933594 C 260.03125 282.058594 259.21875 283.234375 258.484375 284.472656 C 257.753906 285.707031 257.109375 286.984375 256.554688 288.308594 C 256 289.632812 255.539062 290.992188 255.171875 292.378906 C 254.804688 293.769531 254.535156 295.175781 254.363281 296.601562 C 254.191406 298.027344 254.121094 299.457031 254.144531 300.890625 C 254.171875 302.328125 254.296875 303.753906 254.523438 305.171875 C 254.746094 306.59375 255.066406 307.988281 255.484375 309.363281 Z M 255.484375 309.363281 " fill-opacity="1" fill-rule="nonzero"/></g><path fill="#ffa856" d="M 136.035156 249.414062 C 132.722656 273.457031 134.941406 298.996094 137.296875 323.484375 C 137.832031 329.046875 138.492188 335.035156 140.625 338.773438 C 142.582031 342.195312 145.34375 342.945312 147.929688 343.496094 C 169.355469 348.113281 190.992188 349.613281 212.847656 347.992188 C 216.367188 347.726562 220.304688 347 222.613281 341.6875 C 223.25 340.222656 223.746094 338.433594 224.585938 337.453125 C 224.863281 337.121094 225.203125 336.878906 225.609375 336.71875 C 226.011719 336.5625 226.429688 336.515625 226.859375 336.570312 C 231.566406 336.933594 235.921875 344.289062 240.539062 342.398438 C 243.910156 341.019531 246.320312 334.988281 247.738281 328.730469 C 249.15625 322.46875 249.886719 315.621094 251.535156 309.589844 C 254.289062 299.5 259.316406 292.691406 262.660156 283.339844 C 267.636719 269.429688 268.429688 251.417969 268.953125 234.359375 C 269.246094 229.714844 269.082031 225.089844 268.457031 220.480469 C 267.550781 215.230469 265.492188 211.140625 263.476562 207.308594 C 256.351562 193.761719 248.375 180.367188 238.683594 176.9375 C 233.84375 175.222656 228.875 176.132812 223.976562 177.046875 C 205.273438 180.539062 185.972656 183.65625 168.078125 195.851562 C 153.878906 205.527344 140.359375 218.042969 136.035156 249.414062 Z M 136.035156 249.414062 " fill-opacity="1" fill-rule="nonzero"/><g clip-path="url(#9be428ebb1)"><path fill="#ffddbd" d="M 275.261719 356.445312 C 269.746094 356.445312 268.84375 357.640625 260.289062 356.554688 C 247.753906 354.96875 245.890625 349.636719 244.054688 345.445312 C 236.5625 328.351562 231.722656 297.953125 235.21875 279.582031 C 239.890625 255.035156 271.152344 193.25 289.496094 210.519531 C 294.320312 215.0625 286.375 262.546875 282.980469 279.542969 C 280.601562 291.464844 279.070312 302.246094 275.824219 314.035156 C 274.796875 317.542969 274.015625 321.109375 273.480469 324.730469 C 272.945312 329.003906 273.636719 330.285156 274.339844 330.960938 C 276.46875 333.03125 282.222656 332.410156 283.742188 334.351562 C 283.828125 334.464844 283.902344 334.585938 283.960938 334.714844 C 290.664062 349.683594 286.039062 356.445312 275.261719 356.445312 Z M 275.261719 356.445312 " fill-opacity="1" fill-rule="nonzero"/></g><path fill="#e2d2bb" d="M 281.34375 334.855469 C 280.390625 334.800781 279.433594 334.808594 278.480469 334.886719 C 276.097656 335.167969 273.734375 335.574219 271.394531 336.109375 C 267.21875 336.988281 263.046875 337.867188 258.871094 338.742188 C 258.695312 338.121094 258.679688 337.5 258.820312 336.871094 C 258.964844 336.242188 259.246094 335.683594 259.671875 335.199219 C 260.558594 334.171875 261.574219 333.292969 262.71875 332.566406 C 264.042969 331.625 265.367188 330.6875 266.691406 329.75 C 268.40625 328.53125 272.207031 331.253906 272.839844 331.855469 C 274.769531 333.6875 279.96875 333.136719 281.34375 334.855469 Z M 281.34375 334.855469 " fill-opacity="1" fill-rule="nonzero"/><path fill="#ffa856" d="M 282.164062 30.488281 C 306.351562 21.878906 311.613281 34.070312 302.191406 55.582031 C 294.660156 72.777344 296.90625 89.039062 274.953125 89.144531 C 251.882812 89.253906 248.128906 78.453125 250.292969 66.15625 C 253.957031 45.3125 262.265625 37.574219 282.164062 30.488281 Z M 282.164062 30.488281 " fill-opacity="1" fill-rule="nonzero"/><path fill="#ffddbd" d="M 256.980469 56.613281 C 261.765625 52.738281 289 30.214844 301.824219 36.960938 C 310.335938 41.441406 290.785156 79.121094 285.378906 84.203125 C 281.820312 87.550781 268.011719 85.039062 262.511719 81.605469 C 253.980469 76.277344 253.382812 59.53125 256.980469 56.613281 Z M 256.980469 56.613281 " fill-opacity="1" fill-rule="nonzero"/><path fill="#ffa856" d="M 140.746094 51.109375 C 145.082031 67.558594 141.601562 82.011719 157.03125 87.183594 C 158.808594 85.273438 186.707031 57.660156 187.238281 57.367188 C 187.796875 57.054688 188.363281 56.753906 188.933594 56.464844 C 186.03125 44.144531 178.589844 37.117188 164.414062 29.417969 C 141.847656 17.167969 134.765625 28.398438 140.746094 51.109375 Z M 140.746094 51.109375 " fill-opacity="1" fill-rule="nonzero"/><path fill="#ffddbd" d="M 156.40625 75.21875 C 157.421875 76.519531 160.3125 78.777344 163.929688 81.101562 C 170.390625 74.457031 180.640625 67.097656 185.550781 62.46875 C 183.355469 57.183594 180.382812 52.382812 176.621094 48.066406 C 172.496094 43.496094 152.742188 25.855469 146.0625 33.101562 C 139.546875 40.175781 151.851562 69.359375 156.40625 75.21875 Z M 156.40625 75.21875 " fill-opacity="1" fill-rule="nonzero"/><path fill="#ffddbd" d="M 160.578125 355.980469 C 166.09375 355.980469 164.261719 356.097656 172.882812 356.273438 C 183.484375 356.492188 189.035156 351.175781 190.199219 346.753906 C 195.503906 326.582031 202.980469 303.175781 199.484375 284.804688 C 194.8125 260.257812 201.269531 199.335938 182.929688 216.605469 C 178.101562 221.148438 157.9375 199.765625 157.9375 199.765625 C 147.574219 221.265625 146.40625 252.210938 149.652344 263.996094 C 150.988281 268.835938 159.105469 325.78125 158.253906 326.261719 C 141.808594 335.605469 149.800781 355.980469 160.578125 355.980469 Z M 160.578125 355.980469 " fill-opacity="1" fill-rule="nonzero"/><path fill="#ffa856" d="M 149.652344 159.402344 C 153.832031 157.769531 155.867188 153.460938 159.742188 152.082031 C 159.957031 150.890625 156.308594 145.511719 156.453125 145.179688 C 157.992188 141.632812 153.945312 147.925781 152.523438 143.90625 C 151.375 140.65625 149.316406 134.957031 150.296875 129.574219 C 147.777344 127.367188 143.609375 133.503906 145.097656 129.894531 C 146.273438 127.035156 144.835938 121.484375 145.628906 117.683594 C 140.855469 119.964844 140.582031 114.917969 148.460938 99.304688 C 151.242188 94.617188 154.363281 90.171875 157.828125 85.96875 C 166.339844 73.226562 181.136719 59.1875 192 54.332031 C 200.8125 50.390625 213.433594 49.847656 220.390625 49.289062 C 222.03125 49.15625 223.554688 49.105469 224.929688 49.113281 C 227.113281 49.132812 229.269531 49.238281 231.367188 49.417969 C 240.296875 50.191406 248.183594 52.355469 253.121094 55.023438 C 275.875 67.339844 291.398438 92.71875 292.53125 94.714844 C 304.542969 115.84375 299.222656 118.863281 294.019531 114.710938 C 295.203125 122.277344 293.855469 128.808594 296.683594 133.820312 C 297.042969 134.460938 295.339844 136.191406 293.027344 138.238281 C 292.855469 140.417969 293.859375 142.355469 293.347656 143.800781 C 292.773438 145.421875 288.222656 143.742188 286.554688 141.996094 C 285.53125 142.882812 279.308594 153.667969 279.550781 155.691406 C 283.691406 155.796875 283.511719 158.875 292.34375 161.507812 C 302.523438 164.550781 299.957031 198.28125 293.605469 216.644531 C 281.210938 252.480469 248.695312 282.777344 228.371094 283.449219 C 216.179688 283.847656 220.589844 294.65625 210.871094 290.785156 C 206.515625 291.238281 191.777344 278.476562 188.335938 275.230469 C 172.617188 260.390625 154.339844 246.089844 145.925781 218.328125 C 140.15625 199.300781 137.777344 164.042969 149.652344 159.402344 Z M 149.652344 159.402344 " fill-opacity="1" fill-rule="nonzero"/><path fill="#ffddbd" d="M 164.339844 144.417969 C 167.8125 150.363281 181.183594 157.898438 189.621094 163.167969 C 192.8125 165.164062 212.765625 182.507812 226.898438 176.523438 C 241.03125 170.535156 261.804688 162.480469 269.058594 148.949219 C 265.152344 148.886719 267.289062 148.367188 263.472656 147.515625 C 271.15625 144.578125 283.210938 142.582031 268.542969 128.984375 C 257.207031 118.476562 278.179688 108.921875 257.253906 101.3125 C 252.671875 99.644531 239.863281 91.671875 236.71875 87.941406 C 235.003906 85.910156 230.785156 80.457031 229.898438 77.953125 C 227.136719 70.175781 226.667969 67.230469 226.367188 58.980469 C 226.261719 56.160156 226.707031 52.757812 226.859375 49.417969 C 224.617188 49.238281 222.3125 49.132812 219.976562 49.113281 C 218.511719 49.105469 216.882812 49.15625 215.125 49.289062 C 213.898438 55.230469 213.175781 61.234375 212.960938 67.296875 C 212.679688 72.28125 212.664062 77.53125 210.15625 81.84375 C 208.398438 84.871094 205.578125 87.109375 202.828125 89.273438 C 198.503906 92.671875 194.128906 96.101562 189.136719 98.414062 C 184.316406 100.640625 178.675781 102.019531 175.53125 106.300781 C 172.929688 109.84375 172.699219 114.539062 172.570312 118.933594 C 169.761719 118.519531 167.179688 120.980469 166.421875 123.714844 C 165.664062 126.449219 166.253906 129.359375 166.851562 132.136719 C 167.925781 137.164062 169.003906 142.191406 170.085938 147.222656 C 168.019531 146.597656 166.105469 145.660156 164.339844 144.417969 Z M 164.339844 144.417969 " fill-opacity="1" fill-rule="nonzero"/><path fill="#ffddbd" d="M 162.253906 195.789062 C 162.339844 189.546875 162.332031 183.515625 166.644531 178.78125 C 169.773438 175.34375 174.023438 173.386719 178.660156 172.285156 C 178.96875 171.933594 179.28125 171.597656 179.605469 171.28125 C 185.074219 165.914062 202.683594 162.828125 207.132812 165.316406 C 211.1875 165.390625 235.5 164.648438 239.542969 164.324219 C 243.832031 161.574219 258.492188 162.6875 264.277344 167.710938 C 264.621094 168.007812 264.953125 168.324219 265.28125 168.65625 C 269.976562 169.472656 274.339844 171.164062 277.671875 174.402344 C 282.265625 178.867188 283.890625 185.390625 284.351562 191.613281 C 285.230469 203.398438 278.15625 221.007812 274.941406 209.792969 C 274.285156 207.496094 272.785156 214.28125 268.757812 223.1875 C 267.003906 233.109375 264.5 242.613281 259.9375 238.15625 C 259.082031 239.253906 258.179688 240.324219 257.226562 241.363281 C 251.539062 247.546875 236.234375 266.144531 229.269531 271.933594 C 227.550781 271.101562 225.433594 276.109375 222.804688 279.761719 C 220.203125 281.789062 217.542969 271.40625 215.878906 272.339844 C 208.570312 266.988281 192.164062 249.359375 186.109375 243.535156 C 185.09375 242.558594 184.128906 241.539062 183.207031 240.5 C 178.925781 245.226562 175.847656 235.890625 173.492188 226.097656 C 168.929688 217.453125 166.71875 210.726562 166.503906 213.101562 C 165.785156 221.066406 162.09375 207.605469 162.253906 195.789062 Z M 162.253906 195.789062 " fill-opacity="1" fill-rule="nonzero"/><path fill="#000000" d="M 260.160156 89.164062 C 258.578125 88.265625 256.941406 87.476562 255.25 86.800781 C 253.695312 86.1875 252.085938 85.832031 250.414062 85.738281 C 248.734375 85.65625 247.070312 85.789062 245.421875 86.128906 C 243.636719 86.445312 241.925781 86.996094 240.296875 87.789062 C 240.726562 86.871094 241.339844 86.101562 242.140625 85.480469 C 242.914062 84.847656 243.753906 84.316406 244.660156 83.894531 C 246.542969 83.011719 248.523438 82.628906 250.597656 82.746094 C 251.605469 82.804688 252.59375 83 253.550781 83.324219 C 254.511719 83.648438 255.410156 84.089844 256.25 84.65625 C 257.089844 85.21875 257.84375 85.882812 258.507812 86.648438 C 259.167969 87.414062 259.722656 88.253906 260.160156 89.164062 Z M 260.160156 89.164062 " fill-opacity="1" fill-rule="nonzero"/><path fill="#000000" d="M 200.65625 89.164062 C 199.074219 88.265625 197.4375 87.476562 195.746094 86.800781 C 194.191406 86.1875 192.582031 85.832031 190.910156 85.738281 C 189.230469 85.65625 187.566406 85.789062 185.917969 86.128906 C 184.132812 86.445312 182.421875 86.996094 180.792969 87.789062 C 181.222656 86.871094 181.835938 86.101562 182.636719 85.480469 C 183.410156 84.847656 184.25 84.316406 185.15625 83.894531 C 187.039062 83.015625 189.019531 82.628906 191.09375 82.746094 C 192.105469 82.804688 193.089844 83 194.046875 83.324219 C 195.007812 83.648438 195.90625 84.089844 196.746094 84.65625 C 197.585938 85.21875 198.339844 85.882812 199.003906 86.648438 C 199.667969 87.414062 200.21875 88.253906 200.65625 89.164062 Z M 200.65625 89.164062 " fill-opacity="1" fill-rule="nonzero"/><path fill="#000000" d="M 227 89.417969 C 236.023438 93.585938 233.011719 102.554688 227.851562 108.429688 C 223.9375 112.890625 220.613281 115.753906 217.597656 115.84375 C 215.785156 115.894531 214.597656 114.976562 212.015625 112.730469 C 206.941406 108.316406 200.1875 101.664062 203.640625 94.332031 C 207.296875 86.5625 220.496094 86.414062 227 89.417969 Z M 227 89.417969 " fill-opacity="1" fill-rule="nonzero"/><path fill="#ffddbd" d="M 210.527344 96.085938 C 210.164062 96.496094 209.863281 96.960938 209.519531 97.390625 C 209.351562 97.601562 209.117188 97.824219 208.855469 97.769531 C 208.558594 97.710938 208.441406 97.351562 208.421875 97.046875 C 208.394531 96.527344 208.488281 96.035156 208.703125 95.5625 C 208.933594 95.097656 209.230469 94.675781 209.585938 94.300781 C 209.960938 93.847656 210.402344 93.480469 210.917969 93.199219 C 211.542969 92.890625 214.515625 92.273438 213.761719 93.699219 C 213.480469 94.234375 212.65625 94.460938 212.171875 94.757812 C 211.558594 95.117188 211.007812 95.558594 210.527344 96.085938 Z M 210.527344 96.085938 " fill-opacity="1" fill-rule="nonzero"/><path fill="#000000" d="M 221.230469 120.003906 C 222.589844 121.976562 224.34375 123.492188 226.496094 124.546875 C 228.402344 125.546875 230.40625 126.289062 232.507812 126.773438 C 234.605469 127.257812 236.734375 127.464844 238.886719 127.402344 C 241.042969 127.339844 243.152344 127.003906 245.21875 126.398438 C 247.289062 125.792969 249.246094 124.933594 251.09375 123.824219 C 252.363281 123.042969 253.832031 122.101562 255.230469 122.621094 C 256.972656 123.261719 257.230469 125.609375 256.964844 127.441406 C 256.714844 129.101562 256.28125 130.714844 255.671875 132.28125 C 255.0625 133.84375 254.289062 135.324219 253.351562 136.71875 C 252.414062 138.113281 251.339844 139.386719 250.117188 140.539062 C 248.898438 141.695312 247.570312 142.703125 246.128906 143.5625 C 244.796875 144.324219 243.417969 144.992188 241.996094 145.5625 C 238.941406 146.828125 235.808594 147.859375 232.601562 148.664062 C 229.394531 149.46875 226.148438 150.035156 222.859375 150.363281 C 219.566406 150.691406 216.273438 150.777344 212.96875 150.621094 C 209.667969 150.46875 206.394531 150.074219 203.148438 149.441406 C 196.558594 148.136719 189.992188 145.738281 185.003906 141.238281 C 180.011719 136.738281 176.835938 129.847656 178.035156 123.230469 C 178.113281 122.40625 178.441406 121.695312 179.015625 121.101562 C 180.164062 120.113281 181.929688 120.726562 183.246094 121.472656 C 186.507812 123.328125 189.542969 125.820312 193.226562 126.539062 C 196.816406 127.238281 200.519531 126.125 203.835938 124.574219 C 208.429688 122.425781 212.816406 119.167969 214.761719 114.480469 C 217.546875 107.773438 219.980469 118.027344 221.230469 120.003906 Z M 221.230469 120.003906 " fill-opacity="1" fill-rule="nonzero"/><path fill="#ff6e72" d="M 199.964844 143.066406 C 196.808594 149.636719 199.484375 155.8125 195.484375 162.082031 C 192.46875 166.8125 183.203125 174.070312 188.082031 180.449219 C 196.386719 191.304688 216.335938 181.378906 224.105469 168.070312 C 227.496094 162.265625 233.542969 151.375 235.179688 144.992188 C 237.34375 136.539062 231.128906 131.222656 222.914062 136.507812 C 217.71875 129.832031 206.226562 130.03125 199.964844 143.066406 Z M 199.964844 143.066406 " fill-opacity="1" fill-rule="nonzero"/><path fill="#000000" d="M 211.90625 149.355469 C 210.746094 154.890625 210.199219 159.578125 206.402344 163.972656 C 210.371094 164.351562 213.835938 153.816406 215.023438 151 C 218.136719 143.597656 227.433594 135.027344 227.621094 133.382812 C 227.984375 130.1875 227.609375 130.097656 223.734375 131.1875 C 218.199219 132.738281 212.9375 144.421875 211.90625 149.355469 Z M 211.90625 149.355469 " fill-opacity="1" fill-rule="nonzero"/><g clip-path="url(#e461935bae)"><path fill="#ffddbd" d="M 56.15625 354.804688 C 57.949219 354.433594 61.203125 352.199219 63.003906 352.132812 C 74.527344 349.5625 86.15625 347.527344 97.886719 346.03125 C 96.710938 345.480469 95.53125 344.929688 94.351562 344.375 C 98.332031 341.671875 101.859375 338.46875 104.9375 334.769531 C 101.511719 332.726562 98.085938 330.683594 94.667969 328.640625 C 96.667969 325.351562 98.554688 322.003906 100.332031 318.589844 C 97.726562 319.136719 95.101562 319.273438 92.453125 318.996094 C 92.625 317.636719 92.761719 316.273438 92.859375 314.90625 C 91.203125 316.234375 89.570312 317.53125 87.957031 318.761719 C 75.726562 328.09375 62.683594 336.808594 56.15625 354.804688 Z M 56.15625 354.804688 " fill-opacity="1" fill-rule="nonzero"/></g><path fill="#e2d2bb" d="M 155.886719 335.070312 C 156.78125 335.023438 157.675781 335.03125 158.574219 335.09375 C 160.820312 335.292969 163.027344 335.695312 165.222656 336.101562 C 169.140625 336.828125 173.058594 337.554688 176.980469 338.277344 C 177.140625 337.757812 177.15625 337.234375 177.019531 336.707031 C 176.882812 336.179688 176.617188 335.726562 176.226562 335.351562 C 175.375 334.492188 174.421875 333.765625 173.363281 333.175781 C 172.125 332.402344 170.882812 331.625 169.640625 330.851562 C 168.027344 329.847656 164.460938 332.097656 163.867188 332.59375 C 162.058594 334.101562 157.175781 333.648438 155.886719 335.070312 Z M 155.886719 335.070312 " fill-opacity="1" fill-rule="nonzero"/><path fill="#ffddbd" d="M 283.167969 325.746094 C 285.824219 324.785156 288.480469 323.824219 291.140625 322.859375 C 294.757812 321.386719 298.5 320.351562 302.359375 319.753906 C 304.566406 319.480469 306.757812 319.570312 308.9375 320.023438 C 308.707031 319.878906 308.472656 319.742188 308.234375 319.613281 C 305.339844 318.054688 301.820312 317.734375 298.984375 316.082031 C 297.074219 314.972656 290.945312 315.035156 289.636719 316.671875 C 288.523438 318.066406 287.171875 319.273438 286.039062 320.652344 C 284.78125 322.179688 283.824219 323.878906 283.167969 325.746094 Z M 283.167969 325.746094 " fill-opacity="1" fill-rule="nonzero"/></svg>