<svg xmlns="http://www.w3.org/2000/svg" xmlns:xlink="http://www.w3.org/1999/xlink" width="500" zoomAndPan="magnify" viewBox="0 0 375 374.999991" height="500" preserveAspectRatio="xMidYMid meet" version="1.0"><defs><clipPath id="66b61747cd"><path d="M 98.273438 37.5 L 265 37.5 L 265 356.960938 L 98.273438 356.960938 Z M 98.273438 37.5 " clip-rule="nonzero"/></clipPath></defs><rect x="-37.5" width="450" fill="#ffffff" y="-37.499999" height="449.999989" fill-opacity="1"/><rect x="-37.5" width="450" fill="#ffffff" y="-37.499999" height="449.999989" fill-opacity="1"/><path fill="#ffb300" d="M 279.078125 181.199219 C 278.699219 184.453125 276.511719 187.457031 273.492188 188.875 C 273.09375 189.0625 272.675781 189.226562 272.238281 189.207031 C 271.808594 189.199219 271.347656 188.964844 271.191406 188.570312 C 271.101562 188.335938 271.121094 188.078125 271.160156 187.835938 C 271.28125 186.980469 271.570312 186.164062 271.703125 185.316406 C 271.839844 184.464844 271.800781 183.542969 271.3125 182.832031 C 271.042969 182.441406 271.335938 182.566406 271.507812 182.4375 C 272.492188 181.710938 273.320312 180.785156 273.9375 179.742188 C 274.234375 179.242188 274.625 178.632812 275.210938 178.6875 C 275.675781 178.734375 275.96875 179.199219 276.367188 179.441406 C 276.785156 179.703125 277.316406 179.699219 277.8125 179.761719 C 278.3125 179.828125 278.859375 180.023438 279.039062 180.484375 C 279.125 180.707031 279.101562 180.957031 279.078125 181.199219 Z M 284.421875 177.992188 C 282.699219 175.941406 280.226562 174.597656 277.664062 173.730469 C 275.660156 173.066406 273.132812 172.789062 271.710938 174.324219 C 270.214844 175.929688 270.828125 178.570312 269.757812 180.472656 C 269.394531 181.105469 268.867188 181.628906 268.457031 182.234375 C 267.203125 184.101562 267.261719 186.5 266.609375 188.632812 C 266.28125 189.710938 265.289062 190.9375 264.242188 190.484375 C 263.828125 190.304688 263.558594 189.902344 263.164062 189.683594 C 262.414062 189.273438 261.414062 189.695312 260.917969 190.390625 C 260.417969 191.082031 260.300781 191.957031 260.1875 192.792969 C 260.058594 193.792969 259.925781 194.792969 259.792969 195.792969 C 259.710938 196.453125 259.753906 197.324219 260.402344 197.515625 C 261.714844 197.902344 262.421875 194.808594 263.546875 195.578125 C 262.613281 198.636719 261.683594 201.691406 260.75 204.75 C 259.816406 204.832031 258.882812 205.007812 257.972656 205.234375 C 255.839844 205.75 253.703125 206.542969 252.109375 208.035156 C 249.78125 210.21875 248.988281 213.523438 248.632812 216.652344 C 248.40625 218.640625 248.308594 220.644531 248.347656 222.644531 C 248.367188 223.921875 248.46875 225.273438 249.234375 226.304688 C 249.996094 227.332031 251.644531 227.828125 252.625 226.984375 C 253.132812 227.453125 254.554688 225.816406 254.507812 224.390625 C 254.464844 222.964844 253.644531 221.65625 253.515625 220.238281 C 253.414062 219.085938 253.773438 217.933594 254.238281 216.867188 C 255.320312 214.355469 257.300781 211.886719 260.058594 211.515625 C 262.222656 211.226562 264.445312 212.382812 265.628906 214.171875 C 266.816406 215.964844 267.023438 218.28125 266.433594 220.347656 C 266.003906 221.863281 265.082031 223.335938 263.628906 224.015625 C 263.203125 224.214844 262.738281 224.347656 262.363281 224.625 C 261.246094 225.449219 261.378906 227.097656 261.628906 228.4375 C 261.679688 228.703125 261.742188 228.992188 261.960938 229.15625 C 262.144531 229.292969 262.390625 229.300781 262.617188 229.296875 C 265.097656 229.246094 267.457031 227.953125 269.066406 226.101562 C 270.683594 224.257812 271.609375 221.902344 272.035156 219.507812 C 272.578125 216.449219 272.328125 213.199219 270.921875 210.425781 C 270.269531 209.148438 269.351562 207.996094 268.253906 207.058594 C 269.066406 205.074219 269.878906 203.085938 270.683594 201.097656 C 270.921875 200.511719 271.1875 199.902344 271.707031 199.550781 C 272.167969 199.242188 272.742188 199.183594 273.285156 199.113281 C 278.160156 198.464844 282.859375 195.757812 285.289062 191.558594 C 287.722656 187.363281 287.5625 181.691406 284.421875 177.992188 " fill-opacity="1" fill-rule="nonzero"/><path fill="#3f3438" d="M 271.464844 181.269531 C 271.167969 180.84375 270.554688 180.707031 270.042969 180.839844 C 269.53125 180.972656 269.105469 181.332031 268.753906 181.722656 C 269.359375 181.476562 270.652344 181.722656 271.085938 182.558594 C 271.59375 182.410156 271.765625 181.699219 271.464844 181.269531 Z M 267.734375 204.871094 C 268.167969 205.3125 268.386719 206.011719 268.105469 206.5625 C 267.828125 206.394531 267.558594 206.226562 267.277344 206.074219 C 265.515625 205.101562 263.496094 204.574219 261.46875 204.570312 C 261.347656 204.570312 261.214844 204.570312 261.113281 204.503906 C 260.792969 204.300781 261.0625 203.730469 261.542969 203.671875 C 263.0625 203.488281 264.617188 203.609375 266.085938 204.023438 C 266.6875 204.199219 267.296875 204.429688 267.734375 204.871094 " fill-opacity="1" fill-rule="nonzero"/><g clip-path="url(#66b61747cd)"><path fill="#bd7c53" d="M 117.316406 230.40625 C 117.621094 228.878906 118.664062 227.324219 119.773438 226.167969 C 122.953125 222.863281 126.335938 219.753906 129.640625 216.570312 C 138.007812 209.667969 146.699219 203.980469 156.039062 199.464844 C 164.222656 195.507812 172.9375 193.441406 182.183594 194.488281 C 189.308594 195.289062 194.851562 198.367188 197.964844 205.042969 C 199.414062 208.136719 200.984375 211.265625 201.785156 214.550781 C 202.535156 217.632812 202.773438 220.984375 202.488281 224.148438 C 201.65625 233.433594 200.09375 242.636719 196.472656 251.292969 C 193.378906 258.691406 189.949219 265.945312 185.339844 272.582031 C 178.894531 281.851562 169.9375 285.277344 158.957031 284.605469 C 152.449219 284.207031 147.09375 281.191406 141.570312 278.164062 C 132.347656 273.105469 126.316406 265.460938 122.550781 255.890625 C 120.621094 250.984375 119.089844 245.914062 117.5 240.878906 C 116.410156 237.4375 116.621094 233.859375 117.316406 230.40625 Z M 206.132812 75.316406 C 200.070312 75.550781 194.113281 76.238281 188.214844 77.886719 C 180.886719 79.925781 173.417969 81.449219 166.007812 83.195312 C 160.6875 83.535156 155.914062 84.042969 151.144531 84.03125 C 143.152344 84.003906 135.390625 82.3125 127.984375 79.398438 C 122.605469 77.285156 118.394531 73.441406 114.875 68.859375 C 112.914062 66.304688 111.855469 63.417969 111.40625 60.25 C 111.035156 57.632812 111.933594 55.667969 114.128906 54.238281 C 118.792969 51.210938 123.882812 49.917969 129.4375 50.335938 C 135.726562 50.8125 141.761719 52.433594 147.734375 54.296875 C 156.3125 56.972656 164.863281 59.746094 173.378906 62.628906 C 186.722656 67.136719 200.320312 70.71875 213.953125 74.199219 C 214.285156 74.285156 214.59375 74.476562 214.84375 74.957031 C 211.941406 75.078125 209.035156 75.203125 206.132812 75.316406 Z M 264.625 224.570312 C 264.519531 223.667969 264.058594 222.644531 263.429688 221.996094 C 261.019531 219.515625 255.671875 219.152344 252.8125 221.109375 C 250.324219 222.808594 249.371094 225.304688 249.238281 228.167969 C 249.039062 232.46875 249.179688 236.800781 248.75 241.078125 C 247.148438 256.953125 246.042969 272.878906 243.382812 288.648438 C 241.535156 299.613281 238.683594 310.277344 234.546875 320.570312 C 232.90625 324.65625 230.867188 328.621094 227.785156 331.851562 C 220.257812 339.738281 210.746094 343.632812 200.117188 344.425781 C 187.941406 345.339844 176.097656 343.351562 164.996094 338.074219 C 160.511719 335.9375 156.03125 333.613281 151.996094 330.742188 C 143.445312 324.664062 135.851562 317.433594 128.722656 309.738281 C 123.933594 304.566406 119.417969 299.191406 116.507812 292.613281 C 112.074219 282.585938 110.59375 271.976562 109.945312 261.179688 C 109.90625 260.503906 110.085938 259.8125 110.226562 258.546875 C 112.105469 262.515625 113.65625 265.890625 115.285156 269.222656 C 117.542969 273.84375 120.488281 277.953125 124.433594 281.308594 C 126.816406 283.332031 129.039062 285.570312 131.523438 287.453125 C 134.15625 289.449219 136.878906 291.414062 139.804688 292.914062 C 147.605469 296.90625 156.054688 297.675781 164.652344 297.242188 C 167.273438 297.109375 169.972656 296.976562 172.476562 296.277344 C 180.519531 294.027344 187.25 289.589844 192.324219 282.910156 C 195.6875 278.480469 198.75 273.816406 201.914062 269.234375 C 207.4375 261.226562 211.0625 252.40625 213.066406 242.90625 C 213.609375 240.320312 214.015625 237.703125 214.449219 235.097656 C 216.148438 224.929688 216.050781 214.960938 212.964844 204.910156 C 210.046875 195.414062 204.082031 188.992188 195.640625 184.511719 C 189.273438 181.132812 182.441406 180.058594 175.222656 180.339844 C 166.285156 180.691406 157.757812 182.378906 149.84375 186.605469 C 139.160156 192.308594 129.402344 199.273438 121.21875 208.300781 C 120.074219 209.558594 118.835938 210.730469 117.644531 211.9375 C 117.394531 210.785156 117.449219 209.90625 117.726562 209.101562 C 119.394531 204.296875 120.898438 199.417969 122.863281 194.738281 C 127.136719 184.558594 134.601562 177.546875 144.882812 173.59375 C 150.992188 171.246094 157.125 168.933594 163.3125 166.792969 C 170.140625 164.433594 177.109375 162.457031 183.90625 160.003906 C 194.203125 156.289062 204.410156 152.328125 214.644531 148.429688 C 228.386719 143.195312 240.441406 135.613281 250.027344 124.144531 C 254.597656 118.683594 257.089844 112.726562 257.601562 105.800781 C 257.78125 103.375 257.96875 100.832031 257.453125 98.496094 C 255.90625 91.433594 251.957031 85.84375 246.15625 81.546875 C 245.34375 80.945312 244.589844 80.269531 243.714844 79.554688 C 244.601562 78.617188 245.25 78.023438 245.796875 77.347656 C 248.78125 73.65625 247.425781 69.152344 242.855469 68.117188 C 240.015625 67.472656 237.066406 67.046875 234.15625 66.992188 C 226.320312 66.84375 218.832031 65.289062 211.632812 62.214844 C 205.160156 59.453125 198.769531 56.460938 192.183594 53.996094 C 176.417969 48.089844 160.152344 43.785156 143.925781 39.375 C 133.976562 36.671875 124.03125 36.898438 114.15625 39.980469 C 106.292969 42.429688 101.996094 47.792969 101.367188 56.035156 C 100.910156 62.050781 102.984375 67.410156 105.628906 72.574219 C 108.980469 79.121094 114.527344 83.316406 120.933594 86.609375 C 129.449219 90.980469 138.59375 92.972656 148.003906 93.625 C 153.640625 94.019531 159.398438 94.179688 164.976562 93.480469 C 175.925781 92.109375 186.792969 90.074219 197.6875 88.296875 C 201.066406 87.746094 204.421875 87.050781 207.808594 86.574219 C 214.929688 85.5625 222.03125 85.546875 229.054688 87.363281 C 233.273438 88.449219 237.175781 90.199219 240.589844 92.945312 C 243.335938 95.152344 244.894531 97.957031 244.789062 101.574219 C 244.746094 103.140625 244.59375 104.730469 244.796875 106.269531 C 245.214844 109.449219 244.28125 112.292969 242.894531 115.019531 C 239.324219 122.015625 234.003906 127.574219 227.273438 131.339844 C 220.128906 135.335938 212.578125 138.652344 205.039062 141.875 C 189.632812 148.460938 173.339844 152.410156 157.457031 157.570312 C 146.246094 161.214844 135.441406 165.6875 126.222656 173.324219 C 121.75 177.027344 117.496094 180.984375 114.714844 186.121094 C 107.417969 199.59375 102.84375 213.804688 103.804688 229.402344 C 103.878906 230.609375 103.402344 231.875 103.058594 233.078125 C 102.738281 234.203125 102.195312 235.261719 101.855469 236.382812 C 99.90625 242.78125 98.8125 249.339844 98.429688 256.015625 C 98.042969 262.789062 98.324219 269.550781 99.902344 276.152344 C 101.105469 281.1875 102.585938 286.175781 104.277344 291.066406 C 109.617188 306.53125 118.226562 319.921875 130.265625 331.019531 C 135.304688 335.667969 140.863281 339.652344 146.792969 343.136719 C 151.867188 346.117188 157.039062 348.875 162.605469 350.785156 C 171.910156 353.976562 181.601562 355.296875 191.3125 356.511719 C 197.078125 357.230469 202.851562 357.050781 208.554688 356.222656 C 218.039062 354.851562 226.460938 350.664062 234.195312 345.214844 C 236.9375 343.28125 239.382812 340.660156 241.300781 337.894531 C 244.546875 333.21875 246.828125 327.957031 248.28125 322.433594 C 250.289062 314.765625 252.078125 307.039062 254 299.113281 C 255.941406 289.289062 258.214844 279.738281 259.65625 270.066406 C 261.660156 256.605469 263.058594 243.054688 264.65625 229.539062 C 264.851562 227.902344 264.816406 226.207031 264.625 224.570312 " fill-opacity="1" fill-rule="nonzero"/></g><path fill="#f6e1c9" d="M 264.367188 240.304688 C 263.804688 237.320312 262.367188 235.726562 259.394531 235.347656 C 256.800781 235.019531 254.15625 234.957031 251.539062 235.019531 C 248.902344 235.082031 248.320312 235.613281 247.765625 238.171875 C 247.226562 240.652344 246.878906 243.175781 246.414062 245.914062 C 246.015625 249.75 245.566406 253.34375 245.316406 256.953125 C 245.1875 258.78125 245.265625 260.65625 245.523438 262.472656 C 245.925781 265.324219 247.769531 267.109375 250.546875 267.457031 C 253.03125 267.769531 255.605469 267.792969 258.097656 267.527344 C 261.3125 267.1875 262.117188 266.363281 262.5 263.070312 C 263.296875 256.269531 263.898438 249.445312 264.546875 242.632812 C 264.617188 241.871094 264.511719 241.066406 264.367188 240.304688 Z M 233.167969 66.859375 C 233.238281 68.125 233.328125 69.417969 233.140625 70.664062 C 232.4375 75.390625 231.816406 80.148438 230.789062 84.8125 C 230.003906 88.394531 228.769531 89.140625 225.199219 89.011719 C 219.910156 88.816406 214.671875 89.183594 209.4375 89.863281 C 207.703125 90.089844 205.929688 90.132812 204.179688 90.09375 C 201.425781 90.023438 200.117188 88.675781 199.972656 85.878906 C 199.933594 85.105469 200.011719 84.3125 200.148438 83.546875 C 201.308594 77.25 201.265625 70.902344 201.027344 64.308594 C 200.804688 62.820312 200.429688 61.570312 200.425781 60.320312 C 200.414062 57.175781 202.296875 55.480469 205.332031 56.089844 C 212.878906 57.609375 220.390625 59.289062 227.917969 60.910156 C 228.207031 60.96875 228.484375 61.0625 228.761719 61.152344 C 232.027344 62.171875 232.960938 63.347656 233.167969 66.859375 " fill-opacity="1" fill-rule="nonzero"/><path fill="#3f3438" d="M 242.96875 77.972656 C 242.625 77.660156 242.113281 77.53125 241.46875 77.25 C 239.234375 77.097656 237.207031 76.914062 235.191406 77.003906 C 234.617188 77.03125 234.074219 77.859375 233.519531 78.320312 C 233.988281 78.863281 234.359375 79.703125 234.941406 79.890625 C 236.6875 80.457031 238.503906 80.871094 240.324219 81.121094 C 241.121094 81.230469 242.074219 80.953125 242.808594 80.566406 C 243.941406 79.964844 243.972656 78.875 242.96875 77.972656 Z M 119.941406 210.351562 C 119.429688 210.269531 118.609375 210.695312 118.273438 211.15625 C 117.84375 211.75 117.664062 212.582031 117.554688 213.339844 C 117.328125 214.878906 117.222656 216.4375 117.046875 218.234375 C 117.214844 221.183594 117.339844 223.894531 117.648438 226.589844 C 117.703125 227.058594 118.542969 227.75 119.035156 227.761719 C 119.460938 227.773438 120.085938 227.035156 120.296875 226.496094 C 120.570312 225.796875 120.558594 224.96875 120.609375 224.195312 C 120.832031 220.792969 121.035156 217.390625 121.230469 213.992188 C 121.273438 213.214844 121.421875 212.386719 121.207031 211.671875 C 121.046875 211.132812 120.441406 210.4375 119.941406 210.351562 Z M 107.128906 255.363281 C 107.242188 256.5 107.707031 257.96875 106.234375 258.371094 C 104.59375 258.824219 104.023438 257.246094 103.777344 256.089844 C 102.9375 252.191406 102.078125 248.277344 101.648438 244.316406 C 101.320312 241.25 101.621094 238.113281 101.75 234.808594 C 103.757812 233.730469 104.3125 233.859375 104.746094 235.664062 C 105.214844 237.652344 105.515625 239.6875 105.746094 241.71875 C 106.253906 246.261719 106.671875 250.816406 107.128906 255.363281 " fill-opacity="1" fill-rule="nonzero"/></svg>