<svg xmlns="http://www.w3.org/2000/svg" xmlns:xlink="http://www.w3.org/1999/xlink" width="500" zoomAndPan="magnify" viewBox="0 0 375 374.999991" height="500" preserveAspectRatio="xMidYMid meet" version="1.0"><rect x="-37.5" width="450" fill="#ffffff" y="-37.499999" height="449.999989" fill-opacity="1"/><rect x="-37.5" width="450" fill="#ffffff" y="-37.499999" height="449.999989" fill-opacity="1"/><path fill="#a84a31" d="M 87.542969 130.382812 C 90.054688 122.414062 96.101562 121.980469 107.308594 116.769531 C 118.515625 111.558594 152.988281 110.378906 167.949219 111.324219 C 182.914062 112.269531 205.433594 115.84375 230.5 122.152344 C 255.566406 128.460938 280.875 143.671875 289.589844 147.710938 C 298.304688 151.753906 305.824219 164.925781 306.277344 166.171875 C 306.726562 167.417969 307.441406 173.859375 307.441406 173.859375 L 298.636719 203.332031 C 301.898438 187.574219 268.644531 164.019531 212.953125 150.953125 C 207.875 149.761719 202.617188 148.65625 197.175781 147.652344 C 132.074219 135.644531 84.53125 145.988281 80.972656 163.179688 C 80.972656 163.179688 85.035156 138.347656 87.542969 130.382812 " fill-opacity="1" fill-rule="nonzero"/><path fill="#d16a47" d="M 84.96875 133.53125 L 78.125 162.65625 C 78.125 162.65625 79.523438 183.539062 114.863281 199.390625 C 150.207031 215.238281 202.839844 228.464844 240.15625 225.65625 C 277.476562 222.847656 290.109375 218.558594 297.09375 209.929688 L 301.484375 203.859375 L 308.332031 174.734375 C 308.332031 174.734375 306.375 183.484375 288.878906 190.035156 C 271.386719 196.589844 227.617188 198.28125 194.558594 193.757812 C 161.5 189.230469 111.582031 166.675781 103.78125 160.09375 C 82.867188 142.449219 84.96875 133.53125 84.96875 133.53125 " fill-opacity="1" fill-rule="nonzero"/><path fill="#d16a47" d="M 219.800781 121.828125 C 214.722656 120.636719 209.460938 119.53125 204.019531 118.527344 C 138.917969 106.519531 91.375 116.863281 87.816406 134.054688 C 84.253906 151.25 124.175781 177.730469 189.277344 189.738281 C 254.378906 201.746094 301.921875 191.402344 305.484375 174.207031 C 308.746094 158.449219 275.488281 134.898438 219.800781 121.828125 Z M 172.921875 190.285156 C 149.519531 184.792969 128.449219 177.074219 112.460938 168.050781 C 98.3125 160.066406 82.054688 147.59375 84.96875 133.53125 C 87.878906 119.46875 107.910156 113.691406 124.207031 111.320312 C 146.617188 108.0625 175.242188 109.269531 204.808594 114.722656 C 234.375 120.179688 261.375 129.230469 280.835938 140.214844 C 294.984375 148.199219 311.242188 160.671875 308.332031 174.734375 C 305.421875 188.796875 285.386719 194.574219 269.09375 196.945312 C 246.683594 200.203125 218.054688 198.996094 188.492188 193.542969 C 183.210938 192.566406 178.011719 191.480469 172.921875 190.285156 " fill-opacity="1" fill-rule="nonzero"/><path fill="#db9c1d" d="M 100.199219 205.691406 C 98.050781 205.1875 96.335938 203.671875 95.5625 201.46875 C 93.515625 195.640625 98.113281 176.273438 101.84375 168.765625 C 106.417969 159.550781 112.394531 160.644531 112.648438 160.695312 C 113.75 160.925781 114.410156 162.320312 114.085938 163.816406 C 113.761719 165.304688 112.609375 166.328125 111.496094 166.125 C 111.128906 166.070312 108.035156 165.78125 105.300781 171.289062 C 101.410156 179.125 98.4375 195.800781 99.445312 198.667969 C 99.839844 199.796875 101.246094 200.511719 102.785156 200.371094 C 103.789062 200.273438 106.300781 199.648438 107.875 195.871094 C 108.457031 194.472656 109.75 193.800781 110.757812 194.382812 C 111.765625 194.960938 112.113281 196.5625 111.527344 197.964844 C 109.621094 202.546875 106.253906 205.492188 102.527344 205.84375 C 101.714844 205.917969 100.933594 205.863281 100.199219 205.691406 " fill-opacity="1" fill-rule="nonzero"/><path fill="#db9c1d" d="M 108.046875 243.796875 C 101.320312 260.070312 87.507812 268.519531 77.191406 262.671875 C 66.878906 256.828125 63.96875 238.898438 70.691406 222.625 C 77.417969 206.355469 91.230469 197.902344 101.546875 203.75 C 111.863281 209.59375 114.773438 227.527344 108.046875 243.796875 " fill-opacity="1" fill-rule="nonzero"/></svg>