<svg xmlns="http://www.w3.org/2000/svg" xmlns:xlink="http://www.w3.org/1999/xlink" width="500" zoomAndPan="magnify" viewBox="0 0 375 374.999991" height="500" preserveAspectRatio="xMidYMid meet" version="1.0"><defs><filter x="0%" y="0%" width="100%" height="100%" id="421710b567"><feColorMatrix values="0 0 0 0 1 0 0 0 0 1 0 0 0 0 1 0 0 0 1 0" color-interpolation-filters="sRGB"/></filter><mask id="9fa3a17fed"><g filter="url(#421710b567)"><rect x="-37.5" width="450" fill="#000000" y="-37.499999" height="449.999989" fill-opacity="0.4"/></g></mask><clipPath id="a9ad3e4d81"><path d="M 0.28125 0.398438 L 12.519531 0.398438 L 12.519531 25.839844 L 0.28125 25.839844 Z M 0.28125 0.398438 " clip-rule="nonzero"/></clipPath><clipPath id="5a56e69fce"><rect x="0" width="13" y="0" height="26"/></clipPath><mask id="ca953839c9"><g filter="url(#421710b567)"><rect x="-37.5" width="450" fill="#000000" y="-37.499999" height="449.999989" fill-opacity="0.2"/></g></mask><clipPath id="3bd6bb2b8c"><path d="M 1 1 L 11.679688 1 L 11.679688 10.160156 L 1 10.160156 Z M 1 1 " clip-rule="nonzero"/></clipPath><clipPath id="9fb3b8bae6"><rect x="0" width="12" y="0" height="11"/></clipPath><clipPath id="3da5230630"><path d="M 147 53 L 302.710938 53 L 302.710938 207 L 147 207 Z M 147 53 " clip-rule="nonzero"/></clipPath><mask id="cbc0e318b8"><g filter="url(#421710b567)"><rect x="-37.5" width="450" fill="#000000" y="-37.499999" height="449.999989" fill-opacity="0.2"/></g></mask><clipPath id="ccdf4aaf52"><path d="M 1 1 L 11 1 L 11 10.160156 L 1 10.160156 Z M 1 1 " clip-rule="nonzero"/></clipPath><clipPath id="a4e1c180ff"><rect x="0" width="12" y="0" height="11"/></clipPath><clipPath id="7a1d55d882"><path d="M 102 113 L 252 113 L 252 340.703125 L 102 340.703125 Z M 102 113 " clip-rule="nonzero"/></clipPath><clipPath id="3e7a2797ea"><path d="M 102 147 L 252 147 L 252 340.703125 L 102 340.703125 Z M 102 147 " clip-rule="nonzero"/></clipPath><mask id="4b36a8b72a"><g filter="url(#421710b567)"><rect x="-37.5" width="450" fill="#000000" y="-37.499999" height="449.999989" fill-opacity="0.3"/></g></mask><clipPath id="0de946e2af"><path d="M 0.558594 1 L 32.960938 1 L 32.960938 33 L 0.558594 33 Z M 0.558594 1 " clip-rule="nonzero"/></clipPath><clipPath id="2c468dcb1b"><rect x="0" width="33" y="0" height="34"/></clipPath><mask id="ddc6b4d7e0"><g filter="url(#421710b567)"><rect x="-37.5" width="450" fill="#000000" y="-37.499999" height="449.999989" fill-opacity="0.3"/></g></mask><clipPath id="8c30cb1ca7"><path d="M 0.121094 5 L 7 5 L 7 12 L 0.121094 12 Z M 0.121094 5 " clip-rule="nonzero"/></clipPath><clipPath id="678a0fa6ac"><path d="M 4 8 L 20 8 L 20 20.921875 L 4 20.921875 Z M 4 8 " clip-rule="nonzero"/></clipPath><clipPath id="f796ff9860"><rect x="0" width="24" y="0" height="21"/></clipPath><mask id="c2ee25d0fb"><g filter="url(#421710b567)"><rect x="-37.5" width="450" fill="#000000" y="-37.499999" height="449.999989" fill-opacity="0.4"/></g></mask><clipPath id="e1d89b49de"><rect x="0" width="12" y="0" height="21"/></clipPath><clipPath id="0900c0804a"><path d="M 198 112 L 302.710938 112 L 302.710938 340.703125 L 198 340.703125 Z M 198 112 " clip-rule="nonzero"/></clipPath><mask id="0e513dca59"><g filter="url(#421710b567)"><rect x="-37.5" width="450" fill="#000000" y="-37.499999" height="449.999989" fill-opacity="0.2"/></g></mask><clipPath id="1bae641fe4"><path d="M 1 0.558594 L 104.640625 0.558594 L 104.640625 228 L 1 228 Z M 1 0.558594 " clip-rule="nonzero"/></clipPath><clipPath id="075ce4e914"><rect x="0" width="105" y="0" height="229"/></clipPath><mask id="6c0285a575"><g filter="url(#421710b567)"><rect x="-37.5" width="450" fill="#000000" y="-37.499999" height="449.999989" fill-opacity="0.1"/></g></mask><clipPath id="7de4728d57"><path d="M 0 1 L 33.839844 1 L 33.839844 69 L 0 69 Z M 0 1 " clip-rule="nonzero"/></clipPath><clipPath id="931af5ee83"><rect x="0" width="34" y="0" height="70"/></clipPath><mask id="02f2a0d757"><g filter="url(#421710b567)"><rect x="-37.5" width="450" fill="#000000" y="-37.499999" height="449.999989" fill-opacity="0.08"/></g></mask><clipPath id="2748223c4c"><path d="M 0.441406 0.441406 L 50 0.441406 L 50 53 L 0.441406 53 Z M 0.441406 0.441406 " clip-rule="nonzero"/></clipPath><clipPath id="a45aef9d96"><rect x="0" width="51" y="0" height="54"/></clipPath><mask id="464075292b"><g filter="url(#421710b567)"><rect x="-37.5" width="450" fill="#000000" y="-37.499999" height="449.999989" fill-opacity="0.4"/></g></mask><clipPath id="073a7206c0"><rect x="0" width="12" y="0" height="22"/></clipPath></defs><rect x="-37.5" width="450" fill="#ffffff" y="-37.499999" height="449.999989" fill-opacity="1"/><rect x="-37.5" width="450" fill="#ffffff" y="-37.499999" height="449.999989" fill-opacity="1"/><g mask="url(#9fa3a17fed)"><g transform="matrix(1, 0, 0, 1, 239, 290)"><g clip-path="url(#5a56e69fce)"><g clip-path="url(#a9ad3e4d81)"><path fill="#bd7c53" d="M 12.246094 13.414062 C 12.234375 15.140625 12.054688 16.855469 11.710938 18.550781 C 7.941406 21.007812 4.324219 23.449219 0.546875 25.675781 C 1.734375 23.910156 2.617188 22.007812 3.203125 19.960938 C 3.726562 17.953125 3.914062 15.917969 3.765625 13.847656 C 3.621094 11.78125 3.144531 9.792969 2.339844 7.878906 C 4.183594 6.554688 5.839844 5.03125 7.308594 3.300781 C 8.015625 2.46875 8.671875 1.597656 9.277344 0.691406 C 11.261719 4.699219 12.25 8.941406 12.246094 13.414062 Z M 12.246094 13.414062 " fill-opacity="1" fill-rule="nonzero"/></g></g></g></g><path fill="#fb6e52" d="M 241.066406 126.957031 L 239.019531 133.535156 C 238.710938 133.507812 238.398438 133.507812 238.089844 133.535156 C 236.738281 133.675781 235.394531 134.175781 234.042969 134.023438 C 233.589844 133.992188 233.183594 133.835938 232.824219 133.558594 L 232.761719 133.507812 C 232.472656 133.1875 232.28125 132.816406 232.179688 132.398438 C 231.992188 131.8125 231.839844 131.21875 231.722656 130.613281 C 231.5625 129.859375 231.460938 129.09375 231.410156 128.324219 C 231.410156 128.148438 231.410156 127.972656 231.410156 127.796875 C 231.394531 127.730469 231.394531 127.660156 231.410156 127.589844 C 231.472656 127.492188 231.5625 127.421875 231.671875 127.378906 C 232.65625 126.847656 233.671875 126.386719 234.722656 125.996094 C 234.925781 125.914062 235.136719 125.84375 235.347656 125.78125 L 235.523438 125.730469 C 236.753906 125.34375 238.011719 125.21875 239.292969 125.363281 C 239.652344 125.398438 239.996094 125.492188 240.324219 125.636719 C 240.417969 125.683594 240.507812 125.738281 240.589844 125.796875 C 240.769531 125.929688 240.914062 126.097656 241.019531 126.292969 C 241.035156 126.347656 241.054688 126.398438 241.078125 126.445312 L 241.078125 126.484375 C 241.117188 126.644531 241.113281 126.800781 241.066406 126.957031 Z M 241.066406 126.957031 " fill-opacity="1" fill-rule="nonzero"/><g mask="url(#ca953839c9)"><g transform="matrix(1, 0, 0, 1, 230, 124)"><g clip-path="url(#9fb3b8bae6)"><g clip-path="url(#3bd6bb2b8c)"><path fill="#bd7c53" d="M 11.066406 2.957031 L 9.019531 9.535156 C 8.710938 9.507812 8.398438 9.507812 8.089844 9.535156 C 6.738281 9.675781 5.394531 10.175781 4.042969 10.023438 C 3.589844 9.992188 3.183594 9.835938 2.824219 9.558594 L 2.761719 9.507812 C 2.472656 9.1875 2.28125 8.816406 2.179688 8.398438 C 1.992188 7.8125 1.839844 7.21875 1.722656 6.613281 C 1.5625 5.859375 1.460938 5.09375 1.410156 4.324219 C 1.410156 4.148438 1.410156 3.972656 1.410156 3.796875 C 1.394531 3.730469 1.394531 3.660156 1.410156 3.589844 C 1.472656 3.492188 1.5625 3.421875 1.671875 3.378906 C 2.65625 2.847656 3.671875 2.386719 4.722656 1.996094 C 4.925781 1.914062 5.136719 1.84375 5.347656 1.78125 L 5.523438 1.730469 C 6.753906 1.34375 8.011719 1.21875 9.292969 1.363281 C 9.652344 1.398438 9.996094 1.492188 10.324219 1.636719 C 10.417969 1.683594 10.507812 1.738281 10.589844 1.796875 C 10.769531 1.929688 10.914062 2.097656 11.019531 2.292969 C 11.035156 2.347656 11.054688 2.398438 11.078125 2.445312 L 11.078125 2.484375 C 11.117188 2.644531 11.113281 2.800781 11.066406 2.957031 Z M 11.066406 2.957031 " fill-opacity="1" fill-rule="nonzero"/></g></g></g></g><path fill="#bd7c53" d="M 234.210938 54.984375 C 234.210938 53.183594 233.554688 44.660156 223.734375 38.859375 C 220.707031 37.15625 217.496094 35.929688 214.105469 35.175781 C 210.714844 34.425781 207.285156 34.179688 203.824219 34.441406 C 192.664062 35.265625 181.8125 41.410156 179.457031 50.003906 C 179.230469 50.875 179.082031 51.761719 179.011719 52.660156 C 178.941406 53.558594 178.949219 54.457031 179.039062 55.355469 C 179.125 56.253906 179.292969 57.136719 179.539062 58.003906 C 179.78125 58.875 180.101562 59.714844 180.492188 60.523438 C 180.886719 61.335938 181.347656 62.109375 181.878906 62.839844 C 182.40625 63.570312 182.996094 64.246094 183.644531 64.875 C 184.292969 65.5 184.992188 66.066406 185.742188 66.566406 C 186.488281 67.070312 187.277344 67.503906 188.101562 67.867188 C 192.789062 70.019531 198.023438 69.714844 203.296875 69.394531 C 211.457031 68.925781 219.234375 66.941406 226.617188 63.433594 C 227.535156 63.15625 228.414062 62.792969 229.257812 62.34375 C 230.453125 61.695312 231.496094 60.855469 232.378906 59.824219 C 233.527344 58.511719 234.140625 56.988281 234.210938 55.246094 Z M 219.445312 59.097656 C 214.691406 61.28125 209.703125 62.511719 204.480469 62.792969 C 201.074219 62.992188 197.742188 63.175781 194.734375 61.839844 C 194.210938 61.625 193.710938 61.367188 193.234375 61.0625 C 192.757812 60.757812 192.3125 60.414062 191.898438 60.03125 C 191.480469 59.648438 191.105469 59.230469 190.765625 58.777344 C 190.425781 58.324219 190.128906 57.847656 189.875 57.339844 C 189.621094 56.835938 189.417969 56.3125 189.257812 55.769531 C 189.097656 55.226562 188.988281 54.675781 188.929688 54.113281 C 188.871094 53.550781 188.859375 52.988281 188.902344 52.425781 C 188.945312 51.859375 189.035156 51.304688 189.179688 50.757812 C 190.703125 45.417969 197.65625 41.601562 204.816406 41.097656 C 207.035156 40.929688 209.230469 41.082031 211.40625 41.550781 C 213.578125 42.015625 215.644531 42.78125 217.597656 43.84375 C 224.191406 47.605469 224.320312 53.222656 224.320312 53.980469 C 224.273438 55.070312 223.882812 56.023438 223.144531 56.832031 C 222.121094 57.933594 220.890625 58.6875 219.445312 59.097656 Z M 219.445312 59.097656 " fill-opacity="1" fill-rule="nonzero"/><path fill="#bd7c53" d="M 157.746094 202.242188 L 158.226562 202.074219 C 158.394531 202.035156 158.347656 202.066406 157.746094 202.242188 Z M 157.746094 202.242188 " fill-opacity="1" fill-rule="nonzero"/><path fill="#bd7c53" d="M 287.507812 99.347656 C 287.617188 99.457031 287.714844 99.570312 287.808594 99.691406 Z M 287.507812 99.347656 " fill-opacity="1" fill-rule="nonzero"/><g clip-path="url(#3da5230630)"><path fill="#bd7c53" d="M 301.597656 177.578125 C 299.765625 172.183594 296.078125 167.511719 292.292969 163.335938 C 288.746094 159.488281 284.886719 155.976562 280.726562 152.796875 C 278.496094 151.058594 276.214844 149.394531 273.933594 147.730469 L 273.566406 147.464844 L 273.191406 147.183594 L 273.300781 147.265625 L 273.148438 147.152344 C 272.734375 146.808594 272.332031 146.480469 271.933594 146.113281 C 271.535156 145.746094 271.171875 145.351562 270.78125 144.96875 C 270.644531 144.808594 270.515625 144.640625 270.371094 144.480469 L 270.550781 144.671875 C 270.453125 144.5625 270.359375 144.445312 270.277344 144.320312 C 270.128906 144.09375 269.988281 143.859375 269.867188 143.617188 C 269.8125 143.527344 269.773438 143.441406 269.726562 143.351562 L 269.652344 143.214844 C 269.648438 143.183594 269.648438 143.15625 269.652344 143.128906 C 269.621094 142.800781 269.621094 142.472656 269.652344 142.144531 C 269.679688 141.972656 269.714844 141.800781 269.765625 141.632812 C 269.769531 141.617188 269.769531 141.597656 269.765625 141.582031 C 269.828125 141.472656 269.875 141.367188 269.925781 141.257812 C 270.078125 140.96875 270.238281 140.695312 270.414062 140.421875 C 270.589844 140.144531 270.660156 140.070312 270.78125 139.894531 L 270.925781 139.71875 C 271.308594 139.269531 271.691406 138.832031 272.132812 138.421875 C 272.574219 138.007812 272.894531 137.710938 273.253906 137.375 L 273.878906 136.839844 L 274.125 136.644531 L 274.167969 136.644531 L 274.597656 136.316406 L 275.277344 135.839844 C 275.757812 135.503906 276.253906 135.183594 276.757812 134.863281 C 280.519531 132.484375 284.59375 130.636719 288.289062 128.148438 C 292.195312 125.53125 295.917969 122.242188 298.207031 118.023438 C 298.914062 116.6875 299.449219 115.289062 299.8125 113.824219 C 300.269531 112.011719 300.445312 110.171875 300.332031 108.304688 C 300.21875 106.4375 299.824219 104.632812 299.148438 102.890625 C 297.261719 98.019531 294.074219 93.960938 290.609375 90.105469 C 287.617188 86.773438 284.445312 83.625 281.089844 80.660156 C 274.332031 74.6875 266.996094 69.535156 259.085938 65.199219 C 251.175781 60.863281 242.882812 57.453125 234.210938 54.972656 L 232.625 54.527344 C 231.554688 54.238281 230.488281 53.972656 229.410156 53.710938 C 227.28125 53.199219 224.773438 54.382812 224.261719 56.632812 C 224.121094 57.167969 224.089844 57.710938 224.160156 58.257812 C 224.234375 58.804688 224.40625 59.320312 224.679688 59.800781 C 224.953125 60.28125 225.304688 60.695312 225.738281 61.039062 C 226.171875 61.378906 226.652344 61.628906 227.183594 61.785156 C 227.878906 61.953125 228.570312 62.121094 229.257812 62.304688 C 234.011719 63.535156 238.667969 65.058594 243.222656 66.882812 L 244.835938 67.546875 L 244.789062 67.546875 L 245.179688 67.707031 C 245.542969 67.859375 245.902344 68.027344 246.261719 68.1875 C 247.527344 68.746094 248.78125 69.332031 250.03125 69.9375 C 252.511719 71.15625 254.960938 72.453125 257.351562 73.84375 C 259.738281 75.230469 262.164062 76.742188 264.484375 78.324219 C 265.628906 79.101562 266.761719 79.898438 267.882812 80.710938 C 268.453125 81.140625 269.027344 81.558594 269.589844 81.992188 L 269.859375 82.199219 L 269.910156 82.199219 L 269.996094 82.269531 L 270.589844 82.734375 C 274.96875 86.199219 279.070312 89.964844 282.898438 94.027344 C 283.960938 95.15625 285 96.316406 286.007812 97.46875 C 286.539062 98.089844 287.066406 98.714844 287.578125 99.355469 L 287.800781 99.652344 L 287.882812 99.746094 L 287.832031 99.691406 C 288.074219 100.019531 288.320312 100.363281 288.546875 100.699219 C 289.492188 102.039062 290.3125 103.453125 291.011719 104.933594 L 291.011719 104.996094 L 291.121094 105.269531 C 291.242188 105.605469 291.355469 105.941406 291.460938 106.285156 C 291.65625 106.902344 291.804688 107.53125 291.914062 108.167969 C 291.988281 109 291.988281 109.828125 291.914062 110.65625 C 291.824219 111.171875 291.707031 111.679688 291.5625 112.183594 C 291.5 112.375 291.433594 112.566406 291.371094 112.757812 L 291.210938 113.199219 L 291.027344 113.542969 C 290.730469 114.121094 290.398438 114.679688 290.035156 115.222656 C 289.9375 115.375 289.828125 115.519531 289.714844 115.671875 C 289.742188 115.632812 289.761719 115.585938 289.777344 115.542969 C 289.777344 115.542969 289.667969 115.6875 289.457031 116.03125 L 289.683594 115.710938 C 289.625 115.808594 289.5625 115.902344 289.492188 115.992188 L 289.417969 116.105469 C 289.4375 116.082031 289.449219 116.058594 289.464844 116.03125 C 289.347656 116.175781 289.21875 116.320312 289.097656 116.464844 C 288.101562 117.585938 287.019531 118.621094 285.855469 119.5625 L 285.671875 119.714844 L 284.753906 120.378906 C 284.082031 120.851562 283.390625 121.304688 282.6875 121.730469 C 277.015625 125.226562 270.710938 127.835938 265.988281 132.695312 C 263.058594 135.703125 260.800781 139.527344 261.410156 143.863281 C 261.898438 147.472656 264.15625 150.433594 266.898438 152.707031 C 268.292969 153.875 269.78125 154.925781 271.261719 155.996094 C 271.902344 156.460938 272.542969 156.925781 273.183594 157.40625 L 274.183594 158.171875 L 275.046875 158.835938 C 275.046875 158.835938 275.046875 158.835938 275.085938 158.871094 C 275.125 158.910156 275.085938 158.871094 275.085938 158.871094 C 277.605469 160.886719 280.085938 162.933594 282.417969 165.152344 C 283.777344 166.445312 285.097656 167.777344 286.355469 169.167969 C 287.027344 169.929688 287.683594 170.695312 288.320312 171.457031 C 288.578125 171.769531 288.828125 172.089844 289.082031 172.402344 C 289.570312 173.167969 289.402344 172.863281 289.21875 172.59375 L 289.515625 172.96875 C 290.683594 174.488281 291.71875 176.089844 292.628906 177.777344 C 292.828125 178.148438 293.019531 178.539062 293.195312 178.921875 C 293.210938 178.941406 293.222656 178.964844 293.234375 178.988281 C 293.234375 179.066406 293.300781 179.164062 293.324219 179.242188 C 293.277344 179.140625 293.242188 179.035156 293.195312 178.921875 C 293.386719 179.53125 293.386719 179.453125 293.332031 179.265625 C 293.332031 179.332031 293.386719 179.417969 293.417969 179.484375 C 293.691406 180.253906 293.902344 181.039062 294.050781 181.84375 C 294.089844 182.410156 294.089844 182.972656 294.050781 183.539062 C 293.984375 183.875 293.902344 184.210938 293.796875 184.539062 C 293.761719 184.660156 293.707031 184.765625 293.675781 184.882812 L 293.675781 184.925781 C 293.597656 185.050781 293.515625 185.171875 293.453125 185.277344 C 293.324219 185.515625 293.171875 185.742188 293.019531 185.972656 L 292.8125 186.261719 C 292.769531 186.324219 292.726562 186.390625 292.691406 186.460938 L 293.035156 185.988281 C 292.898438 186.40625 292.226562 186.910156 291.90625 187.222656 C 291.585938 187.535156 291.097656 187.988281 290.675781 188.351562 L 290.042969 188.878906 L 289.882812 189.007812 C 289.035156 189.621094 288.179688 190.222656 287.289062 190.765625 C 286.394531 191.308594 285.433594 191.847656 284.472656 192.328125 C 283.992188 192.574219 283.503906 192.800781 283.015625 193.023438 L 282.792969 193.128906 L 282.753906 193.128906 L 282.328125 193.296875 C 280.265625 194.113281 278.160156 194.785156 276.007812 195.3125 C 273.726562 195.875 271.417969 196.320312 269.085938 196.648438 C 262.144531 197.425781 255.183594 197.746094 248.199219 197.609375 C 240.109375 197.570312 232.015625 197.175781 223.953125 196.417969 C 219.863281 196.03125 215.789062 195.542969 211.746094 195.007812 L 211.074219 194.917969 L 210.523438 194.847656 L 209.257812 194.671875 L 202.289062 193.703125 C 196.582031 192.941406 190.84375 192.175781 185.117188 191.664062 C 177.234375 190.972656 169.207031 190.621094 161.398438 192.253906 C 157.492188 193.085938 153.839844 194.554688 150.441406 196.65625 C 150.089844 196.871094 149.738281 197.097656 149.394531 197.328125 C 147.585938 198.554688 146.617188 201.074219 147.871094 203.058594 C 148.976562 204.785156 151.417969 205.777344 153.324219 204.714844 C 153.417969 204.667969 153.507812 204.613281 153.59375 204.554688 C 154.652344 203.839844 155.757812 203.199219 156.90625 202.632812 C 157.164062 202.503906 157.429688 202.378906 157.667969 202.265625 L 157.613281 202.265625 L 157.738281 202.265625 C 157.875 202.210938 158.019531 202.164062 158.164062 202.128906 C 158.578125 201.96875 158.988281 201.792969 159.402344 201.648438 C 161.589844 200.921875 163.832031 200.398438 166.117188 200.074219 C 171.132812 199.554688 176.15625 199.503906 181.179688 199.929688 C 187.164062 200.335938 193.117188 201.050781 199.054688 201.851562 L 199.542969 201.914062 L 205.121094 202.675781 L 207.730469 203.027344 C 216.605469 204.210938 225.488281 205.316406 234.441406 205.777344 C 240.410156 206.101562 246.382812 206.234375 252.359375 206.171875 C 257.589844 206.167969 262.804688 205.894531 268.003906 205.347656 C 278.449219 204.144531 288.898438 201.273438 296.933594 194.144531 C 299.308594 192.144531 300.972656 189.667969 301.925781 186.710938 C 302.335938 185.207031 302.515625 183.679688 302.460938 182.121094 C 302.402344 180.5625 302.117188 179.046875 301.597656 177.578125 Z M 291.449219 112.808594 C 291.421875 112.902344 291.386719 112.992188 291.339844 113.078125 C 291.386719 113 291.425781 112.886719 291.449219 112.839844 Z M 269.964844 141.191406 L 269.804688 141.535156 C 269.84375 141.414062 269.898438 141.300781 269.964844 141.191406 Z M 269.558594 142.511719 L 269.558594 142.585938 C 269.558594 142.5625 269.558594 142.535156 269.558594 142.511719 Z M 269.691406 143.320312 C 269.773438 143.496094 269.925781 143.824219 269.925781 143.839844 C 269.796875 143.6875 269.71875 143.515625 269.691406 143.320312 Z M 282.335938 193.457031 L 282.695312 193.3125 C 282.578125 193.367188 282.457031 193.417969 282.335938 193.457031 Z M 293.78125 184.910156 C 293.835938 184.757812 293.898438 184.582031 293.914062 184.554688 C 293.886719 184.679688 293.847656 184.796875 293.789062 184.910156 Z M 293.78125 184.910156 " fill-opacity="1" fill-rule="nonzero"/></g><path fill="#fb6e52" d="M 111.277344 126.957031 C 111.242188 126.730469 111.273438 126.511719 111.367188 126.304688 C 111.464844 126.09375 111.609375 125.929688 111.804688 125.804688 C 112.199219 125.546875 112.628906 125.402344 113.101562 125.371094 C 114.445312 125.222656 115.761719 125.363281 117.046875 125.789062 C 118.308594 126.210938 119.527344 126.742188 120.695312 127.386719 C 120.804688 127.425781 120.886719 127.5 120.945312 127.597656 C 120.957031 127.667969 120.957031 127.738281 120.945312 127.804688 C 120.878906 129.378906 120.613281 130.917969 120.144531 132.421875 C 120.042969 132.839844 119.847656 133.207031 119.5625 133.527344 C 119.195312 133.84375 118.765625 134.015625 118.28125 134.046875 C 116.617188 134.230469 114.976562 133.429688 113.304688 133.535156 Z M 111.277344 126.957031 " fill-opacity="1" fill-rule="nonzero"/><g mask="url(#cbc0e318b8)"><g transform="matrix(1, 0, 0, 1, 110, 124)"><g clip-path="url(#a4e1c180ff)"><g clip-path="url(#ccdf4aaf52)"><path fill="#bd7c53" d="M 1.277344 2.957031 C 1.242188 2.730469 1.273438 2.511719 1.367188 2.304688 C 1.464844 2.09375 1.609375 1.929688 1.804688 1.804688 C 2.199219 1.546875 2.628906 1.402344 3.101562 1.371094 C 4.445312 1.222656 5.761719 1.363281 7.046875 1.789062 C 8.308594 2.210938 9.527344 2.742188 10.695312 3.386719 C 10.804688 3.425781 10.886719 3.5 10.945312 3.597656 C 10.957031 3.667969 10.957031 3.738281 10.945312 3.804688 C 10.878906 5.378906 10.613281 6.917969 10.144531 8.421875 C 10.042969 8.839844 9.847656 9.207031 9.5625 9.527344 C 9.195312 9.84375 8.765625 10.015625 8.28125 10.046875 C 6.617188 10.230469 4.976562 9.429688 3.304688 9.535156 Z M 1.277344 2.957031 " fill-opacity="1" fill-rule="nonzero"/></g></g></g></g><g clip-path="url(#7a1d55d882)"><path fill="#5f433d" d="M 251.246094 303.414062 C 251.160156 313.640625 245.351562 320.683594 242.988281 323.460938 C 234.050781 333.96875 221.773438 336.855469 207.21875 339.179688 C 205.257812 339.496094 202.480469 339.761719 199.167969 339.984375 C 183.804688 341.003906 156.964844 340.945312 146.695312 339.179688 C 132.195312 336.695312 119.863281 333.96875 110.925781 323.460938 C 108.988281 321.171875 104.707031 316.003906 103.203125 308.542969 C 102.863281 306.847656 102.6875 305.140625 102.675781 303.414062 C 102.660156 298.925781 103.652344 294.675781 105.652344 290.660156 C 106.570312 288.765625 107.671875 286.984375 108.964844 285.320312 C 113.542969 279.472656 117.304688 279.265625 123.503906 274.703125 C 132.980469 267.726562 137.109375 258.640625 141.589844 248.757812 C 144.886719 241.484375 148.136719 234.316406 149.21875 226.054688 C 149.636719 222.886719 149.714844 219.710938 149.449219 216.527344 C 149.378906 215.765625 149.304688 215.003906 149.203125 214.308594 C 147.519531 201.648438 140.75 192.320312 132.933594 181.546875 C 129.148438 176.335938 124.980469 171.449219 120.425781 166.894531 C 118.921875 165.394531 117.679688 163.703125 116.703125 161.820312 C 115.726562 159.933594 115.058594 157.945312 114.703125 155.851562 C 114.359375 153.808594 114.132812 151.753906 114.03125 149.683594 C 113.898438 147.101562 113.964844 144.527344 114.238281 141.953125 C 114.449219 139.9375 114.789062 137.9375 115.253906 135.964844 C 115.414062 135.269531 115.582031 134.542969 115.765625 133.796875 C 116.128906 132.332031 116.527344 130.742188 117.078125 129.21875 C 117.414062 128.21875 117.785156 127.21875 118.222656 126.226562 C 118.394531 125.828125 118.578125 125.433594 118.769531 125.035156 C 119.582031 123.261719 120.625 121.636719 121.898438 120.15625 C 123.167969 118.679688 124.621094 117.40625 126.257812 116.34375 C 131.707031 112.894531 137.460938 113.222656 143.9375 113.589844 C 154.441406 114.183594 159.355469 117.960938 173.417969 118.304688 C 174.65625 118.304688 175.707031 118.304688 176.5625 118.304688 L 177.328125 118.304688 C 178.167969 118.304688 179.234375 118.304688 180.472656 118.304688 C 194.542969 117.960938 199.457031 114.183594 209.953125 113.589844 C 212.589844 113.382812 215.230469 113.332031 217.871094 113.425781 L 218.390625 113.464844 L 218.773438 113.464844 L 219.535156 113.535156 L 220.34375 113.648438 L 220.695312 113.703125 L 221.460938 113.847656 L 222.175781 114 L 222.214844 114 L 222.6875 114.121094 C 223.214844 114.265625 223.742188 114.425781 224.261719 114.617188 L 224.328125 114.617188 C 225.5 115.054688 226.613281 115.605469 227.671875 116.273438 C 229.375 117.351562 230.863281 118.671875 232.144531 120.226562 L 232.386719 120.523438 C 232.691406 120.914062 232.984375 121.289062 233.257812 121.707031 L 233.339844 121.824219 L 233.625 122.257812 C 233.667969 122.324219 233.722656 122.402344 233.761719 122.472656 C 234.019531 122.867188 234.257812 123.234375 234.484375 123.683594 C 234.601562 123.898438 234.722656 124.113281 234.828125 124.332031 L 235.050781 124.769531 C 235.203125 125.066406 235.347656 125.363281 235.476562 125.667969 C 235.609375 125.972656 235.753906 126.285156 235.882812 126.59375 C 236.132812 127.1875 236.359375 127.78125 236.570312 128.378906 C 237.195312 130.125 237.675781 131.867188 238.097656 133.492188 C 238.300781 134.332031 238.492188 135.140625 238.675781 135.910156 C 239.558594 139.691406 239.984375 143.519531 239.957031 147.402344 C 239.929688 150.222656 239.675781 153.019531 239.195312 155.796875 C 238.84375 157.898438 238.183594 159.894531 237.210938 161.789062 C 236.238281 163.683594 235 165.386719 233.496094 166.894531 C 228.933594 171.453125 224.757812 176.347656 220.972656 181.570312 C 217.582031 186.238281 214.394531 190.644531 211.730469 195.152344 C 210.226562 197.664062 208.914062 200.269531 207.785156 202.96875 C 205.964844 207.320312 204.855469 211.847656 204.464844 216.550781 C 203.417969 229.136719 207.828125 238.859375 212.324219 248.777344 C 216.820312 258.699219 220.925781 267.742188 230.402344 274.726562 C 236.609375 279.304688 240.402344 279.496094 244.949219 285.339844 C 246.964844 287.921875 248.515625 290.761719 249.59375 293.855469 C 250.671875 296.949219 251.222656 300.136719 251.246094 303.414062 Z M 251.246094 303.414062 " fill-opacity="1" fill-rule="nonzero"/></g><path fill="#fb6e52" d="M 235.882812 126.660156 C 235.492188 126.4375 235.121094 126.21875 234.675781 126.003906 C 233.003906 125.105469 231.273438 124.320312 229.496094 123.652344 C 225.65625 122.191406 221.683594 121.40625 217.574219 121.304688 C 209.347656 121.121094 208.019531 124.058594 195.566406 126.019531 C 180.828125 128.308594 168.277344 126.5 157.835938 124.964844 C 141.96875 122.675781 139.320312 119.992188 130.585938 121.304688 C 126.453125 121.933594 122.515625 123.171875 118.769531 125.019531 C 119.582031 123.246094 120.625 121.621094 121.898438 120.140625 C 123.167969 118.664062 124.621094 117.394531 126.257812 116.328125 C 131.707031 112.878906 137.460938 113.207031 143.9375 113.574219 C 154.441406 114.167969 159.355469 117.945312 173.417969 118.289062 C 174.65625 118.289062 175.707031 118.289062 176.5625 118.289062 L 177.328125 118.289062 C 178.167969 118.289062 179.234375 118.289062 180.472656 118.289062 C 194.542969 117.945312 199.457031 114.167969 209.953125 113.574219 C 212.589844 113.367188 215.230469 113.316406 217.871094 113.414062 L 218.390625 113.449219 L 218.773438 113.449219 L 219.535156 113.519531 L 220.34375 113.632812 L 220.695312 113.6875 L 221.460938 113.832031 L 222.175781 113.984375 L 222.214844 113.984375 L 222.6875 114.105469 C 223.214844 114.25 223.742188 114.414062 224.261719 114.601562 L 224.328125 114.601562 C 225.5 115.039062 226.613281 115.589844 227.671875 116.257812 C 229.375 117.335938 230.863281 118.65625 232.144531 120.210938 L 232.386719 120.507812 C 232.691406 120.898438 232.984375 121.273438 233.257812 121.691406 L 233.339844 121.808594 L 233.625 122.242188 C 233.667969 122.3125 233.722656 122.386719 233.761719 122.457031 C 234.019531 122.851562 234.257812 123.21875 234.484375 123.667969 C 234.601562 123.882812 234.722656 124.097656 234.828125 124.316406 L 235.050781 124.753906 C 235.203125 125.050781 235.347656 125.347656 235.476562 125.652344 C 235.609375 125.957031 235.753906 126.355469 235.882812 126.660156 Z M 235.882812 126.660156 " fill-opacity="1" fill-rule="nonzero"/><g clip-path="url(#3e7a2797ea)"><path fill="#fb6e52" d="M 251.246094 303.414062 C 251.160156 313.640625 245.351562 320.683594 242.988281 323.460938 C 234.050781 333.96875 221.773438 336.855469 207.21875 339.179688 C 205.257812 339.496094 202.480469 339.761719 199.167969 339.984375 C 183.804688 341.003906 156.964844 340.945312 146.695312 339.179688 C 132.195312 336.695312 119.863281 333.96875 110.925781 323.460938 C 108.988281 321.171875 104.707031 316.003906 103.203125 308.542969 C 102.863281 306.847656 102.6875 305.140625 102.675781 303.414062 C 102.660156 298.925781 103.652344 294.675781 105.652344 290.660156 C 106.570312 288.765625 107.671875 286.984375 108.964844 285.320312 C 113.542969 279.472656 117.304688 279.265625 123.503906 274.703125 C 132.980469 267.726562 137.109375 258.640625 141.589844 248.757812 C 144.886719 241.484375 148.136719 234.316406 149.21875 226.054688 C 149.636719 222.886719 149.714844 219.710938 149.449219 216.527344 C 149.378906 215.765625 149.304688 215.003906 149.203125 214.308594 C 147.519531 201.648438 140.75 192.320312 132.933594 181.546875 C 129.148438 176.335938 124.980469 171.449219 120.425781 166.894531 C 118.921875 165.394531 117.679688 163.703125 116.703125 161.820312 C 115.726562 159.933594 115.058594 157.945312 114.703125 155.851562 C 114.359375 153.808594 114.132812 151.753906 114.03125 149.683594 C 115.207031 150.722656 116.527344 151.90625 118 153.257812 C 124.105469 158.859375 127.195312 161.652344 130.058594 164.789062 C 138.800781 174.164062 145.597656 184.785156 150.441406 196.65625 C 151.003906 198.054688 151.546875 199.496094 152.066406 200.976562 C 152.507812 202.238281 152.9375 203.484375 153.355469 204.714844 C 155.769531 211.851562 157.644531 218.726562 157.308594 227.699219 C 156.546875 248.566406 144.601562 263.179688 141.0625 267.53125 C 136.972656 272.339844 132.605469 276.886719 127.957031 281.160156 C 118.039062 290.265625 114.144531 291.347656 111.710938 296.871094 L 111.597656 297.140625 C 109.367188 302.480469 109.796875 308.722656 111.597656 313.988281 C 112.175781 315.695312 112.917969 317.324219 113.824219 318.882812 C 120.128906 329.566406 133.613281 331.296875 158.371094 334.074219 C 179.160156 336.402344 196.046875 338.113281 214.386719 331.542969 C 215.789062 331.035156 217.207031 330.480469 218.636719 329.886719 C 227.503906 326.125 239.066406 321.027344 242.21875 309.96875 C 245.1875 299.574219 236.8125 289.988281 235.667969 288.355469 C 232.738281 284.160156 229.617188 281.738281 225.945312 279.113281 C 221.492188 276.113281 217.304688 272.773438 213.394531 269.09375 C 201.359375 257.515625 198.953125 241.78125 197.671875 233.457031 C 196.871094 228.179688 196.632812 222.878906 196.960938 217.554688 C 197.285156 212.230469 198.164062 207 199.601562 201.859375 C 200.359375 199.144531 201.25 196.472656 202.28125 193.847656 C 202.320312 193.773438 202.34375 193.695312 202.375 193.625 C 208.140625 178.792969 216.933594 169.535156 224.910156 161.132812 C 227.007812 158.917969 229.082031 156.882812 231.089844 155.027344 C 234.242188 152.105469 237.242188 149.59375 239.949219 147.480469 C 239.921875 150.296875 239.667969 153.097656 239.1875 155.875 C 238.832031 157.960938 238.167969 159.945312 237.195312 161.824219 C 236.222656 163.707031 234.992188 165.394531 233.496094 166.894531 C 228.933594 171.453125 224.757812 176.347656 220.972656 181.570312 C 217.582031 186.238281 214.394531 190.644531 211.730469 195.152344 C 210.226562 197.664062 208.914062 200.269531 207.785156 202.96875 C 205.964844 207.320312 204.855469 211.847656 204.464844 216.550781 C 203.417969 229.136719 207.828125 238.859375 212.324219 248.777344 C 216.820312 258.699219 220.925781 267.742188 230.402344 274.726562 C 236.609375 279.304688 240.402344 279.496094 244.949219 285.339844 C 246.964844 287.921875 248.515625 290.761719 249.59375 293.855469 C 250.671875 296.949219 251.222656 300.136719 251.246094 303.414062 Z M 251.246094 303.414062 " fill-opacity="1" fill-rule="nonzero"/></g><path fill="#fb6e52" d="M 108.117188 136.839844 C 108.867188 133.167969 109.972656 129.609375 111.4375 126.15625 C 111.480469 126.03125 111.550781 125.921875 111.652344 125.832031 C 111.753906 125.742188 111.867188 125.683594 112 125.65625 C 112.132812 125.628906 112.261719 125.632812 112.390625 125.671875 C 112.515625 125.714844 112.628906 125.785156 112.71875 125.882812 C 115.542969 128.828125 118.496094 130.246094 123.28125 131.332031 C 123.582031 131.421875 123.820312 131.597656 123.996094 131.859375 C 124.167969 132.125 124.234375 132.414062 124.195312 132.726562 C 123.9375 135.972656 123.601562 139.519531 123.105469 142.734375 C 123.09375 142.890625 123.050781 143.035156 122.976562 143.175781 C 122.90625 143.316406 122.808594 143.433594 122.6875 143.535156 C 122.566406 143.632812 122.433594 143.707031 122.28125 143.75 C 122.132812 143.796875 121.980469 143.808594 121.824219 143.792969 C 117.023438 143.03125 112.039062 141.960938 108.476562 138.277344 C 108.300781 138.113281 108.171875 137.925781 108.085938 137.703125 C 108.023438 137.414062 108.035156 137.125 108.117188 136.839844 Z M 108.117188 136.839844 " fill-opacity="1" fill-rule="nonzero"/><g mask="url(#4b36a8b72a)"><g transform="matrix(1, 0, 0, 1, 160, 140)"><g clip-path="url(#2c468dcb1b)"><g clip-path="url(#0de946e2af)"><path fill="#bd7c53" d="M 32.421875 16.867188 C 32.421875 17.898438 32.320312 18.921875 32.121094 19.933594 C 31.917969 20.945312 31.621094 21.929688 31.226562 22.882812 C 30.828125 23.835938 30.347656 24.742188 29.773438 25.601562 C 29.199219 26.457031 28.546875 27.253906 27.816406 27.980469 C 27.085938 28.710938 26.292969 29.363281 25.433594 29.9375 C 24.578125 30.511719 23.671875 30.996094 22.71875 31.390625 C 21.761719 31.785156 20.78125 32.082031 19.769531 32.285156 C 18.753906 32.484375 17.734375 32.585938 16.699219 32.585938 C 15.667969 32.585938 14.644531 32.484375 13.632812 32.285156 C 12.621094 32.082031 11.636719 31.785156 10.683594 31.390625 C 9.730469 30.996094 8.824219 30.511719 7.96875 29.9375 C 7.109375 29.363281 6.316406 28.710938 5.585938 27.980469 C 4.855469 27.253906 4.203125 26.457031 3.628906 25.601562 C 3.054688 24.742188 2.570312 23.835938 2.175781 22.882812 C 1.78125 21.929688 1.484375 20.945312 1.28125 19.933594 C 1.082031 18.921875 0.980469 17.898438 0.980469 16.867188 C 0.980469 15.832031 1.082031 14.8125 1.28125 13.800781 C 1.484375 12.785156 1.78125 11.804688 2.175781 10.851562 C 2.570312 9.894531 3.054688 8.988281 3.628906 8.132812 C 4.203125 7.273438 4.855469 6.480469 5.585938 5.75 C 6.316406 5.019531 7.109375 4.367188 7.96875 3.792969 C 8.824219 3.222656 9.730469 2.738281 10.683594 2.34375 C 11.636719 1.945312 12.621094 1.648438 13.632812 1.445312 C 14.644531 1.246094 15.667969 1.144531 16.699219 1.144531 C 17.734375 1.144531 18.753906 1.246094 19.769531 1.445312 C 20.78125 1.648438 21.761719 1.945312 22.71875 2.34375 C 23.671875 2.738281 24.578125 3.222656 25.433594 3.792969 C 26.292969 4.367188 27.085938 5.019531 27.816406 5.75 C 28.546875 6.480469 29.199219 7.273438 29.773438 8.132812 C 30.347656 8.988281 30.828125 9.894531 31.226562 10.851562 C 31.621094 11.804688 31.917969 12.785156 32.121094 13.800781 C 32.320312 14.8125 32.421875 15.832031 32.421875 16.867188 Z M 32.421875 16.867188 " fill-opacity="1" fill-rule="nonzero"/></g></g></g></g><path fill="#fb6e52" d="M 192.421875 155.140625 C 192.421875 156.171875 192.320312 157.195312 192.121094 158.207031 C 191.917969 159.21875 191.621094 160.203125 191.226562 161.15625 C 190.828125 162.109375 190.347656 163.015625 189.773438 163.875 C 189.199219 164.734375 188.546875 165.527344 187.816406 166.257812 C 187.085938 166.988281 186.292969 167.640625 185.433594 168.210938 C 184.578125 168.785156 183.671875 169.269531 182.71875 169.664062 C 181.761719 170.058594 180.78125 170.359375 179.769531 170.558594 C 178.753906 170.761719 177.734375 170.863281 176.699219 170.863281 C 175.667969 170.863281 174.644531 170.761719 173.632812 170.558594 C 172.621094 170.359375 171.636719 170.058594 170.683594 169.664062 C 169.730469 169.269531 168.824219 168.785156 167.96875 168.210938 C 167.109375 167.640625 166.316406 166.988281 165.585938 166.257812 C 164.855469 165.527344 164.203125 164.734375 163.628906 163.875 C 163.054688 163.015625 162.570312 162.109375 162.175781 161.15625 C 161.78125 160.203125 161.484375 159.21875 161.28125 158.207031 C 161.082031 157.195312 160.980469 156.171875 160.980469 155.140625 C 160.980469 154.109375 161.082031 153.085938 161.28125 152.074219 C 161.484375 151.0625 161.78125 150.078125 162.175781 149.125 C 162.570312 148.171875 163.054688 147.265625 163.628906 146.40625 C 164.203125 145.550781 164.855469 144.753906 165.585938 144.023438 C 166.316406 143.296875 167.109375 142.644531 167.96875 142.070312 C 168.824219 141.496094 169.730469 141.011719 170.683594 140.617188 C 171.636719 140.222656 172.621094 139.925781 173.632812 139.722656 C 174.644531 139.519531 175.667969 139.421875 176.699219 139.421875 C 177.734375 139.421875 178.753906 139.519531 179.769531 139.722656 C 180.78125 139.925781 181.761719 140.222656 182.71875 140.617188 C 183.671875 141.011719 184.578125 141.496094 185.433594 142.070312 C 186.292969 142.644531 187.085938 143.296875 187.816406 144.023438 C 188.546875 144.753906 189.199219 145.550781 189.773438 146.40625 C 190.347656 147.265625 190.828125 148.171875 191.226562 149.125 C 191.621094 150.078125 191.917969 151.0625 192.121094 152.074219 C 192.320312 153.085938 192.421875 154.109375 192.421875 155.140625 Z M 192.421875 155.140625 " fill-opacity="1" fill-rule="nonzero"/><g mask="url(#ddc6b4d7e0)"><g transform="matrix(1, 0, 0, 1, 165, 143)"><g clip-path="url(#f796ff9860)"><path fill="#ffffff" d="M 21.957031 9.769531 C 21.058594 11.210938 19.425781 11.78125 18.308594 11.035156 C 17.960938 10.796875 17.707031 10.484375 17.546875 10.097656 C 17.359375 9.585938 17.300781 9.0625 17.363281 8.527344 C 17.429688 7.988281 17.609375 7.492188 17.914062 7.042969 C 18.8125 5.59375 20.445312 5.027344 21.5625 5.777344 C 21.773438 5.921875 21.953125 6.097656 22.09375 6.3125 C 22.410156 6.851562 22.554688 7.433594 22.527344 8.058594 C 22.503906 8.683594 22.3125 9.253906 21.957031 9.769531 Z M 21.957031 9.769531 " fill-opacity="1" fill-rule="nonzero"/><path fill="#ffffff" d="M 16.945312 5.273438 C 16.683594 6.050781 16.210938 6.660156 15.523438 7.105469 C 14.945312 7.484375 14.324219 7.5625 13.667969 7.339844 C 13.347656 7.222656 13.078125 7.035156 12.851562 6.777344 C 12.507812 6.324219 12.292969 5.816406 12.21875 5.25 C 12.140625 4.683594 12.210938 4.136719 12.425781 3.609375 C 12.6875 2.84375 13.152344 2.234375 13.824219 1.785156 C 14.417969 1.375 15.058594 1.28125 15.746094 1.503906 C 16.148438 1.65625 16.472656 1.910156 16.714844 2.265625 C 16.992188 2.71875 17.152344 3.210938 17.191406 3.742188 C 17.234375 4.273438 17.152344 4.78125 16.945312 5.273438 Z M 16.945312 5.273438 " fill-opacity="1" fill-rule="nonzero"/><g clip-path="url(#8c30cb1ca7)"><path fill="#ffffff" d="M 5.246094 11.355469 L 5.136719 11.425781 C 4.0625 12.125 2.480469 11.628906 1.542969 10.273438 C 0.605469 8.914062 0.65625 7.082031 1.734375 6.28125 C 2.046875 6.050781 2.394531 5.925781 2.78125 5.898438 C 3.320312 5.894531 3.828125 6.023438 4.300781 6.28125 C 4.773438 6.542969 5.152344 6.90625 5.433594 7.363281 C 6.414062 8.769531 6.320312 10.554688 5.246094 11.355469 Z M 5.246094 11.355469 " fill-opacity="1" fill-rule="nonzero"/></g><path fill="#ffffff" d="M 9.832031 7.425781 L 9.738281 7.472656 C 8.503906 7.980469 6.976562 7.113281 6.320312 5.53125 C 5.664062 3.953125 6.144531 2.257812 7.382812 1.714844 C 7.664062 1.601562 7.960938 1.554688 8.265625 1.578125 C 8.847656 1.660156 9.367188 1.886719 9.824219 2.261719 C 10.277344 2.632812 10.601562 3.097656 10.792969 3.65625 C 11.433594 5.21875 11 6.867188 9.832031 7.425781 Z M 9.832031 7.425781 " fill-opacity="1" fill-rule="nonzero"/><g clip-path="url(#678a0fa6ac)"><path fill="#ffffff" d="M 18.699219 18.734375 C 18.339844 19.238281 17.894531 19.648438 17.363281 19.964844 C 16.832031 20.285156 16.261719 20.480469 15.644531 20.558594 C 14.84375 20.726562 14.039062 20.726562 13.234375 20.558594 C 12.761719 20.457031 12.308594 20.304688 11.867188 20.101562 L 11.648438 19.992188 C 10.949219 20.351562 10.210938 20.554688 9.425781 20.605469 C 8.8125 20.679688 8.207031 20.628906 7.613281 20.460938 C 7.019531 20.289062 6.480469 20.007812 6 19.621094 C 5.277344 18.949219 4.859375 18.125 4.742188 17.148438 C 4.65625 16.230469 4.835938 15.367188 5.28125 14.558594 C 5.585938 13.953125 5.960938 13.398438 6.414062 12.890625 C 6.859375 12.382812 7.261719 11.839844 7.625 11.269531 C 7.738281 11.082031 7.871094 10.890625 7.992188 10.707031 C 8.59375 9.789062 9.375 9.058594 10.328125 8.515625 C 10.710938 8.304688 11.121094 8.175781 11.554688 8.128906 C 12.109375 8.09375 12.632812 8.199219 13.128906 8.441406 C 13.589844 8.675781 14.011719 8.96875 14.394531 9.316406 C 14.664062 9.554688 14.921875 9.808594 15.15625 10.082031 C 15.394531 10.355469 15.617188 10.628906 15.828125 10.929688 C 15.9375 11.066406 16.035156 11.21875 16.140625 11.363281 C 16.460938 11.832031 16.8125 12.28125 17.1875 12.707031 C 17.753906 13.332031 18.195312 14.039062 18.515625 14.820312 C 18.867188 15.597656 19.546875 17.292969 18.699219 18.734375 Z M 18.699219 18.734375 " fill-opacity="1" fill-rule="nonzero"/></g></g></g></g><path fill="#fb6e52" d="M 244.253906 137.703125 C 244.171875 137.925781 244.042969 138.117188 243.867188 138.277344 C 242.625 139.542969 241.207031 140.5625 239.605469 141.328125 C 237.625 142.242188 235.5625 142.898438 233.417969 143.296875 C 232.449219 143.488281 231.480469 143.65625 230.519531 143.800781 C 230.363281 143.816406 230.210938 143.800781 230.0625 143.757812 C 229.914062 143.710938 229.777344 143.636719 229.65625 143.539062 C 229.539062 143.4375 229.441406 143.320312 229.371094 143.179688 C 229.296875 143.042969 229.257812 142.894531 229.242188 142.738281 C 228.738281 139.527344 228.402344 135.984375 228.144531 132.734375 C 228.109375 132.421875 228.179688 132.132812 228.351562 131.871094 C 228.527344 131.605469 228.765625 131.429688 229.066406 131.339844 C 230.023438 131.125 230.898438 130.894531 231.722656 130.644531 L 232.097656 130.523438 C 233.683594 130.035156 235.171875 129.347656 236.570312 128.453125 C 237.6875 127.71875 238.707031 126.863281 239.621094 125.890625 C 239.796875 125.703125 240.015625 125.621094 240.269531 125.652344 C 240.582031 125.707031 240.792969 125.878906 240.90625 126.171875 C 240.921875 126.21875 240.941406 126.265625 240.964844 126.308594 C 240.980469 126.363281 241 126.414062 241.027344 126.460938 L 241.027344 126.5 C 242.421875 129.847656 243.480469 133.296875 244.207031 136.847656 C 244.292969 137.128906 244.308594 137.414062 244.253906 137.703125 Z M 244.253906 137.703125 " fill-opacity="1" fill-rule="nonzero"/><path fill="#bd7c53" d="M 267.683594 279.761719 C 267.394531 283.070312 266.742188 286.304688 265.722656 289.460938 C 263.082031 297.855469 258.195312 303.65625 250.847656 308.457031 L 250.710938 308.546875 C 246.941406 311.007812 243.324219 313.449219 239.546875 315.675781 C 237.167969 317.101562 234.722656 318.40625 232.210938 319.582031 L 229.921875 304.679688 C 234.648438 301.800781 238.164062 300.167969 241.371094 297.878906 C 243.210938 296.554688 244.867188 295.03125 246.339844 293.300781 C 247.046875 292.46875 247.703125 291.597656 248.308594 290.691406 C 251.886719 285.3125 254.167969 278.144531 254.023438 271.992188 C 253.921875 267.675781 252.574219 263.484375 250.792969 259.554688 C 242.71875 241.742188 224.230469 229.027344 204.730469 226.097656 C 204.308594 222.933594 204.234375 219.757812 204.503906 216.574219 C 204.5625 215.8125 204.648438 215.046875 204.746094 214.355469 C 214.898438 215.746094 224.53125 218.777344 233.648438 223.457031 C 236.878906 225.132812 239.949219 227.058594 242.867188 229.238281 C 245.78125 231.414062 248.503906 233.816406 251.027344 236.4375 C 253.546875 239.0625 255.84375 241.871094 257.90625 244.867188 C 259.96875 247.867188 261.777344 251.011719 263.324219 254.304688 C 265.175781 258.277344 266.46875 262.421875 267.207031 266.742188 C 267.949219 271.0625 268.105469 275.402344 267.683594 279.761719 Z M 267.683594 279.761719 " fill-opacity="1" fill-rule="nonzero"/><path fill="#5f433d" d="M 228.238281 302.542969 C 228.589844 302.460938 228.945312 302.449219 229.300781 302.507812 C 229.65625 302.566406 229.984375 302.691406 230.292969 302.878906 C 230.597656 303.070312 230.855469 303.308594 231.066406 303.601562 C 231.277344 303.894531 231.421875 304.214844 231.507812 304.566406 L 234.546875 317.515625 C 234.628906 317.867188 234.644531 318.21875 234.585938 318.574219 C 234.527344 318.929688 234.402344 319.261719 234.210938 319.570312 C 234.023438 319.875 233.78125 320.132812 233.488281 320.34375 C 233.195312 320.554688 232.875 320.699219 232.523438 320.78125 C 232.175781 320.863281 231.820312 320.878906 231.464844 320.820312 C 231.109375 320.761719 230.777344 320.636719 230.472656 320.449219 C 230.167969 320.257812 229.90625 320.015625 229.699219 319.722656 C 229.488281 319.429688 229.339844 319.109375 229.257812 318.757812 L 226.214844 305.808594 C 226.132812 305.460938 226.121094 305.105469 226.179688 304.75 C 226.238281 304.394531 226.363281 304.0625 226.550781 303.757812 C 226.742188 303.453125 226.984375 303.195312 227.273438 302.984375 C 227.566406 302.773438 227.890625 302.625 228.238281 302.542969 Z M 228.238281 302.542969 " fill-opacity="1" fill-rule="nonzero"/><g mask="url(#c2ee25d0fb)"><g transform="matrix(1, 0, 0, 1, 224, 301)"><g clip-path="url(#e1d89b49de)"><path fill="#bd7c53" d="M 4.238281 1.542969 C 4.589844 1.460938 4.945312 1.449219 5.300781 1.507812 C 5.65625 1.566406 5.984375 1.691406 6.292969 1.878906 C 6.597656 2.070312 6.855469 2.308594 7.066406 2.601562 C 7.277344 2.894531 7.421875 3.214844 7.507812 3.566406 L 10.546875 16.515625 C 10.628906 16.867188 10.644531 17.21875 10.585938 17.574219 C 10.527344 17.929688 10.402344 18.261719 10.210938 18.570312 C 10.023438 18.875 9.78125 19.132812 9.488281 19.34375 C 9.195312 19.554688 8.875 19.699219 8.523438 19.78125 C 8.175781 19.863281 7.820312 19.878906 7.464844 19.820312 C 7.109375 19.761719 6.777344 19.636719 6.472656 19.449219 C 6.167969 19.257812 5.90625 19.015625 5.699219 18.722656 C 5.488281 18.429688 5.339844 18.109375 5.257812 17.757812 L 2.214844 4.808594 C 2.132812 4.460938 2.121094 4.105469 2.179688 3.75 C 2.238281 3.394531 2.363281 3.0625 2.550781 2.757812 C 2.742188 2.453125 2.984375 2.195312 3.273438 1.984375 C 3.566406 1.773438 3.890625 1.625 4.238281 1.542969 Z M 4.238281 1.542969 " fill-opacity="1" fill-rule="nonzero"/></g></g></g><path fill="#bd7c53" d="M 245.542969 224.953125 L 231.042969 217.109375 C 230.792969 216.972656 230.527344 216.890625 230.242188 216.863281 C 229.957031 216.835938 229.679688 216.867188 229.40625 216.953125 C 229.136719 217.039062 228.890625 217.175781 228.675781 217.359375 C 228.457031 217.546875 228.285156 217.769531 228.160156 218.023438 L 220.621094 233.980469 C 220.511719 234.210938 220.453125 234.453125 220.4375 234.707031 C 220.425781 234.960938 220.457031 235.207031 220.539062 235.449219 C 220.621094 235.6875 220.742188 235.90625 220.90625 236.101562 C 221.070312 236.292969 221.265625 236.449219 221.488281 236.570312 L 235.027344 243.917969 C 235.269531 244.050781 235.527344 244.132812 235.804688 244.160156 C 236.078125 244.191406 236.347656 244.167969 236.613281 244.09375 C 236.878906 244.019531 237.121094 243.894531 237.335938 243.726562 C 237.554688 243.554688 237.730469 243.347656 237.867188 243.109375 L 246.375 227.648438 C 246.5 227.414062 246.578125 227.164062 246.605469 226.902344 C 246.628906 226.636719 246.601562 226.378906 246.523438 226.125 C 246.445312 225.875 246.324219 225.644531 246.152344 225.441406 C 245.984375 225.238281 245.78125 225.074219 245.542969 224.953125 Z M 241.957031 228.632812 L 236.363281 238.789062 C 236.273438 238.949219 236.160156 239.082031 236.015625 239.195312 C 235.875 239.308594 235.714844 239.386719 235.542969 239.4375 C 235.367188 239.488281 235.191406 239.503906 235.011719 239.484375 C 234.832031 239.464844 234.660156 239.410156 234.5 239.324219 L 225.601562 234.492188 C 225.453125 234.417969 225.324219 234.3125 225.214844 234.1875 C 225.105469 234.058594 225.027344 233.917969 224.972656 233.757812 C 224.917969 233.597656 224.898438 233.4375 224.90625 233.269531 C 224.917969 233.101562 224.957031 232.941406 225.03125 232.792969 L 229.984375 222.304688 C 230.066406 222.136719 230.179688 221.992188 230.324219 221.867188 C 230.464844 221.746094 230.625 221.65625 230.804688 221.597656 C 230.984375 221.542969 231.167969 221.523438 231.355469 221.539062 C 231.542969 221.558594 231.71875 221.613281 231.882812 221.703125 L 241.421875 226.855469 C 241.578125 226.9375 241.707031 227.046875 241.820312 227.179688 C 241.929688 227.316406 242.007812 227.464844 242.058594 227.632812 C 242.109375 227.800781 242.125 227.96875 242.109375 228.140625 C 242.089844 228.316406 242.039062 228.480469 241.957031 228.632812 Z M 241.957031 228.632812 " fill-opacity="1" fill-rule="nonzero"/><g clip-path="url(#0900c0804a)"><g mask="url(#0e513dca59)"><g transform="matrix(1, 0, 0, 1, 198, 112)"><g clip-path="url(#075ce4e914)"><g clip-path="url(#1bae641fe4)"><path fill="#bd7c53" d="M 103.988281 74.652344 C 103.03125 77.605469 101.367188 80.082031 98.996094 82.085938 C 90.960938 89.210938 80.511719 92.082031 70.066406 93.289062 C 64.863281 93.832031 59.648438 94.109375 54.421875 94.113281 C 48.449219 94.171875 42.472656 94.039062 36.5 93.714844 C 27.550781 93.226562 18.667969 92.152344 9.792969 90.96875 C 7.972656 95.320312 6.863281 99.847656 6.472656 104.550781 C 5.425781 117.136719 9.835938 126.859375 14.332031 136.777344 C 18.828125 146.699219 22.933594 155.742188 32.410156 162.726562 C 38.617188 167.304688 42.410156 167.496094 46.957031 173.339844 C 48.972656 175.925781 50.519531 178.765625 51.597656 181.859375 C 52.671875 184.957031 53.222656 188.144531 53.246094 191.421875 C 53.160156 201.648438 47.351562 208.691406 44.988281 211.46875 C 36.050781 221.976562 23.773438 224.863281 9.21875 227.1875 C 7.257812 227.503906 4.480469 227.769531 1.167969 227.992188 C 6.542969 225.726562 11.609375 222.910156 16.371094 219.542969 C 20.199219 216.816406 23.613281 213.648438 26.617188 210.035156 C 30.738281 205.027344 33.882812 199.042969 34.675781 192.609375 C 35.617188 184.941406 33.152344 177.21875 29.664062 170.335938 C 29.113281 169.25 28.535156 168.175781 27.929688 167.113281 C 18.390625 150.242188 3.128906 135.597656 1.601562 116.386719 C 0.902344 107.40625 3.359375 98.835938 7.195312 90.617188 C 8.433594 87.976562 9.808594 85.382812 11.265625 82.816406 C 13.835938 78.292969 16.667969 73.886719 19.4375 69.59375 C 24.78125 61.296875 30.121094 52.34375 33.105469 43.019531 C 34.363281 39.203125 35.140625 35.296875 35.433594 31.289062 C 35.636719 28.265625 35.480469 25.261719 34.96875 22.277344 C 34.929688 22.039062 34.882812 21.820312 34.835938 21.582031 C 34.640625 20.542969 34.394531 19.523438 34.113281 18.53125 C 33.898438 17.765625 33.671875 17.066406 33.425781 16.347656 C 32.875 14.753906 32.238281 13.191406 31.511719 11.667969 C 29.996094 8.53125 28.246094 5.53125 26.269531 2.664062 L 26.335938 2.664062 C 27.507812 3.097656 28.621094 3.652344 29.679688 4.320312 C 31.378906 5.398438 32.871094 6.714844 34.152344 8.273438 L 34.394531 8.570312 C 34.699219 8.960938 34.992188 9.332031 35.265625 9.753906 L 35.347656 9.867188 L 35.632812 10.304688 C 35.675781 10.371094 35.730469 10.449219 35.769531 10.515625 C 36.027344 10.914062 36.265625 11.28125 36.492188 11.730469 C 36.609375 11.945312 36.730469 12.15625 36.835938 12.378906 L 37.058594 12.8125 C 37.210938 13.113281 37.355469 13.410156 37.484375 13.714844 C 38.71875 13.328125 39.972656 13.203125 41.257812 13.347656 C 41.613281 13.382812 41.957031 13.476562 42.285156 13.621094 C 42.597656 13.675781 42.808594 13.847656 42.917969 14.140625 C 42.9375 14.1875 42.957031 14.234375 42.980469 14.277344 C 42.996094 14.332031 43.015625 14.382812 43.042969 14.433594 L 43.042969 14.46875 C 44.4375 17.816406 45.496094 21.265625 46.222656 24.816406 C 46.292969 25.105469 46.292969 25.394531 46.222656 25.679688 C 46.140625 25.902344 46.011719 26.09375 45.835938 26.253906 C 44.59375 27.519531 43.175781 28.539062 41.578125 29.304688 C 41.824219 31.347656 41.9375 33.398438 41.917969 35.457031 C 41.890625 38.273438 41.636719 41.074219 41.15625 43.851562 C 40.808594 45.941406 40.148438 47.925781 39.183594 49.8125 C 38.214844 51.695312 36.988281 53.390625 35.496094 54.894531 C 30.933594 59.453125 26.757812 64.347656 22.972656 69.570312 C 19.582031 74.238281 16.394531 78.644531 13.730469 83.152344 C 17.804688 83.6875 21.878906 84.175781 25.941406 84.566406 C 34 85.328125 42.09375 85.71875 50.183594 85.753906 C 57.167969 85.890625 64.128906 85.570312 71.070312 84.792969 C 73.402344 84.46875 75.710938 84.023438 77.992188 83.457031 C 80.144531 82.929688 82.25 82.257812 84.3125 81.445312 L 84.738281 81.277344 L 84.777344 81.277344 L 85 81.167969 C 85.488281 80.949219 85.976562 80.71875 86.457031 80.472656 C 87.417969 79.992188 88.355469 79.472656 89.273438 78.910156 C 90.1875 78.34375 91.019531 77.765625 91.867188 77.15625 L 92.027344 77.023438 L 92.660156 76.5 C 93.082031 76.132812 93.5 75.734375 93.890625 75.367188 C 94.277344 75.003906 94.882812 74.550781 95.019531 74.132812 L 94.675781 74.605469 C 94.710938 74.535156 94.753906 74.46875 94.796875 74.40625 L 95.003906 74.117188 C 95.15625 73.886719 95.308594 73.660156 95.4375 73.421875 C 95.5 73.316406 95.585938 73.195312 95.660156 73.070312 L 95.660156 73.027344 C 95.660156 72.910156 95.746094 72.804688 95.78125 72.683594 C 95.886719 72.355469 95.96875 72.019531 96.035156 71.683594 C 96.078125 71.117188 96.078125 70.554688 96.035156 69.988281 C 95.886719 69.183594 95.675781 68.398438 95.402344 67.628906 C 95.402344 67.5625 95.347656 67.476562 95.316406 67.410156 C 95.371094 67.601562 95.371094 67.675781 95.179688 67.066406 C 95.003906 66.683594 94.8125 66.300781 94.613281 65.921875 C 93.707031 64.234375 92.667969 62.632812 91.5 61.113281 L 91.203125 60.738281 C 91.386719 61.007812 91.554688 61.320312 91.066406 60.546875 C 90.816406 60.234375 90.5625 59.914062 90.304688 59.601562 C 89.671875 58.839844 89.011719 58.074219 88.34375 57.3125 C 87.082031 55.925781 85.761719 54.589844 84.402344 53.296875 C 82.070312 51.078125 79.589844 49.03125 77.070312 47.019531 C 77.070312 47.019531 77.070312 47.019531 77.03125 46.980469 L 76.167969 46.316406 L 75.171875 45.554688 C 74.527344 45.070312 73.886719 44.605469 73.246094 44.140625 C 71.765625 43.074219 70.277344 42.019531 68.882812 40.851562 C 66.140625 38.5625 63.882812 35.617188 63.394531 32.007812 C 62.816406 27.671875 65.074219 23.847656 67.972656 20.84375 C 72.699219 15.988281 79 13.371094 84.671875 9.875 C 85.375 9.449219 86.066406 9 86.738281 8.523438 L 87.65625 7.859375 L 87.839844 7.707031 C 89.003906 6.765625 90.085938 5.734375 91.082031 4.609375 C 91.203125 4.464844 91.332031 4.320312 91.449219 4.175781 C 91.4375 4.203125 91.421875 4.226562 91.402344 4.25 L 91.480469 4.136719 C 91.691406 3.792969 91.785156 3.664062 91.800781 3.648438 C 91.785156 3.695312 91.765625 3.738281 91.738281 3.777344 C 91.851562 3.625 91.960938 3.480469 92.058594 3.328125 C 92.421875 2.789062 92.753906 2.230469 93.050781 1.648438 L 93.234375 1.304688 L 93.394531 0.863281 L 101.789062 1.902344 C 101.425781 3.363281 100.890625 4.765625 100.1875 6.097656 C 97.957031 10.316406 94.203125 13.609375 90.265625 16.226562 C 86.570312 18.714844 82.496094 20.558594 78.734375 22.941406 C 78.230469 23.261719 77.734375 23.582031 77.253906 23.917969 L 76.574219 24.390625 L 76.148438 24.71875 L 76.101562 24.71875 L 75.855469 24.917969 L 75.230469 25.453125 C 74.851562 25.789062 74.46875 26.128906 74.109375 26.496094 C 73.75 26.863281 73.285156 27.34375 72.902344 27.792969 L 72.757812 27.96875 C 72.636719 28.144531 72.507812 28.320312 72.390625 28.496094 C 72.277344 28.671875 72.054688 29.046875 71.902344 29.335938 C 71.851562 29.441406 71.804688 29.550781 71.742188 29.65625 C 71.746094 29.675781 71.746094 29.691406 71.742188 29.710938 C 71.695312 29.878906 71.65625 30.046875 71.628906 30.222656 C 71.597656 30.550781 71.597656 30.878906 71.628906 31.207031 C 71.625 31.234375 71.625 31.261719 71.628906 31.289062 L 71.707031 31.425781 C 71.75 31.519531 71.789062 31.601562 71.84375 31.695312 C 71.964844 31.9375 72.105469 32.171875 72.253906 32.394531 C 72.335938 32.519531 72.429688 32.636719 72.53125 32.746094 L 72.347656 32.554688 C 72.492188 32.714844 72.621094 32.882812 72.757812 33.042969 C 73.125 33.441406 73.523438 33.808594 73.910156 34.191406 C 74.300781 34.570312 74.710938 34.882812 75.125 35.226562 L 75.5 35.511719 L 75.863281 35.777344 C 78.152344 37.441406 80.445312 39.105469 82.65625 40.84375 C 86.820312 44.019531 90.675781 47.535156 94.226562 51.382812 C 98.042969 55.558594 101.695312 60.226562 103.527344 65.625 C 104.058594 67.070312 104.359375 68.5625 104.4375 70.101562 C 104.515625 71.640625 104.367188 73.15625 103.988281 74.652344 Z M 103.988281 74.652344 " fill-opacity="1" fill-rule="nonzero"/></g></g></g></g></g><g mask="url(#6c0285a575)"><g transform="matrix(1, 0, 0, 1, 120, 114)"><g clip-path="url(#931af5ee83)"><g clip-path="url(#7de4728d57)"><path fill="#ffffff" d="M 32.089844 3.351562 C 26.039062 0.601562 18.957031 1.25 12.589844 3.160156 C 10.300781 3.839844 7.953125 4.746094 6.433594 6.585938 C 4.515625 8.875 4.3125 12.148438 4.585938 15.125 C 4.859375 18.101562 5.507812 21.109375 4.996094 24.0625 C 4.488281 27.015625 2.808594 29.664062 1.753906 32.496094 C -0.535156 38.699219 0.226562 45.804688 3.121094 51.773438 C 6.011719 57.738281 10.75 62.617188 16.222656 66.378906 C 18.167969 67.730469 20.710938 68.972656 22.792969 67.84375 C 21.550781 60.988281 19.230469 54.515625 15.835938 48.429688 C 14.109375 45.339844 12.101562 42.324219 11.011719 38.988281 C 9.195312 33.394531 10.050781 27.328125 11.101562 21.542969 C 11.8125 17.636719 12.726562 13.5 15.535156 10.691406 C 17.664062 8.570312 20.628906 7.496094 23.582031 6.953125 C 26.535156 6.410156 29.554688 6.335938 32.53125 5.898438 C 32.867188 5.867188 33.15625 5.738281 33.402344 5.511719 C 33.800781 5.105469 32.859375 3.632812 32.089844 3.351562 " fill-opacity="1" fill-rule="nonzero"/></g></g></g></g><g mask="url(#02f2a0d757)"><g transform="matrix(1, 0, 0, 1, 115, 277)"><g clip-path="url(#a45aef9d96)"><g clip-path="url(#2748223c4c)"><path fill="#ffffff" d="M 42.933594 52.328125 C 35.496094 54.183594 27.441406 48.460938 18.195312 45.597656 C 11.441406 43.5 4.054688 40.257812 1.671875 33.578125 C -0.769531 26.710938 3.199219 19.316406 7.585938 13.539062 C 12.851562 6.671875 20.375 -0.121094 28.953125 0.929688 C 29.167969 4.898438 25.664062 7.976562 22.398438 10.242188 C 19.132812 12.507812 15.453125 15.15625 15.019531 19.101562 C 14.4375 24.40625 19.988281 28.199219 24.941406 30.066406 C 32.039062 32.730469 39.667969 34.21875 46.101562 38.226562 C 47.289062 38.878906 48.265625 39.761719 49.023438 40.882812 C 49.3125 41.421875 49.519531 41.992188 49.640625 42.59375 C 49.761719 43.195312 49.792969 43.800781 49.738281 44.410156 C 49.683594 45.019531 49.539062 45.609375 49.3125 46.179688 C 49.085938 46.746094 48.78125 47.269531 48.398438 47.75 C 46.910156 49.707031 45.066406 51.230469 42.867188 52.328125 " fill-opacity="1" fill-rule="nonzero"/></g></g></g></g><path fill="#bd7c53" d="M 86.238281 279.761719 C 86.523438 283.070312 87.171875 286.300781 88.183594 289.460938 C 90.824219 297.855469 95.699219 303.65625 103.050781 308.457031 L 103.195312 308.546875 C 106.957031 311.007812 110.582031 313.449219 114.359375 315.675781 C 116.734375 317.101562 119.179688 318.40625 121.6875 319.582031 C 122.449219 314.617188 123.210938 309.648438 123.976562 304.679688 C 119.25 301.800781 115.734375 300.167969 112.527344 297.878906 C 110.683594 296.554688 109.027344 295.03125 107.558594 293.300781 C 106.847656 292.472656 106.191406 291.601562 105.589844 290.691406 C 102.011719 285.3125 99.730469 278.144531 99.867188 271.992188 C 100.109375 267.628906 101.1875 263.484375 103.101562 259.554688 C 111.175781 241.742188 129.667969 229.027344 149.167969 226.097656 C 149.585938 222.933594 149.664062 219.757812 149.394531 216.574219 C 149.328125 215.8125 149.25 215.046875 149.152344 214.355469 C 139 215.746094 129.367188 218.777344 120.25 223.457031 C 117.019531 225.132812 113.945312 227.058594 111.03125 229.238281 C 108.113281 231.414062 105.394531 233.816406 102.871094 236.4375 C 100.347656 239.0625 98.054688 241.871094 95.992188 244.867188 C 93.929688 247.867188 92.121094 251.011719 90.574219 254.304688 C 88.730469 258.277344 87.441406 262.425781 86.703125 266.742188 C 85.96875 271.0625 85.8125 275.402344 86.238281 279.761719 Z M 86.238281 279.761719 " fill-opacity="1" fill-rule="nonzero"/><path fill="#5f433d" d="M 121.40625 320.789062 C 121.054688 320.707031 120.734375 320.558594 120.441406 320.351562 C 120.148438 320.140625 119.910156 319.882812 119.71875 319.574219 C 119.527344 319.269531 119.40625 318.9375 119.347656 318.582031 C 119.289062 318.226562 119.300781 317.875 119.382812 317.523438 L 122.425781 304.574219 C 122.507812 304.222656 122.652344 303.902344 122.863281 303.609375 C 123.074219 303.316406 123.332031 303.074219 123.640625 302.886719 C 123.945312 302.695312 124.277344 302.570312 124.632812 302.515625 C 124.988281 302.457031 125.339844 302.46875 125.691406 302.550781 C 126.042969 302.632812 126.363281 302.777344 126.65625 302.988281 C 126.949219 303.199219 127.191406 303.457031 127.378906 303.765625 C 127.570312 304.070312 127.691406 304.402344 127.75 304.757812 C 127.808594 305.113281 127.796875 305.464844 127.714844 305.816406 L 124.671875 318.765625 C 124.589844 319.117188 124.445312 319.4375 124.234375 319.730469 C 124.023438 320.023438 123.765625 320.265625 123.457031 320.453125 C 123.152344 320.644531 122.820312 320.765625 122.464844 320.824219 C 122.109375 320.882812 121.757812 320.871094 121.40625 320.789062 Z M 121.40625 320.789062 " fill-opacity="1" fill-rule="nonzero"/><g mask="url(#464075292b)"><g transform="matrix(1, 0, 0, 1, 118, 301)"><g clip-path="url(#073a7206c0)"><path fill="#bd7c53" d="M 3.40625 19.789062 C 3.054688 19.707031 2.734375 19.558594 2.441406 19.351562 C 2.148438 19.140625 1.910156 18.882812 1.71875 18.574219 C 1.527344 18.269531 1.40625 17.9375 1.347656 17.582031 C 1.289062 17.226562 1.300781 16.875 1.382812 16.523438 L 4.425781 3.574219 C 4.507812 3.222656 4.652344 2.902344 4.863281 2.609375 C 5.074219 2.316406 5.332031 2.074219 5.640625 1.886719 C 5.945312 1.695312 6.277344 1.570312 6.632812 1.515625 C 6.988281 1.457031 7.339844 1.46875 7.691406 1.550781 C 8.042969 1.632812 8.363281 1.777344 8.65625 1.988281 C 8.949219 2.199219 9.191406 2.457031 9.378906 2.765625 C 9.570312 3.070312 9.691406 3.402344 9.75 3.757812 C 9.808594 4.113281 9.796875 4.464844 9.714844 4.816406 L 6.671875 17.765625 C 6.589844 18.117188 6.445312 18.4375 6.234375 18.730469 C 6.023438 19.023438 5.765625 19.265625 5.457031 19.453125 C 5.152344 19.644531 4.820312 19.765625 4.464844 19.824219 C 4.109375 19.882812 3.757812 19.871094 3.40625 19.789062 Z M 3.40625 19.789062 " fill-opacity="1" fill-rule="nonzero"/></g></g></g><path fill="#bd7c53" d="M 133.316406 233.980469 L 132.050781 231.296875 L 126.882812 220.367188 L 125.785156 218.023438 C 125.65625 217.769531 125.484375 217.546875 125.269531 217.359375 C 125.054688 217.175781 124.808594 217.039062 124.535156 216.953125 C 124.265625 216.867188 123.984375 216.835938 123.703125 216.863281 C 123.417969 216.890625 123.148438 216.972656 122.898438 217.109375 L 108.398438 224.953125 C 108.164062 225.074219 107.960938 225.238281 107.792969 225.441406 C 107.625 225.648438 107.5 225.875 107.425781 226.128906 C 107.347656 226.382812 107.324219 226.640625 107.351562 226.90625 C 107.378906 227.167969 107.457031 227.414062 107.582031 227.648438 L 109.246094 230.699219 L 115.671875 242.375 L 116.085938 243.140625 C 116.21875 243.378906 116.398438 243.585938 116.613281 243.753906 C 116.832031 243.925781 117.074219 244.050781 117.339844 244.125 C 117.605469 244.199219 117.875 244.222656 118.148438 244.191406 C 118.421875 244.160156 118.679688 244.082031 118.921875 243.949219 C 123.441406 241.5 127.957031 239.050781 132.46875 236.597656 C 132.695312 236.476562 132.890625 236.320312 133.054688 236.121094 C 133.21875 235.925781 133.339844 235.707031 133.417969 235.460938 C 133.5 235.21875 133.53125 234.96875 133.511719 234.710938 C 133.492188 234.457031 133.429688 234.210938 133.316406 233.980469 Z M 128.324219 234.492188 L 119.425781 239.324219 C 119.277344 239.40625 119.117188 239.457031 118.945312 239.476562 C 118.667969 239.515625 118.402344 239.472656 118.148438 239.347656 C 117.894531 239.222656 117.703125 239.035156 117.566406 238.789062 L 111.972656 228.632812 C 111.894531 228.480469 111.847656 228.316406 111.832031 228.148438 C 111.816406 227.976562 111.835938 227.808594 111.886719 227.644531 C 111.9375 227.480469 112.019531 227.335938 112.128906 227.203125 C 112.238281 227.070312 112.367188 226.964844 112.519531 226.882812 L 122.058594 221.734375 C 122.304688 221.601562 122.566406 221.546875 122.84375 221.570312 C 123.117188 221.59375 123.367188 221.691406 123.585938 221.863281 C 123.75 221.988281 123.878906 222.148438 123.96875 222.335938 L 128.921875 232.820312 L 128.921875 232.890625 C 129.035156 233.195312 129.039062 233.5 128.925781 233.804688 C 128.8125 234.109375 128.609375 234.339844 128.324219 234.492188 Z M 128.324219 234.492188 " fill-opacity="1" fill-rule="nonzero"/></svg>