<svg xmlns="http://www.w3.org/2000/svg" xmlns:xlink="http://www.w3.org/1999/xlink" width="500" zoomAndPan="magnify" viewBox="0 0 375 374.999991" height="500" preserveAspectRatio="xMidYMid meet" version="1.0"><defs><clipPath id="63849d9b39"><path d="M 30.992188 144 L 343.742188 144 L 343.742188 254.742188 L 30.992188 254.742188 Z M 30.992188 144 " clip-rule="nonzero"/></clipPath><clipPath id="8a03c002a8"><path d="M 56 120.007812 L 318 120.007812 L 318 168 L 56 168 Z M 56 120.007812 " clip-rule="nonzero"/></clipPath></defs><rect x="-37.5" width="450" fill="#ffffff" y="-37.499999" height="449.999989" fill-opacity="1"/><rect x="-37.5" width="450" fill="#ffffff" y="-37.499999" height="449.999989" fill-opacity="1"/><g clip-path="url(#63849d9b39)"><path fill="#cf6884" d="M 343.089844 228.695312 L 317.769531 144.109375 L 56.957031 144.109375 L 31.640625 228.695312 C 31.21875 229.410156 30.992188 230.132812 30.992188 230.863281 C 30.992188 244.050781 101.003906 254.742188 187.367188 254.742188 C 273.730469 254.742188 343.742188 244.050781 343.742188 230.863281 C 343.742188 230.132812 343.511719 229.410156 343.089844 228.695312 " fill-opacity="1" fill-rule="nonzero"/></g><g clip-path="url(#8a03c002a8)"><path fill="#dc94a4" d="M 317.769531 144.109375 C 317.769531 157.292969 259.386719 167.984375 187.367188 167.984375 C 115.347656 167.984375 56.960938 157.292969 56.960938 144.109375 C 56.960938 130.921875 115.347656 120.230469 187.367188 120.230469 C 259.386719 120.230469 317.769531 130.921875 317.769531 144.109375 " fill-opacity="1" fill-rule="nonzero"/></g><path fill="#ae5a74" d="M 307.40625 144.109375 C 307.40625 155.179688 254.136719 164.152344 188.429688 164.152344 C 122.722656 164.152344 69.453125 155.179688 69.453125 144.109375 C 69.453125 133.039062 122.722656 124.066406 188.429688 124.066406 C 254.136719 124.066406 307.40625 133.039062 307.40625 144.109375 " fill-opacity="1" fill-rule="nonzero"/><path fill="#ffffff" d="M 208.167969 210.433594 C 206.664062 203.261719 200.152344 198.035156 192.609375 198.410156 C 185.292969 198.769531 179.445312 204.265625 178.375 211.242188 C 171.613281 213.042969 166.789062 219.371094 167.148438 226.644531 C 167.5625 235.011719 174.675781 241.460938 183.035156 241.046875 C 187.160156 240.84375 190.820312 239 193.417969 236.179688 C 196.28125 238.730469 200.101562 240.207031 204.230469 240 C 212.589844 239.585938 219.035156 232.46875 218.621094 224.101562 C 218.300781 217.632812 213.972656 212.328125 208.167969 210.433594 " fill-opacity="1" fill-rule="nonzero"/><path fill="#ffffff" d="M 173.175781 201.050781 C 175.417969 204.527344 174.414062 209.171875 170.9375 211.417969 C 167.457031 213.667969 162.824219 212.664062 160.578125 209.179688 C 158.332031 205.699219 159.335938 201.058594 162.8125 198.8125 C 166.292969 196.566406 170.929688 197.566406 173.175781 201.050781 " fill-opacity="1" fill-rule="nonzero"/><path fill="#ffffff" d="M 198.507812 182.75 C 200.75 186.230469 199.75 190.875 196.273438 193.121094 C 192.792969 195.367188 188.15625 194.367188 185.914062 190.882812 C 183.671875 187.398438 184.667969 182.757812 188.144531 180.515625 C 191.625 178.265625 196.265625 179.269531 198.507812 182.75 " fill-opacity="1" fill-rule="nonzero"/><path fill="#ffffff" d="M 225.179688 198.480469 C 227.421875 201.960938 226.421875 206.605469 222.945312 208.851562 C 219.464844 211.097656 214.824219 210.097656 212.582031 206.613281 C 210.339844 203.132812 211.34375 198.488281 214.820312 196.246094 C 218.296875 194 222.933594 195 225.179688 198.480469 " fill-opacity="1" fill-rule="nonzero"/></svg>