<svg xmlns="http://www.w3.org/2000/svg" xmlns:xlink="http://www.w3.org/1999/xlink" width="500" zoomAndPan="magnify" viewBox="0 0 375 374.999991" height="500" preserveAspectRatio="xMidYMid meet" version="1.0"><defs><clipPath id="678c73f4b7"><path d="M 33.5625 144.863281 L 341.792969 144.863281 L 341.792969 253.890625 L 33.5625 253.890625 Z M 33.5625 144.863281 " clip-rule="nonzero"/></clipPath><clipPath id="1cf383a389"><path d="M 59 121.242188 L 317 121.242188 L 317 169 L 59 169 Z M 59 121.242188 " clip-rule="nonzero"/></clipPath></defs><rect x="-37.5" width="450" fill="#ffffff" y="-37.499999" height="449.999989" fill-opacity="1"/><rect x="-37.5" width="450" fill="#ffffff" y="-37.499999" height="449.999989" fill-opacity="1"/><g clip-path="url(#678c73f4b7)"><path fill="#d39735" d="M 341.152344 228.234375 L 316.199219 144.90625 L 59.152344 144.90625 L 34.203125 228.234375 C 33.785156 228.933594 33.5625 229.648438 33.5625 230.371094 C 33.5625 243.359375 102.558594 253.890625 187.675781 253.890625 C 272.789062 253.890625 341.789062 243.359375 341.789062 230.371094 C 341.789062 229.648438 341.566406 228.933594 341.152344 228.234375 " fill-opacity="1" fill-rule="nonzero"/></g><g clip-path="url(#1cf383a389)"><path fill="#e8be85" d="M 316.199219 144.90625 C 316.199219 157.898438 258.65625 168.429688 187.675781 168.429688 C 116.695312 168.429688 59.152344 157.898438 59.152344 144.90625 C 59.152344 131.914062 116.695312 121.386719 187.675781 121.386719 C 258.65625 121.386719 316.199219 131.914062 316.199219 144.90625 " fill-opacity="1" fill-rule="nonzero"/></g><path fill="#aa7524" d="M 305.980469 144.90625 C 305.980469 155.8125 253.480469 164.65625 188.726562 164.65625 C 123.964844 164.65625 71.464844 155.8125 71.464844 144.90625 C 71.464844 134 123.964844 125.160156 188.726562 125.160156 C 253.480469 125.160156 305.980469 134 305.980469 144.90625 " fill-opacity="1" fill-rule="nonzero"/><path fill="#ffffff" d="M 238.78125 214.261719 C 242.675781 212.210938 245.332031 208.125 245.332031 203.417969 C 245.332031 196.652344 239.851562 191.164062 233.089844 191.164062 C 226.324219 191.164062 220.847656 196.652344 220.847656 203.417969 C 220.847656 203.898438 220.875 204.375 220.929688 204.847656 L 156.519531 204.847656 C 156.574219 204.375 156.605469 203.898438 156.605469 203.417969 C 156.605469 196.652344 151.121094 191.164062 144.359375 191.164062 C 137.597656 191.164062 132.113281 196.652344 132.113281 203.417969 C 132.113281 208.167969 134.820312 212.28125 138.773438 214.3125 C 134.820312 216.347656 132.113281 220.460938 132.113281 225.210938 C 132.113281 231.980469 137.597656 237.464844 144.359375 237.464844 C 150.515625 237.464844 155.609375 232.917969 156.472656 227 L 220.785156 227 C 221.746094 232.804688 226.785156 237.238281 232.863281 237.238281 C 239.625 237.238281 245.105469 231.753906 245.105469 224.988281 C 245.105469 220.371094 242.550781 216.351562 238.78125 214.261719 " fill-opacity="1" fill-rule="nonzero"/></svg>