<svg xmlns="http://www.w3.org/2000/svg" xmlns:xlink="http://www.w3.org/1999/xlink" width="500" zoomAndPan="magnify" viewBox="0 0 375 374.999991" height="500" preserveAspectRatio="xMidYMid meet" version="1.0"><defs><clipPath id="fecb0d4218"><path d="M 32.28125 163 L 342.78125 163 L 342.78125 295.066406 L 32.28125 295.066406 Z M 32.28125 163 " clip-rule="nonzero"/></clipPath></defs><rect x="-37.5" width="450" fill="#ffffff" y="-37.499999" height="449.999989" fill-opacity="1"/><rect x="-37.5" width="450" fill="#ffffff" y="-37.499999" height="449.999989" fill-opacity="1"/><g clip-path="url(#fecb0d4218)"><path fill="#ff6e72" d="M 340.738281 250.011719 L 301.914062 163.8125 L 300.578125 163.824219 C 301.824219 164.429688 302.503906 165.066406 302.503906 165.71875 C 302.503906 171.496094 251.023438 176.179688 187.515625 176.179688 C 124.019531 176.179688 72.542969 171.496094 72.523438 165.722656 L 34.53125 250.285156 C 33.449219 252.929688 32.582031 255.582031 32.582031 257.894531 C 32.582031 278.492188 101.941406 295.203125 187.519531 295.203125 C 273.078125 295.203125 342.441406 278.492188 342.441406 257.894531 C 342.441406 255.617188 342.042969 253.121094 340.738281 250.011719 " fill-opacity="1" fill-rule="nonzero"/></g><path fill="#44a167" d="M 302.503906 165.71875 C 302.503906 171.496094 251.023438 176.179688 187.515625 176.179688 C 124.003906 176.179688 72.523438 171.496094 72.523438 165.71875 C 72.523438 159.9375 124.003906 155.253906 187.515625 155.253906 C 251.023438 155.253906 302.503906 159.9375 302.503906 165.71875 " fill-opacity="1" fill-rule="nonzero"/><path fill="#d5e1be" d="M 165.640625 257.867188 C 165.640625 256.914062 165.539062 255.984375 165.378906 255.078125 L 215.960938 255.078125 C 215.804688 255.984375 215.703125 256.914062 215.703125 257.867188 C 215.703125 267.074219 223.171875 274.546875 232.382812 274.546875 C 241.597656 274.546875 249.070312 267.074219 249.070312 257.867188 C 249.070312 251.839844 245.859375 246.613281 241.078125 243.679688 C 245.859375 240.742188 249.070312 235.507812 249.070312 229.492188 C 249.070312 220.277344 241.597656 212.800781 232.382812 212.800781 C 223.171875 212.800781 215.703125 220.277344 215.703125 229.492188 C 215.703125 230.4375 215.804688 231.367188 215.960938 232.273438 L 165.378906 232.273438 C 165.539062 231.367188 165.640625 230.4375 165.640625 229.492188 C 165.640625 220.277344 158.171875 212.800781 148.953125 212.800781 C 139.738281 212.800781 132.265625 220.277344 132.265625 229.492188 C 132.265625 235.507812 135.480469 240.742188 140.265625 243.679688 C 135.480469 246.613281 132.265625 251.839844 132.265625 257.867188 C 132.265625 267.074219 139.738281 274.546875 148.953125 274.546875 C 158.171875 274.546875 165.640625 267.074219 165.640625 257.867188 " fill-opacity="1" fill-rule="nonzero"/><path fill="#6eca78" d="M 187.515625 172.046875 C 129.742188 172.046875 82.910156 169.210938 82.910156 165.71875 C 82.910156 162.222656 129.742188 159.382812 187.515625 159.382812 C 245.285156 159.382812 292.113281 162.222656 292.113281 165.71875 C 292.113281 169.210938 245.285156 172.046875 187.515625 172.046875 Z M 187.515625 155.253906 C 124.003906 155.253906 72.523438 159.9375 72.523438 165.71875 C 72.523438 171.496094 124.003906 176.179688 187.515625 176.179688 C 251.023438 176.179688 302.503906 171.496094 302.503906 165.71875 C 302.503906 159.9375 251.023438 155.253906 187.515625 155.253906 " fill-opacity="1" fill-rule="nonzero"/><path fill="#d5e1be" d="M 97.566406 170.234375 C 103.566406 171.742188 109.769531 172.375 116.003906 172.652344 C 116.140625 172.292969 116.289062 171.929688 116.386719 171.566406 L 119.027344 172.78125 C 125.925781 172.976562 132.855469 172.820312 139.644531 172.945312 C 153.519531 173.203125 167.390625 173.304688 181.257812 173.601562 C 180.738281 169.542969 178.234375 165.84375 174.257812 163.996094 C 168.09375 161.152344 160.792969 163.839844 157.941406 170.003906 C 157.652344 170.636719 157.433594 171.289062 157.253906 171.941406 L 123.4375 156.316406 C 123.820312 155.753906 124.175781 155.171875 124.472656 154.535156 C 127.320312 148.378906 124.632812 141.070312 118.46875 138.222656 C 112.304688 135.378906 105.007812 138.066406 102.15625 144.222656 C 100.296875 148.25 100.824219 152.746094 103.113281 156.183594 C 99.015625 156.667969 95.257812 159.171875 93.386719 163.199219 C 92.40625 165.332031 92.125 167.59375 92.378906 169.761719 C 93.996094 169.640625 95.726562 169.777344 97.566406 170.234375 " fill-opacity="1" fill-rule="nonzero"/><path fill="#d5e1be" d="M 198.171875 136.511719 L 217.519531 168.34375 C 216.894531 168.589844 216.269531 168.882812 215.667969 169.246094 C 214.03125 170.246094 212.746094 171.585938 211.773438 173.09375 C 212.789062 173.113281 213.8125 173.210938 214.839844 173.382812 C 226.972656 175.4375 239.492188 172.140625 251.785156 171.996094 C 252.597656 168.886719 252.210938 165.476562 250.414062 162.507812 C 246.886719 156.714844 239.328125 154.867188 233.53125 158.394531 C 232.929688 158.757812 232.382812 159.179688 231.875 159.621094 L 212.527344 127.777344 C 213.15625 127.535156 213.777344 127.246094 214.378906 126.886719 C 220.179688 123.359375 222.023438 115.796875 218.5 109.996094 C 214.972656 104.191406 207.414062 102.355469 201.613281 105.878906 C 197.820312 108.179688 195.761719 112.199219 195.738281 116.335938 C 192.066406 114.449219 187.542969 114.429688 183.753906 116.730469 C 177.957031 120.253906 176.109375 127.8125 179.632812 133.617188 C 183.164062 139.417969 190.71875 141.261719 196.519531 137.738281 C 197.121094 137.371094 197.664062 136.949219 198.171875 136.511719 " fill-opacity="1" fill-rule="nonzero"/><path fill="#d5e1be" d="M 111.828125 116.667969 C 112 115.984375 112.09375 115.3125 112.144531 114.632812 L 148.261719 123.800781 C 147.980469 124.410156 147.746094 125.054688 147.570312 125.730469 C 145.902344 132.3125 149.882812 139 156.457031 140.671875 C 163.035156 142.339844 169.726562 138.363281 171.394531 131.773438 C 172.488281 127.476562 171.140625 123.164062 168.261719 120.207031 C 172.203125 118.976562 175.445312 115.824219 176.53125 111.523438 C 178.207031 104.945312 174.21875 98.253906 167.644531 96.589844 C 161.0625 94.921875 154.375 98.898438 152.710938 105.480469 C 152.539062 106.160156 152.441406 106.839844 152.386719 107.507812 L 116.277344 98.351562 C 116.550781 97.734375 116.796875 97.089844 116.964844 96.410156 C 118.636719 89.828125 114.660156 83.148438 108.074219 81.476562 C 101.496094 79.804688 94.8125 83.789062 93.140625 90.371094 C 92.054688 94.664062 93.402344 98.980469 96.28125 101.941406 C 92.332031 103.171875 89.097656 106.316406 88.003906 110.617188 C 86.332031 117.199219 90.308594 123.890625 96.890625 125.554688 C 103.476562 127.230469 110.164062 123.246094 111.828125 116.667969 " fill-opacity="1" fill-rule="nonzero"/><path fill="#6eca78" d="M 290.265625 161.019531 C 289.347656 162.082031 288.257812 163.015625 287 163.761719 C 290.308594 164.378906 292.113281 165.035156 292.113281 165.71875 C 292.113281 169.210938 245.285156 172.046875 187.515625 172.046875 C 129.742188 172.046875 82.910156 169.210938 82.910156 165.71875 C 82.910156 164.960938 85.097656 164.238281 89.089844 163.570312 C 87.871094 162.808594 86.824219 161.871094 85.945312 160.808594 C 77.390625 162.277344 72.523438 163.941406 72.523438 165.71875 C 72.523438 171.496094 124.003906 176.179688 187.515625 176.179688 C 251.023438 176.179688 302.503906 171.496094 302.503906 165.71875 C 302.503906 164.027344 298.082031 162.433594 290.265625 161.019531 " fill-opacity="1" fill-rule="nonzero"/></svg>